<svg width="354" height="370" viewBox="0 0 354 370" fill="none" xmlns="http://www.w3.org/2000/svg">
    <path
        d="M304.597 144.649C301.301 110.45 284.14 76.3272 269.332 57.4891C206.585 -22.3724 80.6444 -22.2195 20.6584 78.0913C3.73865 106.38 -6.87518 169.282 5.68579 215.805C21.7656 275.344 85.1368 298.538 155.603 297.991C221.443 297.481 273.214 268.829 292.596 229.249C304.725 204.481 307.894 178.848 304.597 144.649Z"
        fill="#37474F" />
    <path
        d="M20.6584 78.0913C3.73865 106.38 -6.87518 169.282 5.68579 215.805C8.50469 226.249 12.7871 235.572 18.304 243.852L88.2675 203.43L147.891 168.983L287.958 88.0581C282.129 75.9388 275.524 65.3734 269.326 57.4891C206.585 -22.3724 80.6444 -22.2195 20.6584 78.0913Z"
        fill="#263238" />
    <g opacity="0.2">
        <path
            d="M20.773 126.135C22.1283 125.352 23.2292 123.448 23.2292 121.881V116.914C23.2292 115.347 22.1283 114.71 20.773 115.494L4.56587 124.855C3.82138 128.702 3.1596 132.638 2.58691 136.637L20.773 126.135Z"
            fill="black" />
        <path
            d="M14.9888 89.4018L20.7729 86.0583C22.1283 85.2749 23.2291 83.3707 23.2291 81.8041V76.8366C23.2291 76.0023 22.911 75.4483 22.421 75.2126C21.8292 76.1616 21.2438 77.1168 20.6647 78.0849C18.6731 81.4092 16.7768 85.2113 14.9888 89.4018Z"
            fill="black" />
        <path
            d="M45.4304 45.7136L50.3301 42.886C51.6855 42.1027 52.7799 40.2048 52.7863 38.6382C50.2792 40.8926 47.8293 43.249 45.4304 45.7136Z"
            fill="black" />
        <path
            d="M23.2292 174.148V169.18C23.2292 167.614 22.1283 166.977 20.773 167.76L0.385254 179.542C0.537971 182.975 0.77341 186.388 1.09793 189.77L20.773 178.402C22.1283 177.619 23.2292 175.714 23.2292 174.148Z"
            fill="black" />
        <path
            d="M82.3305 99.9801V95.0127C82.3305 93.446 81.2296 92.8091 79.8743 93.5925L57.1576 106.718C55.8023 107.501 54.7014 109.406 54.7014 110.972V115.94C54.7014 117.506 55.8023 118.143 57.1576 117.36L79.8743 104.234C81.236 103.451 82.3305 101.547 82.3305 99.9801Z"
            fill="black" />
        <path
            d="M6.27124 217.804C6.74848 219.447 7.25754 221.065 7.81114 222.644V219.537C7.81114 218.352 7.17482 217.702 6.27124 217.804Z"
            fill="black" />
        <path
            d="M6.43027 159.621C7.78564 158.838 8.88647 156.934 8.88647 155.367V150.4C8.88647 148.833 7.78564 148.196 6.43027 148.979L0.887921 152.183C0.60794 155.826 0.41068 159.494 0.296143 163.162L6.43027 159.621Z"
            fill="black" />
        <path
            d="M86.7149 74.1745L109.432 61.049C110.787 60.2657 111.888 58.3615 111.888 56.7948V51.8273C111.888 50.2607 110.787 49.6238 109.432 50.4072L86.7149 63.5327C85.3595 64.3161 84.2587 66.2202 84.2587 67.7869V72.7544C84.265 74.3274 85.3595 74.9579 86.7149 74.1745Z"
            fill="black" />
        <path
            d="M101.923 156.819L124.64 143.694C125.995 142.91 127.096 141.006 127.096 139.439V134.472C127.096 132.905 125.995 132.268 124.64 133.052L101.923 146.177C100.568 146.961 99.4668 148.865 99.4668 150.431V155.399C99.4668 156.966 100.568 157.602 101.923 156.819Z"
            fill="black" />
        <path
            d="M42.8151 60.2468L65.5317 47.1213C66.8871 46.3379 67.9879 44.4337 67.9879 42.8671V37.8996C67.9879 36.333 66.8871 35.6961 65.5317 36.4794L42.8151 49.6114C41.4597 50.3947 40.3589 52.2989 40.3589 53.8655V58.833C40.3652 60.3997 41.4597 61.0301 42.8151 60.2468Z"
            fill="black" />
        <path
            d="M84.2651 98.8908C84.2651 100.457 85.366 101.094 86.7213 100.311L109.438 87.1855C110.793 86.4021 111.894 84.4979 111.894 82.9313V77.9638C111.894 76.3972 110.793 75.7603 109.438 76.5436L86.7213 89.6692C85.366 90.4525 84.2651 92.3567 84.2651 93.9234V98.8908Z"
            fill="black" />
        <path
            d="M50.3237 162.907L27.6071 176.033C26.2517 176.816 25.1509 178.72 25.1509 180.287V185.255C25.1509 186.821 26.2517 187.458 27.6071 186.675L50.3237 173.549C51.6791 172.766 52.7799 170.862 52.7799 169.295V164.328C52.7799 162.761 51.6791 162.124 50.3237 162.907Z"
            fill="black" />
        <path
            d="M141.279 0.401367C134.496 0.904482 127.719 1.87887 121.012 3.33726L116.266 6.07573C114.91 6.85906 113.809 8.76326 113.809 10.3299V15.2974C113.809 16.864 114.91 17.5009 116.266 16.7176L138.982 3.592C140.038 2.98062 140.936 1.68781 141.279 0.401367Z"
            fill="black" />
        <path
            d="M67.9879 147.406V142.439C67.9879 140.872 66.8871 140.235 65.5317 141.019L42.8151 154.144C41.4597 154.928 40.3589 156.832 40.3589 158.398V163.366C40.3589 164.933 41.4597 165.569 42.8151 164.786L65.5317 151.661C66.8871 150.877 67.9879 148.973 67.9879 147.406Z"
            fill="black" />
        <path
            d="M97.5387 182.625V177.657C97.5387 176.091 96.4379 175.454 95.0825 176.237L72.3659 189.363C71.0105 190.146 69.9097 192.05 69.9097 193.617V198.584C69.9097 200.151 71.0105 200.788 72.3659 200.004L95.0825 186.879C96.4379 186.095 97.5387 184.191 97.5387 182.625Z"
            fill="black" />
        <path
            d="M175.373 127.569L198.09 114.443C199.445 113.66 200.546 111.756 200.546 110.189V105.221C200.546 103.655 199.445 103.018 198.09 103.801L175.373 116.927C174.018 117.71 172.917 119.614 172.917 121.181V126.148C172.917 127.715 174.018 128.352 175.373 127.569Z"
            fill="black" />
        <path
            d="M190.581 131.81L213.298 118.684C214.653 117.901 215.754 115.997 215.754 114.43V109.463C215.754 107.896 214.653 107.259 213.298 108.043L190.581 121.168C189.226 121.952 188.125 123.856 188.125 125.422V130.39C188.125 131.957 189.226 132.593 190.581 131.81Z"
            fill="black" />
        <path
            d="M172.917 57.419V62.3864C172.917 63.9531 174.018 64.59 175.373 63.8066L198.09 50.6811C199.445 49.8977 200.546 47.9936 200.546 46.4269V41.4594C200.546 39.8928 199.445 39.2559 198.09 40.0392L175.373 53.1648C174.018 53.9481 172.917 55.8523 172.917 57.419Z"
            fill="black" />
        <path
            d="M188.329 10.1328C186.974 10.9161 185.873 12.8203 185.873 14.3869V19.3544C185.873 20.9211 186.974 21.5579 188.329 20.7746L206.369 10.3493C202.589 8.85269 198.752 7.52166 194.877 6.34985L188.329 10.1328Z"
            fill="black" />
        <path
            d="M183.741 35.1991L161.024 48.3246C159.669 49.108 158.568 51.0122 158.568 52.5788V57.5463C158.568 59.1129 159.669 59.7498 161.024 58.9665L183.741 45.8409C185.096 45.0576 186.197 43.1534 186.197 41.5867V36.6193C186.197 35.0462 185.096 34.4158 183.741 35.1991Z"
            fill="black" />
        <path
            d="M215.748 57.1962C215.748 55.6296 214.647 54.9927 213.292 55.7761L190.575 68.9016C189.22 69.685 188.119 71.5891 188.119 73.1558V78.1233C188.119 79.6899 189.22 80.3268 190.575 79.5434L213.292 66.4179C214.647 65.6346 215.748 63.7304 215.748 62.1637V57.1962Z"
            fill="black" />
        <path
            d="M272.4 73.9455L249.683 87.0711C248.328 87.8544 247.227 89.7586 247.227 91.3252V96.2927C247.227 97.8594 248.328 98.4962 249.683 97.7129L272.4 84.5873C273.755 83.804 274.856 81.8998 274.856 80.3331V75.3657C274.849 73.799 273.755 73.1622 272.4 73.9455Z"
            fill="black" />
        <path
            d="M272.069 61.1191L264.026 65.7809C262.67 66.5642 261.569 68.4684 261.569 70.0351V75.0025C261.569 76.5692 262.67 77.2061 264.026 76.4227L277.261 68.755C275.53 66.0356 273.793 63.4819 272.069 61.1191Z"
            fill="black" />
        <path
            d="M156.64 96.2606V91.2932C156.64 89.7265 155.539 89.0897 154.184 89.873L131.467 102.999C130.112 103.782 129.011 105.686 129.011 107.253V112.22C129.011 113.787 130.112 114.424 131.467 113.64L154.184 100.515C155.546 99.7315 156.64 97.8273 156.64 96.2606Z"
            fill="black" />
        <path
            d="M242.843 38.7275L220.126 51.853C218.771 52.6364 217.67 54.5406 217.67 56.1072V61.0747C217.67 62.6413 218.771 63.2782 220.126 62.4949L242.843 49.3693C244.198 48.586 245.299 46.6818 245.299 45.1151V40.1477C245.299 38.581 244.204 37.9441 242.843 38.7275Z"
            fill="black" />
        <path
            d="M138.982 137.898L116.266 151.024C114.91 151.807 113.809 153.711 113.809 155.278V160.245C113.809 161.812 114.91 162.449 116.266 161.666L138.982 148.54C140.338 147.757 141.438 145.853 141.438 144.286V139.318C141.438 137.745 140.338 137.115 138.982 137.898Z"
            fill="black" />
        <path
            d="M20.5628 233.006C21.9182 232.223 23.019 230.318 23.019 228.752V223.784C23.019 222.218 21.9182 221.581 20.5628 222.364L10.0444 228.44C11.2598 231.312 12.5897 234.089 14.0469 236.77L20.5628 233.006Z"
            fill="black" />
        <path
            d="M232.025 87.0835V92.051C232.025 93.6177 233.126 94.2545 234.481 93.4712L257.198 80.3456C258.553 79.5623 259.654 77.6581 259.654 76.0914V71.124C259.654 69.5573 258.553 68.9205 257.198 69.7038L234.481 82.8294C233.119 83.6127 232.025 85.5169 232.025 87.0835Z"
            fill="black" />
    </g>
    <path opacity="0.15"
        d="M100.95 246.67C100.703 246.524 100.437 246.398 100.171 246.277L100.266 246.22L55.9957 221.979V205.669L46.0271 211.422V227.733L87.1035 250.22C87.192 251.347 87.9764 252.467 89.4691 253.322C92.6318 255.157 97.7742 255.157 100.95 253.322C102.543 252.41 103.334 251.195 103.334 249.986C103.334 248.796 102.543 247.581 100.95 246.67Z"
        fill="black" />
    <path opacity="0.15"
        d="M88.1815 254.304C87.9321 254.159 87.6635 254.032 87.3949 253.912L87.4908 253.855L42.7283 229.62V213.31L32.6553 219.063V235.373L74.188 257.861C74.2776 258.988 75.0706 260.108 76.58 260.963C79.7778 262.798 84.9774 262.798 88.1879 260.963C89.7996 260.051 90.5991 258.836 90.5991 257.627C90.5927 256.431 89.7932 255.222 88.1815 254.304Z"
        fill="black" />
    <path opacity="0.15"
        d="M302.934 359.682C298.118 356.665 291.946 354.07 284.59 351.988C276.322 349.646 266.541 347.922 259.514 345.092C250.375 341.408 246.282 335.95 246.011 329.9C245.855 326.476 247.326 322.434 254.715 318.806C256.605 317.879 258.939 316.985 261.528 316.472C265.325 315.732 268.752 315.984 271.547 316.399C286.431 318.579 293.458 324.255 299.195 329.924C304.923 335.593 311.284 338.439 322.61 342.92C327.459 344.84 332.62 346.653 337.231 348.638C337.272 348.654 337.305 348.67 337.346 348.687C339.672 349.695 342.204 350.581 344.094 351.753C347.11 353.623 349.814 355.608 351.146 357.942C352.477 360.268 352.387 362.968 349.913 365.839C349.272 366.579 348.417 367.368 346.855 368.035C345.532 368.604 343.831 369.019 342.179 369.32C338.801 369.93 335.472 370.092 332.629 369.954C329.777 369.824 327.352 369.409 325.108 368.937C315.271 366.855 308.687 363.285 302.934 359.682Z"
        fill="black" />
    <path
        d="M54.0779 202.991L57.3486 204.876L50.8009 216.231L47.5238 214.34C46.6839 213.856 46.1685 212.818 46.1685 211.34C46.1685 208.385 48.2429 204.787 50.8009 203.309C52.0799 202.571 53.238 202.507 54.0779 202.991Z"
        fill="#455A64" />
    <path
        d="M49.439 213.238C49.439 210.283 51.5134 206.685 54.0714 205.207C56.6294 203.73 58.7038 204.927 58.7038 207.882C58.7038 210.837 56.6294 214.435 54.0714 215.913C51.5134 217.39 49.439 216.193 49.439 213.238Z"
        fill="#263238" />
    <g opacity="0.3">
        <path
            d="M50.7944 212.448C50.7944 210.359 52.258 207.818 54.0715 206.774C55.8786 205.73 57.3485 206.577 57.3485 208.665C57.3485 210.754 55.885 213.295 54.0715 214.34C52.258 215.391 50.7944 214.544 50.7944 212.448Z"
            fill="black" />
    </g>
    <g opacity="0.3">
        <path
            d="M55.026 207.328C55.026 209.417 53.5624 211.958 51.7489 213.002C51.4562 213.168 51.1826 213.27 50.909 213.346C50.839 213.079 50.7881 212.786 50.7881 212.448C50.7881 210.359 52.2516 207.818 54.0651 206.774C54.3578 206.608 54.6315 206.506 54.9051 206.43C54.9814 206.697 55.026 206.99 55.026 207.328Z"
            fill="black" />
    </g>
    <path
        d="M51.7553 214.582L90.1445 236.789C90.5072 236.999 90.7236 237.381 90.7236 237.795V241.011V250.94H99.9884V239.54V236.579C99.9884 233.605 98.404 230.86 95.8332 229.369L56.3877 206.551C55.7959 206.207 54.9751 206.252 54.0651 206.774C52.258 207.818 50.7881 210.359 50.7881 212.448C50.7944 213.499 51.1635 214.231 51.7553 214.582Z"
        fill="#455A64" />
    <path
        d="M99.9884 237.012C99.9884 236.35 99.9057 235.706 99.7594 235.082C99.7912 235.337 99.893 237.107 96.4887 238.241C92.8108 239.464 90.73 238.241 90.73 238.241V241.457V250.946H99.9948V239.98V237.012H99.9884Z"
        fill="#37474F" />
    <g opacity="0.3">
        <path
            d="M51.7553 214.582L90.1445 236.789C90.5072 236.999 90.7235 237.381 90.7235 237.795V241.011V250.94H94.1597V241.139V239.865C94.1597 236.891 92.5752 234.146 90.0045 232.656L51.2971 210.264C51.0044 210.996 50.7944 211.741 50.7944 212.448C50.7944 213.499 51.1635 214.232 51.7553 214.582Z"
            fill="black" />
    </g>
    <path
        d="M101.917 245.667V249.45C101.917 250.424 101.274 251.405 99.9885 252.144C97.4177 253.627 93.2626 253.627 90.6982 252.144C89.4128 251.405 88.7701 250.424 88.7701 249.456V245.66H90.7236C90.7236 246.132 90.9209 246.59 91.3409 246.998C91.3918 247.049 91.4363 247.1 91.4936 247.144C91.659 247.284 91.8372 247.424 92.0599 247.552C93.8734 248.603 96.8132 248.603 98.6268 247.552C98.8495 247.418 99.0276 247.278 99.1931 247.144C99.2503 247.093 99.3012 247.049 99.3458 246.998C99.7658 246.59 99.9885 246.125 99.9885 245.66H101.917V245.667Z"
        fill="#263238" />
    <path
        d="M101.917 245.667C101.917 246.635 101.274 247.615 99.9885 248.354C97.4177 249.832 93.2626 249.832 90.6982 248.354C89.4128 247.615 88.7701 246.635 88.7701 245.667C88.7701 244.699 89.4128 243.718 90.6982 242.979C90.7046 242.973 90.7173 242.973 90.7236 242.96V245.66C90.7236 246.131 90.9209 246.59 91.3409 246.998C91.3918 247.049 91.4363 247.1 91.4936 247.144C91.659 247.284 91.8372 247.424 92.0599 247.552C93.8734 248.602 96.8132 248.602 98.6268 247.552C98.8495 247.418 99.0276 247.278 99.1931 247.144C99.2503 247.093 99.3012 247.049 99.3458 246.998C99.7658 246.59 99.9885 246.125 99.9885 245.66V242.973C101.28 243.718 101.917 244.699 101.917 245.667Z"
        fill="#455A64" />
    <path
        d="M40.7024 210.722L43.9731 212.608L37.4254 223.963L34.1483 222.071C33.3084 221.587 32.793 220.549 32.793 219.072C32.793 216.117 34.8674 212.518 37.4254 211.041C38.7044 210.302 39.8625 210.238 40.7024 210.722Z"
        fill="#455A64" />
    <path
        d="M36.0635 220.97C36.0635 218.015 38.1379 214.416 40.6959 212.939C43.2539 211.461 45.3283 212.659 45.3283 215.614C45.3283 218.569 43.2539 222.167 40.6959 223.644C38.1379 225.122 36.0635 223.925 36.0635 220.97Z"
        fill="#263238" />
    <g opacity="0.3">
        <path
            d="M37.4189 220.18C37.4189 218.091 38.8825 215.55 40.696 214.505C42.5031 213.461 43.973 214.308 43.973 216.397C43.973 218.486 42.5095 221.027 40.696 222.071C38.8888 223.122 37.4189 222.275 37.4189 220.18Z"
            fill="black" />
    </g>
    <g opacity="0.3">
        <path
            d="M41.6568 215.059C41.6568 217.148 40.1933 219.689 38.3798 220.734C38.0871 220.899 37.8135 221.001 37.5398 221.078C37.4699 220.81 37.4189 220.517 37.4189 220.18C37.4189 218.091 38.8825 215.55 40.696 214.505C40.9887 214.34 41.2623 214.238 41.5359 214.161C41.6059 214.429 41.6568 214.722 41.6568 215.059Z"
            fill="black" />
    </g>
    <path
        d="M38.3798 222.313L76.769 244.52C77.1317 244.73 77.3481 245.113 77.3481 245.526V248.743V258.232H86.6129V247.265V244.304C86.6129 241.33 85.0285 238.585 82.4577 237.095L43.0122 214.276C42.4204 213.932 41.5996 213.977 40.6897 214.499C38.8825 215.543 37.4126 218.084 37.4126 220.173C37.419 221.231 37.788 221.963 38.3798 222.313Z"
        fill="#455A64" />
    <path
        d="M86.613 244.304C86.613 243.641 86.5302 242.998 86.3839 242.374C86.4157 242.629 86.5175 244.399 83.1132 245.533C79.4353 246.756 77.3545 245.533 77.3545 245.533V248.749V258.238H86.6193V247.271V244.304H86.613Z"
        fill="#37474F" />
    <g opacity="0.3">
        <path
            d="M38.3798 222.313L76.769 244.52C77.1317 244.73 77.3481 245.113 77.3481 245.527V248.743V258.232H80.7842V248.87V247.596C80.7842 244.622 79.1998 241.877 76.629 240.387L37.9216 217.995C37.6289 218.728 37.4189 219.473 37.4189 220.18C37.4189 221.231 37.788 221.963 38.3798 222.313Z"
            fill="black" />
    </g>
    <path
        d="M88.5409 253.398V257.181C88.5409 258.155 87.8982 259.136 86.6129 259.875C84.0421 261.359 79.887 261.359 77.3226 259.875C76.0372 259.136 75.3945 258.155 75.3945 257.187V253.392H77.348C77.348 253.863 77.5453 254.321 77.9653 254.729C78.0162 254.78 78.0607 254.825 78.118 254.875C78.2834 255.016 78.4616 255.156 78.6843 255.289C80.4978 256.34 83.4376 256.34 85.2511 255.289C85.4739 255.156 85.652 255.016 85.8175 254.875C85.8747 254.825 85.9256 254.78 85.9702 254.729C86.3902 254.321 86.6129 253.857 86.6129 253.392H88.5409V253.398Z"
        fill="#263238" />
    <path
        d="M88.5409 253.398C88.5409 254.366 87.8982 255.347 86.6129 256.086C84.0421 257.563 79.887 257.563 77.3226 256.086C76.0372 255.347 75.3945 254.366 75.3945 253.398C75.3945 252.43 76.0372 251.449 77.3226 250.711C77.3289 250.704 77.3417 250.704 77.348 250.691V253.392C77.348 253.863 77.5453 254.321 77.9653 254.729C78.0162 254.78 78.0607 254.825 78.118 254.876C78.2834 255.016 78.4616 255.156 78.6843 255.289C80.4978 256.34 83.4376 256.34 85.2511 255.289C85.4739 255.156 85.652 255.016 85.8175 254.876C85.8747 254.825 85.9256 254.78 85.9702 254.729C86.3902 254.321 86.6129 253.857 86.6129 253.392V250.704C87.9046 251.449 88.5409 252.43 88.5409 253.398Z"
        fill="#455A64" />
    <path
        d="M182.784 77.6762C182.784 52.2094 173.854 34.3088 159.407 25.9622C144.961 17.6157 125.015 18.8233 102.976 31.5567C58.898 57.0317 23.1677 118.973 23.1677 169.907C23.1677 195.374 32.0982 213.274 46.5447 221.621C60.9911 229.967 80.9371 228.76 102.976 216.026C147.054 190.551 182.784 128.61 182.784 77.6762Z"
        fill="#FC7C06" />
    <path opacity="0.95"
        d="M182.784 77.6762C182.784 52.2094 173.854 34.3088 159.407 25.9622C144.961 17.6157 125.015 18.8233 102.976 31.5567C58.898 57.0317 23.1677 118.973 23.1677 169.907C23.1677 195.374 32.0982 213.274 46.5447 221.621C60.9911 229.967 80.9371 228.76 102.976 216.026C147.054 190.551 182.784 128.61 182.784 77.6762Z"
        fill="white" />
    <g opacity="0.2">
        <path
            d="M58.2001 204.155L38.5825 215.492C40.9957 217.907 43.6552 219.953 46.5445 221.62C47.431 222.13 48.3339 222.606 49.2614 223.05L58.2001 217.883C59.9485 216.872 61.3685 214.416 61.3685 212.395V205.987C61.3685 203.966 59.9485 203.145 58.2001 204.155Z"
            fill="#FC7C06" />
        <path
            d="M101.983 87.8711C101.983 89.892 103.403 90.7135 105.151 89.7031L134.454 72.7718C136.203 71.7613 137.623 69.305 137.623 67.2841V60.8763C137.623 58.8554 136.203 58.0339 134.454 59.0444L105.151 75.9757C103.403 76.9861 101.983 79.4424 101.983 81.4633V87.8711Z"
            fill="#FC7C06" />
        <path
            d="M134.446 92.7509L105.143 109.682C103.395 110.693 101.974 113.149 101.974 115.17V121.578C101.974 123.599 103.395 124.42 105.143 123.41L134.446 106.478C136.194 105.468 137.614 103.012 137.614 100.991V94.5829C137.606 92.562 136.194 91.7405 134.446 92.7509Z"
            fill="#FC7C06" />
        <path
            d="M80.9862 49.3177V47.8225C76.8821 51.5522 72.9175 55.5775 69.1089 59.8412L77.8178 54.8053C79.5661 53.7867 80.9862 51.3303 80.9862 49.3177Z"
            fill="#FC7C06" />
        <path
            d="M153.53 165.955L124.761 182.583C123.012 183.593 121.592 186.049 121.592 188.07V194.478C121.592 196.499 123.012 197.32 124.761 196.31L133.806 191.085C140.972 183.462 147.604 174.984 153.53 165.955Z"
            fill="#FC7C06" />
        <path
            d="M162.879 126.876C161.131 127.887 159.711 130.343 159.711 132.364V138.772C159.711 140.793 161.131 141.614 162.879 140.604L169.241 136.932C171.761 131.148 173.969 125.283 175.84 119.392L162.879 126.876Z"
            fill="#FC7C06" />
        <path
            d="M80.9862 184.16V177.752C80.9862 175.731 79.5662 174.91 77.8178 175.92L48.5146 192.852C46.7662 193.862 45.3462 196.318 45.3462 198.339V204.747C45.3462 206.768 46.7662 207.589 48.5146 206.579L77.8178 189.648C79.5662 188.637 80.9862 186.181 80.9862 184.16Z"
            fill="#FC7C06" />
        <path
            d="M96.3274 114.743L67.0241 131.674C65.2757 132.684 63.8557 135.141 63.8557 137.162V143.569C63.8557 145.59 65.2757 146.412 67.0241 145.401L96.3274 128.47C98.0757 127.46 99.4957 125.003 99.4957 122.982V116.575C99.4875 114.554 98.0757 113.732 96.3274 114.743Z"
            fill="#FC7C06" />
    </g>
    <path opacity="0.2"
        d="M233.691 199.021L76.0692 226.197V226.188C64.8568 228.037 54.7936 226.394 46.5361 221.621C32.0979 213.274 23.1592 195.382 23.1592 169.915C23.1592 118.973 58.8977 57.0317 102.976 31.5567C125.015 18.8233 144.969 17.6157 159.407 25.9622C167.665 30.7352 174.116 38.6299 178.13 49.2766L178.138 49.2684L233.691 199.021Z"
        fill="#FC7C06" />
    <path opacity="0.2"
        d="M233.691 199.021L76.0692 226.197V226.188C64.8568 228.037 54.7936 226.394 46.5361 221.621C32.0979 213.274 23.1592 195.382 23.1592 169.915C23.1592 118.973 58.8977 57.0317 102.976 31.5567C125.015 18.8233 144.969 17.6157 159.407 25.9622C167.665 30.7352 174.116 38.6299 178.13 49.2766L178.138 49.2684L233.691 199.021Z"
        fill="white" />
    <path
        d="M339.914 194.593L331.911 175.608C328.086 165.824 329.53 152.598 329.53 152.598C334.135 152.515 338.453 154.076 341.432 159.49C344.412 164.904 350.313 184.176 351.668 188.317C353.055 192.991 353.383 194.831 353.629 199.465C353.892 204.287 352.661 213.184 352.349 217.99C352.201 220.216 352.218 222.344 352.226 224.594C352.234 226.936 351.635 229.195 351.323 231.512C351.175 232.588 350.642 233.664 349.969 234.502C349.525 235.052 348.819 235.233 348.393 235.759C347.958 236.301 347.982 237.04 347.35 237.517C346.644 238.051 345.709 237.969 345.109 238.494C344.477 239.045 343.993 239.76 343.271 240.252C342.622 240.696 342.113 240.91 341.687 241.608C341.334 242.175 341.104 243.341 340.291 243.407C339.38 243.481 339.076 242.643 338.888 241.904C338.559 240.597 338.97 238.798 339.569 237.607C340.258 236.227 340.619 234.707 341.465 233.417C342.237 232.243 342.516 230.674 342.672 229.277C342.786 228.299 342.475 227.133 341.383 227.889C340.094 228.784 338.855 230.403 337.115 230.427C335.908 230.444 335.678 229.532 336.212 228.636C337.115 227.141 337.853 225.662 338.535 224.036C339.208 222.417 339.708 220.742 340.431 219.148C340.808 218.318 341.284 217.505 341.769 216.724C343.123 214.547 342.589 212.017 342.351 209.618C342.015 206.258 340.644 198.832 339.914 194.593Z"
        fill="#FFA8A7" />
    <path
        d="M328.75 151.85C335.235 152.335 338.863 153.674 342.335 160.032C345.807 166.391 350.42 181.86 351.43 185.039C352.439 188.218 353.457 191.816 353.851 196.91C354.155 200.812 353.9 203.86 353.9 203.86C353.9 203.86 353.022 205.56 347.818 205.56C342.622 205.56 341.087 204.648 341.087 204.648L339.437 194.725L328.742 171.164V151.85H328.75Z"
        fill="#455A64" />
    <path
        d="M252.997 325.985C252.472 325.755 252.037 327.077 252.168 327.825C252.546 329.969 254.598 332.803 258.258 334.956C261.919 337.1 269.963 338.554 272.327 339.219C274.691 339.885 278.344 342.374 280.552 343.507C284.574 345.561 287.857 345.323 289.679 344.411C290.394 344.05 290.705 343.277 290.902 342.596C291.387 340.969 291.346 340.599 291.165 340.55L252.997 325.985Z"
        fill="#263238" />
    <path
        d="M292.224 335.695C292.06 337.379 291.461 340.099 290.722 341.635C289.844 342.678 288.309 342.933 287.151 342.925C284.098 342.9 281.43 341.848 278.59 340.214C276.891 339.228 275.028 338.168 272.795 337.577C270.341 336.928 264.842 335.753 262.412 334.997C260.343 334.356 257.848 333.091 256.239 331.596C254.877 330.339 252.989 327.907 252.849 326.494C253.26 323.422 254.113 321.795 256.1 321.352C258.201 320.883 260.787 321.491 264.357 322.354C265.424 322.609 266.762 322.978 267.337 323.093C269.52 323.545 271.539 324.022 273.173 324.441C274.568 324.794 275.947 325.131 277.392 324.851C278.081 324.72 278.631 324.531 279.099 324.013C279.674 323.381 280.01 322.296 280.683 322.444C280.683 322.444 291.961 328.335 292.889 328.745C293.972 329.222 292.733 330.586 292.224 335.695Z"
        fill="#37474F" />
    <path
        d="M252.849 326.503C253.03 324.367 253.785 321.574 256.297 321.237C260.056 320.727 263.733 322.264 267.337 323.11L262.954 322.099C257.906 321.04 253.613 319.848 252.849 326.503Z"
        fill="white" />
    <path
        d="M266.45 322.699C266.032 322.814 265.515 323.184 265.235 323.463C264.841 323.833 264.53 324.211 264.242 324.671C263.889 325.229 264.595 325.591 265.121 324.991C265.473 324.58 265.859 324.104 266.508 323.611C266.82 323.373 267.427 323.134 267.78 323.208C268.051 323.266 268.404 323.34 268.404 323.34C268.387 322.822 267.017 322.543 266.45 322.699Z"
        fill="#FAFAFA" />
    <path
        d="M272.04 323.808C271.63 323.619 271.244 323.627 270.809 323.783C270.292 323.972 269.89 324.35 269.553 324.769C269.282 325.114 268.675 326.018 268.494 326.412C268.322 326.79 269.249 327.078 269.487 326.683C269.725 326.297 270.177 325.583 270.489 325.196C270.677 324.958 271.49 324.087 272.155 324.186L272.45 324.26C272.5 324.128 272.344 323.972 272.229 323.898C272.163 323.874 272.106 323.841 272.04 323.808Z"
        fill="#FAFAFA" />
    <path
        d="M275.225 324.736C274.88 324.744 274.683 324.72 274.396 324.917C274.125 325.106 273.78 325.426 273.599 325.705C273.091 326.461 272.943 326.839 272.697 327.546C272.524 328.047 273.485 328.211 273.624 327.882C274.067 326.847 274.289 326.157 275.044 325.541C275.668 325.032 276.103 324.966 276.103 324.966C276.103 324.868 275.972 324.81 275.881 324.802C275.734 324.777 275.372 324.736 275.225 324.736Z"
        fill="#FAFAFA" />
    <path
        d="M297.362 316.225C297.362 316.225 293.825 326.979 292.741 329.427C292.396 330.207 290.763 330.043 289.86 330.125C288.957 330.216 287.537 330.355 286.642 330.807C283.991 332.154 282.333 332.13 282.251 328.252C282.235 327.455 281.873 326.995 280.905 326.872C280.182 326.774 279.386 326.856 278.738 326.494C278.656 326.387 278.771 326.248 278.877 326.166C279.69 325.55 280.133 325.131 280.494 323.644C281.603 319.043 282.169 315.075 283.375 309.423L297.362 316.225Z"
        fill="#FFA8A7" />
    <path
        d="M305.883 209.857C305.883 209.857 300.473 216.338 297.207 228.464C293.242 243.185 291.707 254.506 290.459 262.729C289.68 267.888 289.105 271.577 287.701 280.983C286.536 288.82 281.389 317.942 281.389 317.942C281.389 317.942 285.157 321.204 288.333 322.411C291.288 323.529 294.014 323.972 295.105 323.529C295.105 323.529 298.741 314.18 303.248 301.939C306.08 294.242 307.639 288.68 308.427 284.663C309.018 281.632 308.87 276.251 308.813 273.532L332.994 236.145C332.994 236.145 335.407 233.631 337.509 228.349C340.694 220.356 336.63 208.846 336.63 208.846L305.883 209.857Z"
        fill="#263238" />
    <path
        d="M297.206 228.464C293.349 242.889 291.256 258.35 289.097 273.145C286.881 287.653 283.967 303.443 281.397 317.942C283.663 303.369 286.577 287.629 288.695 273.088C290.968 258.301 293.045 242.832 297.206 228.464Z"
        fill="white" />
    <path
        d="M329.686 220.355H299.989C299.012 222.689 298.044 225.4 297.215 228.472C293.669 241.641 292.068 252.082 290.878 260.018C291.6 264.881 292.421 269.876 293.176 273.318C295.171 282.388 296.418 288.787 297.994 292.533C299.57 296.271 303.363 301.57 303.379 301.594C306.129 294.086 307.656 288.623 308.435 284.671C309.026 281.64 308.879 276.259 308.821 273.54L326.387 246.389L327.749 237.977C332.231 230.641 331.738 225.145 329.686 220.355Z"
        fill="black" />
    <path
        d="M340.061 333.165C338.535 330.725 337.714 326.026 334.357 316.472L321.297 327.184L329.038 339.499C329.44 340.197 329.456 341.248 329.596 341.446C331.27 343.844 340.061 333.165 340.061 333.165Z"
        fill="#FFA8A7" />
    <path
        d="M344.675 338.373C344.658 338.234 344.732 337.083 344.691 336.944C344.371 335.703 343.599 335.358 342.623 334.668C341.408 333.814 340.226 332.779 339.914 332.352C339.586 331.892 339.52 331.662 339.011 331.448C338.141 331.095 336.746 331.062 335.022 331.974C332.198 333.461 331.336 335.243 331.5 337.182C331.624 338.661 331.747 340.624 330.45 341.503C329.908 341.865 329.054 339.507 329.054 339.507C328.25 340.854 329.383 342.719 329.966 345.438C330.368 347.311 330.269 348.125 330.048 350.022C329.76 352.413 329.432 352.405 328.16 352.569C327.068 352.709 323.965 352.503 322.077 353.826C319.475 355.641 320.173 358.065 320.173 358.065C320.51 358.985 323.342 363.446 333.667 361.778C336.663 361.293 342.959 356.578 342.861 356.142C342.77 355.732 342.869 355.198 342.885 354.787C342.918 353.727 342.967 352.676 343.017 351.616C343.058 350.655 342.959 349.529 343.189 348.593C343.394 347.763 343.493 346.958 343.575 346.095C343.772 343.976 343.969 341.848 344.166 339.729C344.215 339.113 344.757 338.973 344.675 338.373Z"
        fill="#37474F" />
    <path
        d="M345.971 337.954C346.989 338.94 346.373 341.807 345.003 345.241C344.395 346.769 343.271 349.39 343.599 352.183C343.927 354.976 343.993 356.29 343.271 357.597C342.146 359.642 336.138 362.263 332.6 363.076C332.6 363.076 335.842 359.001 336.195 352.84C336.548 346.679 337.024 342.711 339.832 339.983C343.402 336.533 345.971 337.954 345.971 337.954Z"
        fill="black" />
    <path
        d="M320.165 358.057C320.165 358.057 322.233 361.942 330.228 361.819C333.372 361.77 335.063 360.234 335.136 355.444C335.227 349.677 335.695 343.853 337.558 340.986C339.421 338.119 342.392 336.73 344.699 336.936C345.101 337.001 345.602 337.379 345.979 337.946C345.979 337.946 343.673 337.19 340.086 340.164C337.435 342.366 336.721 346.958 336.762 352.659C336.778 355.116 336.926 357.901 336.212 359.757C335.547 361.474 334.078 362.649 332.395 363.125C328.045 364.349 322.102 362.337 320.6 360.496C319.73 359.281 320.165 358.057 320.165 358.057Z"
        fill="#263238" />
    <path
        d="M329.76 351.526C329.76 351.526 329.177 351.936 329.112 352.479C329.046 353.021 329.235 354.278 330.367 354.984C330.852 355.288 331.27 355.181 330.507 354.171C329.752 353.152 329.76 351.526 329.76 351.526Z"
        fill="#FAFAFA" />
    <path
        d="M330.195 348.535C330.195 348.535 329.941 348.7 329.875 349.497C329.842 349.924 330.507 351.657 331.352 352.068C332.19 352.479 331.738 351.509 331.377 351.033C330.975 350.515 330.269 349.332 330.195 348.535Z"
        fill="#FAFAFA" />
    <path
        d="M329.908 345.241C329.908 345.241 329.637 345.315 329.924 346.424C330.023 346.793 331.122 347.886 331.664 347.952C332.206 348.017 332.469 347.746 331.804 347.262C331.287 346.876 330.014 345.775 329.908 345.241Z"
        fill="#FAFAFA" />
    <path
        d="M324.646 209.856C326.058 211.302 329.571 216.157 330.146 223.625C330.392 226.788 329.489 232.744 325.804 237.229C324.671 253.791 323.604 285.057 323.604 285.057C327.445 290.487 328.414 293.971 330.95 302.046C332.485 306.95 337.812 326.412 337.812 326.412C330.031 327.587 325.303 334.43 325.303 334.43C325.303 334.43 314.517 317.039 307.335 304.938C302.09 296.082 300.284 292.27 298.52 287.251C296.903 282.634 295.729 277.048 294.153 266.269C292.577 255.491 291.034 241.304 290.262 230.69C289.491 220.084 289.934 208.994 289.934 208.994L324.646 209.856Z"
        fill="#263238" />
    <path
        d="M325.287 334.43C321.56 328.54 314.222 316.669 310.619 310.705C305.899 302.712 300.637 294.875 297.896 285.912C295.655 276.867 294.095 267.691 292.946 258.449C291.789 249.223 290.87 239.965 290.254 230.682C290.632 235.315 291.083 239.94 291.592 244.565C293.061 258.408 294.842 272.299 298.29 285.805C300.966 294.718 306.194 302.588 310.857 310.565C310.848 310.574 325.287 334.43 325.287 334.43Z"
        fill="white" />
    <path
        d="M338.674 222.836C337.599 222.532 336.072 221.505 335.498 220.577C335.153 220.019 334.939 219.23 334.677 218.236C334.39 217.143 334.028 215.788 333.339 214.26L332.518 214.629C333.175 216.092 333.511 217.357 333.807 218.474C334.094 219.55 334.316 220.396 334.734 221.062C335.424 222.163 337.197 223.403 338.592 223.74C338.625 223.436 338.65 223.132 338.674 222.836Z"
        fill="black" />
    <path
        d="M317.423 232.325C317.653 232.317 317.842 232.3 317.998 232.267C319.295 231.98 320.304 231.109 322.315 228.529C323.85 226.566 323.686 225.161 323.432 222.828C323.333 221.974 322.438 217.39 322.381 216.19L321.519 216.667C321.577 217.899 322.447 222.064 322.545 222.927C322.8 225.243 322.923 226.303 321.609 227.979C319.746 230.361 318.86 231.158 317.801 231.388C316.775 231.618 312.236 230.863 311.021 230.025C310.323 229.54 309.149 223.551 308.468 218.285L307.582 218.4C307.926 221.062 309.158 229.819 310.512 230.756C311.71 231.602 315.617 232.374 317.423 232.325Z"
        fill="black" />
    <path d="M308.739 147.02L310.38 158.997L326.641 158.168L324.876 145.196L308.739 147.02Z" fill="#FFA8A7" />
    <path d="M302.271 124.609C301.023 126.194 297.198 130.516 296.517 131.649L300.161 133.867L302.271 124.609Z"
        fill="#F28F8F" />
    <path
        d="M302.271 124.609C300.613 127.156 298.495 129.349 296.517 131.649C298.043 129.02 300.178 126.802 302.271 124.609Z"
        fill="white" />
    <path
        d="M311.308 112.566C306.284 112.023 303.026 115.589 301.565 126.293C301.507 126.712 300.883 127.369 300.416 128.971C298.405 135.839 299.529 142.378 300.686 144.12C303.6 146.461 306.834 147.34 311.521 146.937C315.092 146.633 324.211 145.549 328.832 140.719C334.266 135.034 337.016 126.474 333.15 122.038C327.724 115.786 314.074 112.861 311.308 112.566Z"
        fill="#FFA8A7" />
    <path
        d="M311.308 112.565C303.756 111.933 302.706 121.167 301.63 126.704C299.57 130.606 299.25 135.305 299.57 139.651C299.734 141.179 299.939 142.748 300.686 144.12C299.882 142.78 299.603 141.203 299.373 139.675C298.913 135.272 299.193 130.515 301.261 126.531C302.262 120.961 303.715 111.571 311.308 112.565Z"
        fill="white" />
    <path
        d="M300.687 144.12C301.327 145.081 305.932 147.447 308.821 147.627L308.55 145.377C308.55 145.377 304.651 145.36 300.687 144.12Z"
        fill="#F28F8F" />
    <path
        d="M310.315 131.32C310.668 132.142 311.488 132.216 311.989 131.6C312.588 130.86 313.064 130.072 313.82 129.472C314.698 128.782 315.814 128.338 316.922 128.421C321.141 128.741 320.115 134.303 318.039 136.241C314.649 139.412 312.851 136.677 312.851 136.677C312.851 136.677 310.421 142.058 313.967 145.196C313.967 145.196 320.091 147.841 324.892 146.354C328.488 142.477 330.893 140.028 333.314 136.693C339.043 128.79 339.052 120.969 335.374 118.735C335.58 115.925 334.061 111.711 328.307 109.279C322.824 106.955 319.155 107.185 315.182 107.406C311.218 107.628 306.342 109.435 302.665 106.363C301.745 108.573 301.975 111.226 303.272 113.239C302.098 112.713 300.563 113.28 300.005 114.438C299.447 115.597 299.972 117.149 301.122 117.733C300.309 118.135 299.931 119.195 300.227 120.058C300.514 120.912 301.384 121.512 302.287 121.586C303.239 121.66 303.838 121.561 304.782 121.429C305.94 124.674 309.592 125.808 311.768 125.668C311.71 125.66 311.423 126.112 311.382 126.17C311.259 126.35 311.144 126.539 311.037 126.728C310.824 127.114 310.651 127.517 310.52 127.936C310.249 128.774 310.142 129.661 310.216 130.54C310.249 130.803 310.208 131.058 310.315 131.32Z"
        fill="#455A64" />
    <path
        d="M302.681 106.355C301.811 108.581 302.065 111.202 303.354 113.19L303.494 113.404L303.256 113.297C300.366 112.221 298.528 116.065 301.171 117.651L301.318 117.725L301.171 117.799C299.11 119.113 300.621 121.734 302.821 121.561C303.477 121.586 304.134 121.495 304.791 121.413C303.814 121.569 302.812 121.75 301.827 121.545C300.005 121.142 299.357 118.62 301.097 117.651V117.799C298.216 116.106 300.194 111.974 303.321 113.165L303.223 113.28C301.926 111.227 301.704 108.548 302.681 106.355Z"
        fill="white" />
    <path
        d="M333.265 153.665C337.484 156.031 340.685 163.918 340.373 170.498C340.176 174.663 338.715 185.425 337.467 194.938C337.074 197.937 338.264 202.989 338.822 209.076C339.232 213.586 339.29 218.384 339.29 218.384C339.29 218.384 333.634 225.391 318.121 226.303C298.314 227.47 289.54 222.672 289.54 222.672C289.54 222.672 289.417 206.521 289.893 193.722C290.599 174.754 290.64 169.2 293.603 162.743C294.58 160.837 295.606 156.582 298.831 155.744C301.392 155.078 307.286 153.665 309.625 153.312C313.458 154.298 323.382 154.38 325.845 152.285L325.804 151.735C330.064 151.677 330.663 152.203 333.265 153.665Z"
        fill="#FC7C06" />
    <path
        d="M227.125 202.2C227.773 202.348 228.643 202.011 229.587 201.182C231.36 199.621 232.936 196.696 233.256 194.363C233.429 193.114 233.24 192.203 232.755 191.742C232.452 191.447 229.316 188.456 228.865 188.029C228.077 187.273 226.468 186.937 224.99 187.701C221.732 189.393 219.097 194.297 219.475 197.945C219.655 199.596 226.706 202.102 227.125 202.2Z"
        fill="#455A64" />
    <path
        d="M233.051 193.977C233.01 192.671 232.525 191.759 231.77 191.356C231.015 190.946 229.989 191.044 228.873 191.726C226.64 193.106 224.9 196.343 224.974 198.964C225.015 200.27 225.499 201.182 226.254 201.584C227.01 201.995 228.036 201.896 229.152 201.214C231.385 199.843 233.125 196.598 233.051 193.977Z"
        fill="#263238" />
    <path
        d="M253.407 213.496C253.859 213.726 254.466 213.668 255.123 213.258C256.42 212.453 257.421 210.588 257.38 209.06C257.355 208.288 257.076 207.754 256.633 207.499C256.362 207.343 232.296 193.607 231.91 193.385C231.27 193.016 230.424 193.008 229.546 193.435C227.765 194.297 226.509 196.622 226.772 198.594C226.903 199.563 227.371 200.261 228.036 200.598C228.43 200.795 253.128 213.356 253.407 213.496Z"
        fill="#455A64" />
    <path
        d="M257.38 209.06C257.355 208.288 257.076 207.754 256.633 207.499C256.19 207.244 255.582 207.285 254.918 207.68C253.58 208.477 252.545 210.407 252.611 211.96C252.644 212.732 252.948 213.258 253.399 213.496C253.851 213.726 254.458 213.669 255.115 213.258C256.412 212.453 257.421 210.58 257.38 209.06Z"
        fill="#263238" />
    <path
        d="M284.41 205.396C286.642 204.649 288.284 202.053 291.493 195.39C295.491 187.085 297.658 185.22 300.596 176.726C303.067 170.507 299.8 159.038 298.282 156.64C293.274 158.431 289.794 160.074 286.421 167.089C283.384 173.398 277.318 186.124 274.56 191.726C274.56 191.726 258.455 195.201 254.13 195.489C252.455 195.604 250.781 195.357 249.262 194.577C248.326 194.1 247.407 193.879 246.332 193.887C245.938 193.887 245.536 193.92 245.158 194.059C244.419 194.322 243.886 194.947 243.319 195.497C242.293 196.491 241.046 197.124 239.929 197.961C238.624 198.939 237.089 199.621 235.768 200.599C234.635 201.436 233.387 202.135 232.665 203.4C232.55 203.613 232.444 203.835 232.411 204.074C232.353 204.492 232.517 204.92 232.805 205.232C233.084 205.544 233.47 205.749 233.872 205.873C234.405 206.045 235.029 206.103 235.497 206.448C236.03 206.842 236.072 207.622 236.564 208.082C237.319 208.805 238.559 208.699 239.42 209.29C240.085 209.75 240.455 210.588 241.169 210.966C241.546 211.163 241.981 211.212 242.4 211.253C243.147 211.336 243.902 211.557 244.657 211.557C245.56 211.557 245.954 211.13 246.701 210.711C249.279 209.274 250.674 207.548 255.229 207.245C258.291 207.039 282.169 206.144 284.41 205.396Z"
        fill="#FFA8A7" />
    <path
        d="M298.766 155.744C293.324 157.034 290.106 158.997 286.527 165.569C283.211 171.657 274.248 191.11 274.248 191.11L265.252 193.648C265.252 193.648 262.962 196.532 263.856 200.935C264.71 205.149 266.581 207.047 266.581 207.047C266.581 207.047 271.186 206.924 279.041 206.645C286.774 206.373 287.455 204.558 289.179 201.14C290.902 197.731 301.466 177.103 301.466 177.103C301.466 177.103 305.71 161.889 298.766 155.744Z"
        fill="#455A64" />
    <path
        d="M309.625 153.312C305.964 153.986 302.353 154.922 298.758 155.859C296.484 156.327 293.332 157.502 291.337 159.334C287.857 162.464 286.019 166.9 283.942 170.999C280.675 177.686 277.58 184.456 274.429 191.192L274.387 191.274L274.305 191.299L265.301 193.813C260.918 194.486 256.256 195.949 251.823 195.538C250.296 195.398 249.008 194.404 247.538 194.117C246.816 193.993 246.045 193.944 245.347 194.125C244.641 194.322 244.107 194.881 243.582 195.406C241.308 197.444 238.592 198.832 236.063 200.45C234.865 201.346 233.461 202.069 232.69 203.408C233.437 202.061 234.84 201.305 236.022 200.393C238.526 198.742 241.226 197.288 243.443 195.258C243.968 194.733 244.518 194.141 245.298 193.911C246.061 193.714 246.841 193.763 247.596 193.887C249.106 194.166 250.337 195.143 251.881 195.283C256.321 195.653 260.86 194.182 265.244 193.492C265.178 193.509 274.232 190.929 274.215 190.937L274.092 191.044C277.186 184.275 280.388 177.555 283.671 170.868C285.78 166.752 287.668 162.3 291.198 159.161C293.332 157.338 296.156 156.122 298.864 155.711C301.983 154.816 306.104 153.928 309.625 153.312Z"
        fill="white" />
    <path opacity="0.3"
        d="M295.286 273.277C291.543 287.276 288.785 301.545 287.061 315.938C286.503 320.596 285.797 325.755 282.194 328.745C279.427 331.038 275.611 331.465 272.032 331.728C265.317 332.204 258.037 332.245 252.406 328.729C253.128 330.725 255.09 333.099 258.25 334.956C261.911 337.1 269.955 338.554 272.327 339.22C274.691 339.885 278.336 342.374 280.544 343.508C284.566 345.562 287.849 345.324 289.679 344.412C290.394 344.05 290.697 343.278 290.902 342.588C291.387 340.961 291.346 340.592 291.165 340.551L291.157 340.542C291.682 339.014 292.084 337.035 292.224 335.695C292.708 330.766 293.874 329.329 292.996 328.803C293.463 327.62 294.169 325.632 294.875 323.586C294.949 323.562 295.039 323.554 295.105 323.521C295.105 323.521 298.741 314.172 303.248 301.94C303.551 301.11 303.839 300.305 304.118 299.524C301.064 294.291 299.505 291.203 298.503 287.243C297.518 283.357 296.435 279.529 295.286 273.277ZM353.851 196.902C353.449 191.817 352.439 188.21 351.43 185.031C350.412 181.852 345.791 166.383 342.327 160.024C338.863 153.666 335.235 152.327 328.742 151.842C327.979 151.752 327.051 151.711 325.796 151.727C325.796 151.727 325.82 152.039 325.828 152.195L325.016 146.223C328.545 142.419 330.934 139.979 333.322 136.685C339.052 128.774 339.06 120.962 335.383 118.727C335.596 115.917 334.078 111.703 328.324 109.271C326.165 108.36 324.293 107.842 322.578 107.563C320.641 107.793 318.728 108.204 316.881 108.803C314.329 109.625 311.792 110.882 310.167 113.018C308.755 114.891 308.173 117.24 307.623 119.516C305.858 126.819 304.093 134.262 304.676 141.746C304.774 143.019 304.955 144.317 305.595 145.418C306.162 146.371 307.499 147.422 308.821 147.619C308.821 147.619 312.359 147.849 314.132 147.882C314.378 149.394 314.731 151.661 314.977 153.173C315.059 153.682 315.141 154.233 314.911 154.693C314.608 155.301 313.894 155.555 313.245 155.736C306.826 157.502 299.34 157.658 294.826 162.554C293.135 164.386 292.084 166.695 291.05 168.962C288.703 174.138 286.355 179.313 284.008 184.481C282.481 187.857 280.847 191.365 277.933 193.649C272.672 197.773 265.162 196.655 258.677 198.257C253.974 199.424 249.788 202.044 245.134 203.342C244.066 203.646 242.999 203.934 241.916 204.147C240.783 204.369 239.634 204.271 238.501 204.443C237.68 204.566 236.794 205.166 236.687 206.045C236.646 206.415 236.745 207.031 236.909 207.368C237.065 207.68 237.286 208.255 237.984 208.748C238.485 208.879 238.994 209.003 239.412 209.29C240.085 209.75 240.447 210.588 241.161 210.966C241.538 211.163 241.973 211.212 242.392 211.253C243.147 211.336 243.894 211.566 244.649 211.557C245.552 211.557 245.946 211.13 246.693 210.719C246.898 210.604 247.087 210.489 247.276 210.374C249.508 209.019 251.027 207.524 255.23 207.244C255.435 207.228 255.722 207.212 256.1 207.195C258.004 207.097 261.936 206.924 266.294 206.719C266.475 206.941 266.582 207.047 266.582 207.047C266.582 207.047 271.186 206.924 279.033 206.653C286.766 206.382 287.447 204.558 289.171 201.149C289.302 200.894 289.482 200.541 289.696 200.114V200.155C292.216 195.25 296.697 186.411 298.175 183.528C298.175 183.528 297.633 207.327 297.691 217.694C297.797 236.975 300.818 256.1 303.822 275.142C304.569 279.825 306.555 284.277 308.222 288.738C310.06 293.675 311.956 298.588 313.992 303.443C317.99 312.997 322.537 322.362 328.127 331.103C329.341 333.009 330.622 334.907 331.369 337.043C332.403 340.008 332.346 343.229 332.247 346.359C332.173 348.938 332.067 351.559 331.139 353.966C329.465 358.353 323.793 358.772 320.247 356.184C319.927 357.235 320.156 358.057 320.156 358.057C320.156 358.057 319.73 359.281 320.592 360.505C322.094 362.345 328.036 364.358 332.387 363.134C332.461 363.117 332.534 363.085 332.6 363.068C336.138 362.255 342.146 359.634 343.271 357.589C343.993 356.282 343.936 354.96 343.599 352.175C343.271 349.382 344.395 346.761 345.003 345.233C346.373 341.799 346.989 338.94 345.971 337.946C345.594 337.388 345.093 337.002 344.691 336.936C344.362 335.704 343.599 335.359 342.622 334.669C341.399 333.806 340.217 332.779 339.905 332.344C339.651 331.99 339.552 331.769 339.282 331.588C338.756 330.323 338.247 328.647 337.583 326.454C337.656 326.437 337.722 326.421 337.796 326.412C337.796 326.412 332.469 306.951 330.934 302.046C328.406 293.971 327.429 290.488 323.588 285.058C323.588 285.058 324.285 264.808 325.147 248.271L332.994 236.137C332.994 236.137 334.841 234.215 336.704 230.206C336.68 230.255 336.663 230.304 336.639 230.354C336.778 230.395 336.934 230.419 337.115 230.411C338.855 230.395 340.094 228.776 341.383 227.873C341.728 227.634 341.99 227.601 342.187 227.675C342.22 227.659 342.245 227.634 342.278 227.618C343.665 226.952 343.747 230.058 343.722 230.748C343.665 232.325 343.172 233.87 342.59 235.332C341.621 237.747 340.398 240.179 340.513 242.775C340.513 242.955 340.537 243.136 340.587 243.309C341.161 243.021 341.375 242.085 341.678 241.592C342.105 240.902 342.614 240.68 343.263 240.236C343.985 239.752 344.469 239.037 345.101 238.486C345.709 237.961 346.644 238.043 347.35 237.509C347.982 237.032 347.949 236.293 348.393 235.751C348.811 235.225 349.517 235.053 349.969 234.494C350.642 233.656 351.175 232.58 351.323 231.504C351.635 229.179 352.234 226.928 352.226 224.587C352.218 222.336 352.201 220.208 352.349 217.982C352.571 214.507 353.277 208.896 353.556 204.23C353.81 204.016 353.892 203.852 353.892 203.852C353.892 203.852 354.147 200.804 353.851 196.902ZM345.134 215.032C344.658 216.799 343.295 218.146 342.253 219.641C340.168 222.631 339.306 226.353 337.131 229.286C337.131 229.294 337.123 229.294 337.115 229.302C337.115 229.302 337.115 229.302 337.106 229.31C337.238 228.998 337.377 228.678 337.509 228.341C338.658 225.466 338.855 222.13 338.65 219.033C339.085 218.631 339.282 218.376 339.282 218.376C339.282 218.376 339.224 213.578 338.814 209.076C338.264 202.989 337.074 197.937 337.468 194.938C337.935 191.365 338.436 187.619 338.888 184.111C338.888 184.111 338.888 184.111 338.888 184.119V184.127C340.143 186.641 341.276 189.204 342.179 191.825C344.395 198.274 344.945 205.141 345.298 211.902C345.356 212.954 345.405 214.022 345.134 215.032Z"
        fill="black" />
    <path
        d="M71.7187 138.344L63.1 143.323V164.074L51.1981 170.95L65.1685 118.398L55.9015 123.754L40.9297 179.798V187.815L63.1083 175V187.01L71.7269 182.032V170.022L77.5547 166.653V155.727L71.7269 159.096V138.344H71.7187ZM103.082 96.4967C90.7124 103.644 80.6902 122.81 80.6902 139.314C80.6902 155.818 90.7124 163.4 103.082 156.253C115.452 149.106 125.474 129.94 125.474 113.436C125.474 96.932 115.452 89.3495 103.082 96.4967ZM103.082 144.752C95.4732 149.147 89.3088 144.481 89.3088 134.335C89.3088 124.181 95.4732 112.393 103.082 107.998C110.691 103.603 116.856 108.269 116.856 118.423C116.856 128.568 110.691 140.357 103.082 144.752ZM159.193 108.556V87.8051L150.575 92.7834V113.535L138.673 120.411L152.643 67.8589L143.376 73.2151L128.405 129.258V137.276L150.583 124.461V136.471L159.202 131.493V119.482L165.03 116.114V105.188L159.193 108.556Z"
        fill="#FC7C06" />
    <path
        d="M59.8811 85.8291C59.9257 85.8037 59.9639 85.8037 60.002 85.8291C60.0338 85.8546 60.0529 85.8992 60.0529 85.9565V86.5488C60.0529 86.6125 60.0338 86.6698 60.002 86.7335C59.9702 86.7972 59.932 86.8417 59.8811 86.8672L57.1449 88.453C57.1004 88.4784 57.0622 88.4784 57.0241 88.453C56.9922 88.4275 56.9731 88.3829 56.9731 88.3256V82.9442C56.9731 82.8805 56.9922 82.8232 57.0241 82.7595C57.0559 82.6958 57.094 82.6512 57.1449 82.6258L59.8366 81.0718C59.8811 81.0464 59.9193 81.0464 59.9575 81.0718C59.9893 81.0973 60.0084 81.1419 60.0084 81.1992V81.7915C60.0084 81.8552 59.9893 81.9125 59.9575 81.9762C59.9257 82.0399 59.8875 82.0844 59.8366 82.1099L57.8195 83.2753V84.6L59.6966 83.5174C59.7411 83.4919 59.7793 83.4919 59.8175 83.5174C59.8493 83.5428 59.8684 83.5874 59.8684 83.6447V84.237C59.8684 84.3007 59.8493 84.358 59.8175 84.4217C59.7857 84.4854 59.7475 84.53 59.6966 84.5554L57.8195 85.6381V87.0201L59.8811 85.8291Z"
        fill="#37474F" />
    <path
        d="M62.6044 79.4669C63.1262 79.1676 63.5208 79.0975 63.788 79.2631C64.0553 79.4287 64.1953 79.798 64.1953 80.3712C64.1953 80.7788 64.1253 81.1609 63.9853 81.5303C63.8453 81.8933 63.6417 82.2245 63.368 82.5238L64.2271 84.0841C64.2398 84.1095 64.2462 84.135 64.2462 84.1669C64.2462 84.2178 64.2334 84.2687 64.208 84.3197C64.1825 84.3706 64.1507 84.4089 64.1125 84.428L63.5844 84.7337C63.5017 84.7846 63.438 84.791 63.3998 84.7591C63.3617 84.7273 63.3299 84.6954 63.3171 84.6636L62.4963 83.1925L61.6691 83.6701V85.6125C61.6691 85.6762 61.65 85.7335 61.6182 85.7972C61.5863 85.8609 61.5418 85.9055 61.4973 85.9309L60.9946 86.2239C60.95 86.2494 60.9118 86.2494 60.8737 86.2239C60.8418 86.1984 60.8228 86.1538 60.8228 86.0965V80.7151C60.8228 80.6514 60.8418 80.5941 60.8737 80.5304C60.9055 80.4667 60.9437 80.4222 60.9946 80.3967L62.6044 79.4669ZM61.6691 82.632L62.5726 82.1098C62.8081 81.9697 62.999 81.8105 63.139 81.6131C63.279 81.422 63.3489 81.1673 63.3489 80.8552C63.3489 80.5432 63.279 80.3776 63.139 80.3521C62.999 80.3266 62.8081 80.3839 62.5726 80.5241L61.6691 81.0463V82.632Z"
        fill="#37474F" />
    <path
        d="M66.7851 77.0533C67.3069 76.754 67.7014 76.6839 67.9687 76.8495C68.2359 77.0151 68.3759 77.3845 68.3759 77.9576C68.3759 78.3652 68.3059 78.7473 68.1659 79.1167C68.0259 79.4797 67.8223 79.8109 67.5487 80.1102L68.4077 81.6705C68.4204 81.696 68.4268 81.7214 68.4268 81.7533C68.4268 81.8042 68.4141 81.8552 68.3886 81.9061C68.3632 81.9571 68.3314 81.9953 68.2932 82.0144L67.765 82.3201C67.6823 82.371 67.6187 82.3774 67.5805 82.3456C67.5423 82.3137 67.5105 82.2819 67.4978 82.25L66.6833 80.7789L65.8561 81.2565V83.1989C65.8561 83.2626 65.837 83.3199 65.8052 83.3836C65.7734 83.4473 65.7288 83.4919 65.6843 83.5174L65.1816 83.8103C65.137 83.8358 65.0989 83.8358 65.0607 83.8103C65.0289 83.7848 65.0098 83.7403 65.0098 83.6829V78.3015C65.0098 78.2378 65.0289 78.1805 65.0607 78.1168C65.0925 78.0532 65.1307 78.0086 65.1816 77.9831L66.7851 77.0533ZM65.8497 80.2185L66.7533 79.6962C66.9887 79.5561 67.1796 79.3969 67.3196 79.1995C67.4596 79.0084 67.5296 78.7537 67.5296 78.4416C67.5296 78.1296 67.4596 77.964 67.3196 77.9385C67.1796 77.9131 66.9887 77.9704 66.7533 78.1105L65.8497 78.6327V80.2185Z"
        fill="#37474F" />
    <path
        d="M69.0376 77.9258C69.0503 77.6074 69.0949 77.289 69.1712 76.9705C69.2476 76.6521 69.3621 76.3464 69.5085 76.0598C69.6612 75.7732 69.8457 75.4994 70.0685 75.251C70.2912 75.0027 70.5584 74.7861 70.8639 74.6078C71.1693 74.4295 71.4302 74.3403 71.6593 74.3276C71.882 74.3149 72.0729 74.3658 72.2192 74.4868C72.3719 74.6078 72.4865 74.7798 72.5628 75.0027C72.6392 75.2319 72.6901 75.4994 72.7028 75.8051C72.7092 75.907 72.7092 76.0216 72.7092 76.149C72.7092 76.2764 72.7092 76.4037 72.7092 76.5438C72.7092 76.6776 72.7092 76.8113 72.7092 76.9387C72.7092 77.0661 72.7028 77.1871 72.7028 77.2953C72.6901 77.6138 72.6456 77.9322 72.5692 78.2506C72.4928 78.569 72.3783 78.8747 72.2256 79.1613C72.0729 79.4479 71.8883 79.7217 71.6593 79.9637C71.4302 80.2121 71.1693 80.4223 70.8639 80.6006C70.5584 80.7789 70.2912 80.8744 70.0685 80.8872C69.8457 80.8999 69.6548 80.849 69.5085 80.7343C69.3621 80.6197 69.2476 80.4478 69.1712 80.2121C69.0949 79.9828 69.0503 79.7154 69.0376 79.4097C69.0313 79.3078 69.0312 79.1932 69.0312 79.0658C69.0312 78.9384 69.0312 78.811 69.0312 78.6709C69.0312 78.5372 69.0312 78.4035 69.0312 78.2761C69.0313 78.1487 69.0313 78.0341 69.0376 77.9258ZM71.8629 76.3337C71.8438 75.9452 71.7483 75.6905 71.5702 75.5758C71.392 75.4612 71.1566 75.4867 70.8702 75.6522C70.5775 75.8178 70.3484 76.0662 70.1703 76.3846C69.9921 76.7031 69.8966 77.0724 69.8776 77.48C69.8712 77.6965 69.8648 77.9322 69.8648 78.1933C69.8648 78.4544 69.8712 78.6837 69.8776 78.8875C69.8966 79.2759 69.9921 79.5307 70.1703 79.6453C70.3484 79.7599 70.5775 79.7345 70.8702 79.5625C71.1629 79.3969 71.3984 79.1486 71.5702 78.8301C71.7483 78.5117 71.8438 78.1487 71.8629 77.7411C71.8692 77.5246 71.8756 77.289 71.8756 77.0278C71.8756 76.7667 71.8692 76.5375 71.8629 76.3337Z"
        fill="#37474F" />
    <path
        d="M75.3054 72.1304C75.8272 71.8311 76.2217 71.7611 76.4889 71.9267C76.7562 72.0922 76.8962 72.4616 76.8962 73.0348C76.8962 73.4424 76.8262 73.8245 76.6862 74.1939C76.5462 74.5569 76.3426 74.888 76.069 75.1873L76.928 76.7476C76.9407 76.7731 76.9471 76.7986 76.9471 76.8304C76.9471 76.8814 76.9344 76.9323 76.9089 76.9833C76.8835 77.0342 76.8516 77.0724 76.8135 77.0915L76.2853 77.3972C76.2026 77.4482 76.139 77.4545 76.1008 77.4227C76.0626 77.3909 76.0308 77.359 76.0181 77.3272L75.1972 75.856L74.37 76.3337V78.2761C74.37 78.3398 74.3509 78.3971 74.3191 78.4608C74.2873 78.5245 74.2427 78.569 74.1982 78.5945L73.6955 78.8875C73.6509 78.9129 73.6128 78.9129 73.5746 78.8875C73.5428 78.862 73.5237 78.8174 73.5237 78.7601V73.3787C73.5237 73.315 73.5428 73.2577 73.5746 73.194C73.6064 73.1303 73.6446 73.0857 73.6955 73.0603L75.3054 72.1304ZM74.37 75.2892L75.2736 74.767C75.509 74.6269 75.6999 74.4677 75.8399 74.2703C75.9799 74.0792 76.0499 73.8245 76.0499 73.5124C76.0499 73.2004 75.9799 73.0348 75.8399 73.0093C75.6999 72.9838 75.509 73.0412 75.2736 73.1813L74.37 73.7035V75.2892Z"
        fill="#37474F" />
    <path
        d="M82.8648 73.5886C82.7948 73.6268 82.7376 73.6332 82.7058 73.6077C82.6676 73.5759 82.6421 73.5568 82.623 73.5377L80.8732 71.0858V74.5121C80.8732 74.5758 80.8541 74.6331 80.8223 74.6968C80.7904 74.7604 80.7459 74.805 80.7014 74.8305L80.1987 75.1234C80.1541 75.1489 80.1159 75.1489 80.0778 75.1234C80.0459 75.098 80.0269 75.0534 80.0269 74.9961V69.6147C80.0269 69.551 80.0459 69.4937 80.0778 69.43C80.1096 69.3663 80.1478 69.3217 80.1987 69.2962L80.6377 69.0415C80.7077 69.0033 80.765 68.9969 80.7968 69.0224C80.835 69.0479 80.8604 69.0733 80.8795 69.0924L82.6294 71.5443V68.1117C82.6294 68.048 82.6485 67.9907 82.6803 67.927C82.7121 67.8633 82.7503 67.8187 82.8012 67.7933L83.3039 67.5003C83.3485 67.4748 83.3866 67.4748 83.4248 67.5003C83.4566 67.5258 83.4757 67.5704 83.4757 67.6277V73.0091C83.4757 73.0728 83.4566 73.1301 83.4248 73.1938C83.393 73.2575 83.3548 73.302 83.3039 73.3275L82.8648 73.5886Z"
        fill="#37474F" />
    <path
        d="M77.7806 76.0215C77.787 75.9451 77.8124 75.8687 77.8506 75.7859C77.8888 75.7031 77.9461 75.6394 78.0224 75.5948L78.5124 75.3146C78.5442 75.2955 78.576 75.2955 78.6015 75.3146C78.6269 75.3337 78.6396 75.3656 78.6396 75.4102C78.6396 75.4293 78.6396 75.4484 78.6333 75.4675L78.2642 76.9259C78.2515 76.9832 78.226 77.0532 78.1879 77.1297C78.1497 77.2061 78.0988 77.2634 78.0224 77.308L77.7679 77.4545C77.7361 77.4736 77.7043 77.4736 77.6788 77.4545C77.6533 77.4353 77.6406 77.4035 77.6406 77.3589V77.3462L77.7806 76.0215Z"
        fill="#37474F" />
    <path
        d="M84.2967 69.1053C84.3094 68.7868 84.3539 68.4684 84.4303 68.15C84.5066 67.8315 84.6212 67.5259 84.7739 67.2393C84.9203 66.9527 85.1112 66.6788 85.3339 66.4305C85.5566 66.1821 85.8238 65.9656 86.1293 65.7872C86.4347 65.6089 86.6956 65.5198 86.9247 65.507C87.1474 65.4943 87.3383 65.5452 87.4846 65.6662C87.6373 65.7872 87.7519 65.9592 87.8282 66.1821C87.9046 66.4114 87.9555 66.6788 87.9619 66.9845C87.9682 67.0864 87.9682 67.2011 87.9682 67.3284C87.9682 67.4558 87.9682 67.5832 87.9682 67.7233C87.9682 67.857 87.9682 67.9908 87.9682 68.1181C87.9682 68.2455 87.9619 68.3665 87.9619 68.4748C87.9491 68.7932 87.9046 69.1116 87.8282 69.43C87.7519 69.7485 87.6373 70.0542 87.4846 70.3407C87.3319 70.6273 87.1474 70.9012 86.9183 71.1432C86.6892 71.3916 86.4283 71.6017 86.1229 71.78C85.8175 71.9584 85.5502 72.0539 85.3275 72.0666C85.1048 72.0794 84.9139 72.0284 84.7675 71.9138C84.6148 71.7991 84.5066 71.6272 84.4239 71.3916C84.3476 71.1623 84.303 70.8948 84.2903 70.5891C84.2839 70.4872 84.2839 70.3726 84.2839 70.2452C84.2839 70.1179 84.2839 69.9905 84.2839 69.8504C84.2839 69.7166 84.2839 69.5829 84.2839 69.4555C84.2903 69.3345 84.2903 69.2135 84.2967 69.1053ZM87.1219 67.5131C87.1028 67.1246 87.0074 66.8699 86.8292 66.7553C86.651 66.6406 86.4156 66.6661 86.1293 66.8317C85.8366 66.9973 85.6075 67.2456 85.4293 67.5641C85.2511 67.8825 85.1557 68.2519 85.1366 68.6595C85.1302 68.876 85.1239 69.1116 85.1239 69.3727C85.1239 69.6338 85.1302 69.8631 85.1366 70.0669C85.1557 70.4554 85.2511 70.7101 85.4293 70.8248C85.6075 70.9394 85.8429 70.9139 86.1293 70.742C86.422 70.5764 86.6574 70.328 86.8292 70.0096C87.0074 69.6912 87.1028 69.3282 87.1219 68.9206C87.1283 68.704 87.1346 68.4684 87.1346 68.2073C87.1346 67.9525 87.1283 67.7233 87.1219 67.5131Z"
        fill="#37474F" />
    <path
        d="M91.6079 62.7112C91.6525 62.6858 91.6907 62.6858 91.7288 62.7112C91.7607 62.7367 91.7798 62.7813 91.7798 62.8386V63.4309C91.7798 63.4946 91.7607 63.5519 91.7288 63.6156C91.697 63.6793 91.6589 63.7238 91.6079 63.7493L90.488 64.3989V68.9588C90.488 69.0225 90.4689 69.0798 90.4371 69.1435C90.4053 69.2072 90.3671 69.2517 90.3162 69.2772L89.8135 69.5702C89.769 69.5956 89.7308 69.5956 89.6926 69.5702C89.6608 69.5447 89.6417 69.5001 89.6417 69.4428V64.8829L88.5154 65.5325C88.4709 65.558 88.4327 65.558 88.3945 65.5325C88.3627 65.507 88.3436 65.4624 88.3436 65.4051V64.8129C88.3436 64.7492 88.3627 64.6919 88.3945 64.6282C88.4264 64.5645 88.4645 64.5199 88.5154 64.4944L91.6079 62.7112Z"
        fill="#37474F" />
    <path
        d="M96.5013 59.8839C96.5459 59.8584 96.584 59.8584 96.6222 59.8839C96.654 59.9093 96.6731 59.9539 96.6731 60.0112V60.6035C96.6731 60.6672 96.654 60.7245 96.6222 60.7882C96.5904 60.8519 96.5522 60.8965 96.5013 60.9219L94.5096 62.0746V63.6922L96.3741 62.616C96.4186 62.5905 96.4568 62.5905 96.495 62.616C96.5268 62.6414 96.5459 62.686 96.5459 62.7433V63.3356C96.5459 63.3993 96.5268 63.4566 96.495 63.5203C96.4631 63.584 96.425 63.6286 96.3741 63.654L94.5096 64.7303V66.6345C94.5096 66.6982 94.4905 66.7555 94.4587 66.8192C94.4269 66.8829 94.3824 66.9275 94.3378 66.9529L93.8351 67.2459C93.7906 67.2714 93.7524 67.2714 93.7142 67.2459C93.6824 67.2204 93.6633 67.1758 93.6633 67.1185V61.7371C93.6633 61.6734 93.6824 61.6161 93.7142 61.5524C93.7461 61.4887 93.7842 61.4441 93.8351 61.4187L96.5013 59.8839Z"
        fill="#37474F" />
    <path
        d="M97.1885 61.6541C97.2012 61.3357 97.2458 61.0172 97.3221 60.6988C97.3985 60.3804 97.513 60.0747 97.6594 59.7881C97.8121 59.5015 97.9966 59.2277 98.2193 58.9793C98.442 58.7309 98.7093 58.5144 99.0147 58.3361C99.3202 58.1578 99.5811 58.0686 99.8101 58.0559C100.033 58.0431 100.224 58.0941 100.37 58.2151C100.516 58.3361 100.637 58.508 100.714 58.7309C100.79 58.9602 100.841 59.2277 100.854 59.5334C100.86 59.6353 100.86 59.7499 100.86 59.8773C100.86 60.0046 100.86 60.132 100.86 60.2721C100.86 60.4058 100.86 60.5396 100.86 60.667C100.86 60.7943 100.854 60.9153 100.854 61.0236C100.841 61.342 100.796 61.6604 100.72 61.9789C100.644 62.2973 100.529 62.603 100.383 62.8896C100.23 63.1762 100.046 63.45 99.8165 63.692C99.5874 63.9404 99.3265 64.1505 99.0211 64.3289C98.7157 64.5072 98.4484 64.6027 98.2257 64.6154C98.003 64.6282 97.8121 64.5772 97.6657 64.4626C97.5194 64.348 97.4048 64.176 97.3285 63.9404C97.2521 63.7111 97.2076 63.4436 97.1949 63.1379C97.1885 63.0361 97.1885 62.9214 97.1885 62.794C97.1885 62.6667 97.1821 62.5393 97.1821 62.3992C97.1821 62.2655 97.1821 62.1317 97.1885 62.0044C97.1821 61.8833 97.1885 61.7623 97.1885 61.6541ZM100.014 60.0619C99.9947 59.6735 99.8992 59.4187 99.721 59.3041C99.5429 59.1895 99.3074 59.2149 99.0211 59.3805C98.7284 59.5461 98.4929 59.7945 98.3211 60.1129C98.143 60.4313 98.0475 60.8007 98.0284 61.2083C98.0221 61.4248 98.0157 61.6605 98.0157 61.9216C98.0157 62.1827 98.0221 62.4119 98.0284 62.6157C98.0475 63.0042 98.143 63.259 98.3211 63.3736C98.4993 63.4882 98.7348 63.4627 99.0211 63.2908C99.3138 63.1252 99.5492 62.8768 99.721 62.5584C99.8992 62.24 99.9947 61.877 100.014 61.4694C100.02 61.2529 100.026 61.0172 100.026 60.7561C100.026 60.5014 100.026 60.2721 100.014 60.0619Z"
        fill="#37474F" />
    <path
        d="M105.06 54.9354C105.104 54.9099 105.142 54.9099 105.181 54.9354C105.212 54.9608 105.232 55.0054 105.232 55.0627V58.4763C105.232 58.8202 105.193 59.1513 105.117 59.4761C105.041 59.7946 104.932 60.1002 104.78 60.3868C104.627 60.6734 104.442 60.9345 104.22 61.1702C103.997 61.4058 103.736 61.6096 103.443 61.7815C103.144 61.9535 102.883 62.049 102.661 62.0745C102.438 62.0936 102.254 62.049 102.101 61.9344C101.948 61.8198 101.84 61.6478 101.77 61.4122C101.7 61.1765 101.662 60.8899 101.662 60.5397V57.1261C101.662 57.0625 101.681 57.0051 101.713 56.9415C101.744 56.8778 101.783 56.8332 101.834 56.8077L102.336 56.5148C102.381 56.4893 102.419 56.4893 102.457 56.5148C102.489 56.5402 102.508 56.5848 102.508 56.6421V60.0111C102.508 60.2404 102.534 60.4187 102.578 60.5524C102.623 60.6862 102.686 60.7817 102.769 60.839C102.852 60.8963 102.953 60.9091 103.068 60.8899C103.183 60.8708 103.31 60.8199 103.45 60.7435C103.583 60.667 103.717 60.5651 103.832 60.4505C103.952 60.3359 104.048 60.2021 104.137 60.0493C104.22 59.8965 104.283 59.7309 104.334 59.5398C104.385 59.3488 104.404 59.145 104.404 58.9157V55.5467C104.404 55.4831 104.423 55.4257 104.455 55.3621C104.487 55.2984 104.525 55.2538 104.576 55.2283L105.06 54.9354Z"
        fill="#37474F" />
    <path
        d="M108.999 58.489C108.929 58.5272 108.871 58.5336 108.84 58.5081C108.801 58.4763 108.776 58.4572 108.757 58.4381L107.007 55.9862V59.4188C107.007 59.4825 106.988 59.5398 106.956 59.6035C106.924 59.6672 106.88 59.7118 106.835 59.7372L106.332 60.0302C106.288 60.0557 106.25 60.0557 106.212 60.0302C106.18 60.0047 106.161 59.9601 106.161 59.9028V54.5214C106.161 54.4577 106.18 54.4004 106.212 54.3367C106.243 54.273 106.282 54.2284 106.332 54.203L106.772 53.9482C106.842 53.91 106.899 53.9037 106.931 53.9291C106.969 53.9546 106.994 53.9801 107.013 53.9992L108.763 56.4511V53.0184C108.763 52.9547 108.782 52.8974 108.814 52.8337C108.846 52.7701 108.884 52.7255 108.935 52.7L109.438 52.407C109.482 52.3816 109.52 52.3816 109.559 52.407C109.59 52.4325 109.61 52.4771 109.61 52.5344V57.9158C109.61 57.9795 109.59 58.0368 109.559 58.1005C109.527 58.1642 109.489 58.2088 109.438 58.2343L108.999 58.489Z"
        fill="#37474F" />
    <path
        d="M112.288 50.7577C112.594 50.5794 112.861 50.4775 113.09 50.4584C113.319 50.4329 113.504 50.4838 113.656 50.5921C113.809 50.7067 113.924 50.8787 114.006 51.1143C114.089 51.35 114.134 51.6365 114.153 51.9804C114.172 52.3817 114.172 52.7892 114.153 53.2096C114.134 53.5726 114.089 53.9165 114.006 54.2413C113.924 54.5724 113.809 54.8781 113.663 55.1647C113.51 55.4513 113.326 55.7124 113.103 55.948C112.88 56.1837 112.619 56.3875 112.32 56.5658L110.748 57.4765C110.704 57.502 110.666 57.502 110.628 57.4765C110.596 57.451 110.577 57.4064 110.577 57.3491V51.9677C110.577 51.904 110.596 51.8467 110.628 51.783C110.659 51.7193 110.698 51.6748 110.748 51.6493L112.288 50.7577ZM113.313 52.4644C113.306 52.2925 113.281 52.1397 113.236 52.0123C113.192 51.8849 113.128 51.7894 113.046 51.7257C112.963 51.662 112.855 51.6365 112.721 51.6429C112.594 51.6556 112.441 51.713 112.257 51.8149L111.423 52.2989V56.0436L112.288 55.5405C112.46 55.4449 112.607 55.3239 112.734 55.1902C112.861 55.0564 112.963 54.91 113.046 54.7444C113.128 54.5852 113.192 54.4132 113.236 54.2349C113.281 54.0566 113.306 53.8719 113.313 53.6936C113.326 53.2796 113.326 52.8657 113.313 52.4644Z"
        fill="#37474F" />
</svg>