<svg xmlns="http://www.w3.org/2000/svg" width="19" height="16" viewBox="0 0 19 16" fill="none" data-src="/svg/city.svg">
    <g opacity="0.5" clipPath="url(#clip0_87_1879-1)">
        <path d="M13.9501 0.0272827H5.05493V15.9727H13.9501V0.0272827Z" stroke="#908897" strokeMiterlimit="10">
        </path>
        <path d="M18.9737 5.44971H13.9451V15.9782H18.9737V5.44971Z" stroke="#908897" strokeMiterlimit="10"></path>
        <path d="M8.55722 1.4129H5.99536V2.53667H8.55722V1.4129Z" fill="#908897"></path>
        <path d="M12.7669 1.4129H10.2051V2.53667H12.7669V1.4129Z" fill="#908897"></path>
        <path d="M8.55722 3.7204H5.99536V4.84416H8.55722V3.7204Z" fill="#908897"></path>
        <path d="M12.7669 3.7204H10.2051V4.84416H12.7669V3.7204Z" fill="#908897"></path>
        <path d="M8.55722 6.02252H5.99536V7.14629H8.55722V6.02252Z" fill="#908897"></path>
        <path d="M12.7669 6.02252H10.2051V7.14629H12.7669V6.02252Z" fill="#908897"></path>
        <path d="M8.55722 8.33002H5.99536V9.45378H8.55722V8.33002Z" fill="#908897"></path>
        <path d="M12.7669 8.33002H10.2051V9.45378H12.7669V8.33002Z" fill="#908897"></path>
        <path d="M17.7428 7.15173H15.1809V8.2755H17.7428V7.15173Z" fill="#908897"></path>
        <path d="M17.7428 9.4538H15.1809V10.5776H17.7428V9.4538Z" fill="#908897"></path>
        <path d="M17.7428 11.7559H15.1809V12.8796H17.7428V11.7559Z" fill="#908897"></path>
        <path d="M17.7428 14.0634H15.1809V15.1872H17.7428V14.0634Z" fill="#908897"></path>
        <path d="M5.055 5.44971H0.0263672V15.9782H5.055V5.44971Z" stroke="#908897" strokeMiterlimit="10"></path>
        <path d="M3.81894 7.15173H1.25708V8.2755H3.81894V7.15173Z" fill="#908897"></path>
        <path d="M3.81894 9.4538H1.25708V10.5776H3.81894V9.4538Z" fill="#908897"></path>
        <path d="M3.81894 11.7559H1.25708V12.8796H3.81894V11.7559Z" fill="#908897"></path>
        <path d="M3.81894 14.0634H1.25708V15.1872H3.81894V14.0634Z" fill="#908897"></path>
        <path d="M10.7809 11.5486H8.21899V15.9727H10.7809V11.5486Z" fill="#908897"></path>
    </g>
    <defs>
        <clipPath id="clip0_87_1879-1">
            <rect width="19" height="16" fill="white"></rect>
        </clipPath>
    </defs>
</svg>