<svg xmlns="http://www.w3.org/2000/svg" width="195" height="162" viewBox="0 0 195 162" fill="none" class="injected-svg"
    data-src="/icons/stat_1.svg" xmlns:xlink="http://www.w3.org/1999/xlink">
    <path
        d="M102.276 162C140.489 162 171.467 158.665 171.467 154.552C171.467 150.438 140.489 147.103 102.276 147.103C64.0621 147.103 33.084 150.438 33.084 154.552C33.084 158.665 64.0621 162 102.276 162Z"
        fill="#EBEBEB"></path>
    <path
        d="M27.5742 129.593L46.2489 129.522L64.9235 129.487L102.273 129.416L139.657 129.487L158.332 129.522L177.007 129.593L158.332 129.698L139.657 129.734L102.273 129.769L64.9235 129.734L46.2489 129.698L27.5742 129.593Z"
        fill="#263238"></path>
    <path d="M122 129.628H194.969V56.5532L122 129.628ZM181.554 116.284H154.972L181.589 89.6663L181.554 116.284Z"
        fill="#DBDBDB"></path>
    <path
        d="M192.71 58.8125L192.392 59.1303L122 129.628H194.969V56.5532L192.71 58.8125ZM181.554 116.284H154.972L181.589 89.6663L181.554 116.284Z"
        fill="#EBEBEB"></path>
    <path d="M194.969 59.6245H192.463V59.9775H194.969V59.6245Z" fill="#C7C7C7"></path>
    <path d="M194.969 61.2837H193.486V61.6367H194.969V61.2837Z" fill="#C7C7C7"></path>
    <path d="M194.969 62.8726H193.486V63.2256H194.969V62.8726Z" fill="#C7C7C7"></path>
    <path d="M194.969 64.4956H193.486V64.8486H194.969V64.4956Z" fill="#C7C7C7"></path>
    <path d="M194.969 66.1201H193.486V66.4731H194.969V66.1201Z" fill="#C7C7C7"></path>
    <path d="M194.969 67.7441H193.486V68.0972H194.969V67.7441Z" fill="#C7C7C7"></path>
    <path d="M194.969 69.3677H193.486V69.7207H194.969V69.3677Z" fill="#C7C7C7"></path>
    <path d="M194.969 70.9922H192.463V71.3452H194.969V70.9922Z" fill="#C7C7C7"></path>
    <path d="M194.969 72.6152H193.486V72.9683H194.969V72.6152Z" fill="#C7C7C7"></path>
    <path d="M194.969 74.2397H193.486V74.5928H194.969V74.2397Z" fill="#C7C7C7"></path>
    <path d="M194.969 75.8633H193.486V76.2163H194.969V75.8633Z" fill="#C7C7C7"></path>
    <path d="M194.969 77.4873H193.486V77.8403H194.969V77.4873Z" fill="#C7C7C7"></path>
    <path d="M194.969 79.1108H193.486V79.4639H194.969V79.1108Z" fill="#C7C7C7"></path>
    <path d="M194.969 80.7349H193.486V81.0879H194.969V80.7349Z" fill="#C7C7C7"></path>
    <path d="M194.969 82.3589H192.463V82.7119H194.969V82.3589Z" fill="#C7C7C7"></path>
    <path d="M194.969 83.9829H193.486V84.3359H194.969V83.9829Z" fill="#C7C7C7"></path>
    <path d="M194.969 85.6064H193.486V85.9595H194.969V85.6064Z" fill="#C7C7C7"></path>
    <path d="M194.969 87.2305H193.486V87.5835H194.969V87.2305Z" fill="#C7C7C7"></path>
    <path d="M194.969 88.854H193.486V89.207H194.969V88.854Z" fill="#C7C7C7"></path>
    <path d="M194.969 90.4785H193.486V90.8315H194.969V90.4785Z" fill="#C7C7C7"></path>
    <path d="M194.969 92.1021H193.486V92.4551H194.969V92.1021Z" fill="#C7C7C7"></path>
    <path d="M194.969 93.7261H192.463V94.0791H194.969V93.7261Z" fill="#C7C7C7"></path>
    <path d="M194.969 95.3496H193.486V95.7026H194.969V95.3496Z" fill="#C7C7C7"></path>
    <path d="M194.969 96.9736H193.486V97.3267H194.969V96.9736Z" fill="#C7C7C7"></path>
    <path d="M194.969 98.5977H193.486V98.9507H194.969V98.5977Z" fill="#C7C7C7"></path>
    <path d="M194.969 100.222H193.486V100.575H194.969V100.222Z" fill="#C7C7C7"></path>
    <path d="M194.969 101.845H193.486V102.198H194.969V101.845Z" fill="#C7C7C7"></path>
    <path d="M194.969 103.469H193.486V103.822H194.969V103.469Z" fill="#C7C7C7"></path>
    <path d="M194.969 105.093H192.463V105.446H194.969V105.093Z" fill="#C7C7C7"></path>
    <path d="M194.969 106.717H193.486V107.07H194.969V106.717Z" fill="#C7C7C7"></path>
    <path d="M194.969 108.341H193.486V108.694H194.969V108.341Z" fill="#C7C7C7"></path>
    <path d="M194.969 109.965H193.486V110.318H194.969V109.965Z" fill="#C7C7C7"></path>
    <path d="M194.969 111.588H193.486V111.941H194.969V111.588Z" fill="#C7C7C7"></path>
    <path d="M194.969 113.212H193.486V113.565H194.969V113.212Z" fill="#C7C7C7"></path>
    <path d="M194.969 114.837H193.486V115.19H194.969V114.837Z" fill="#C7C7C7"></path>
    <path d="M194.969 116.46H192.463V116.813H194.969V116.46Z" fill="#C7C7C7"></path>
    <path d="M194.969 118.084H193.486V118.437H194.969V118.084Z" fill="#C7C7C7"></path>
    <path d="M194.969 119.708H193.486V120.061H194.969V119.708Z" fill="#C7C7C7"></path>
    <path d="M194.969 121.332H193.486V121.685H194.969V121.332Z" fill="#C7C7C7"></path>
    <path d="M194.969 122.956H193.486V123.309H194.969V122.956Z" fill="#C7C7C7"></path>
    <path d="M194.969 124.58H193.486V124.933H194.969V124.58Z" fill="#C7C7C7"></path>
    <path d="M194.969 126.168H193.486V126.521H194.969V126.168Z" fill="#C7C7C7"></path>
    <path
        d="M170.155 56.579L172.097 53.4371L171.144 52.837C170.861 52.6605 170.72 52.3428 170.72 52.0251C170.72 51.8485 170.756 51.672 170.72 51.4602C170.72 51.1425 170.897 50.8248 171.179 50.6483L172.168 50.1188L170.438 46.871L169.449 47.4005C169.167 47.5417 168.814 47.5417 168.531 47.3299C168.39 47.224 168.214 47.1181 168.073 47.0475C167.79 46.871 167.614 46.5886 167.614 46.2356L167.649 45.1059L163.978 45L163.942 46.1297C163.942 46.4474 163.73 46.7651 163.413 46.9063C163.342 46.9416 163.236 46.9769 163.166 47.0122C163.095 47.0475 163.024 47.0828 162.919 47.1534C162.636 47.3299 162.283 47.3299 162.001 47.1534L161.048 46.5533L159.106 49.6951L160.059 50.2953C160.341 50.4718 160.483 50.7895 160.483 51.1072C160.483 51.2837 160.447 51.4602 160.447 51.672C160.447 51.9898 160.271 52.3075 159.988 52.484L159 53.0135L160.73 56.2613L161.718 55.7317C162.001 55.5905 162.354 55.5905 162.636 55.8024C162.777 55.9083 162.954 56.0142 163.095 56.0848C163.377 56.2613 163.554 56.5437 163.554 56.8967L163.519 58.0264L167.19 58.1323L167.225 57.0026C167.225 56.6849 167.437 56.3672 167.755 56.226C167.825 56.1907 167.931 56.1554 168.002 56.1201C168.073 56.0848 168.143 56.0495 168.249 55.9789C168.531 55.8024 168.885 55.8024 169.167 55.9789L170.155 56.579ZM167.049 54.2491C165.566 55.0257 163.766 54.4962 162.954 53.0135C162.177 51.5308 162.707 49.6951 164.189 48.9185C165.672 48.1419 167.508 48.6714 168.284 50.1541C169.061 51.6367 168.531 53.4724 167.049 54.2491Z"
        fill="#DBDBDB"></path>
    <path
        d="M34.1432 13.3537L32.837 11.1297L32.1663 11.518C31.9545 11.6239 31.7073 11.6239 31.5308 11.4827C31.4249 11.4121 31.319 11.3415 31.2131 11.3062C31.0013 11.2003 30.8601 10.9885 30.8601 10.7766V10H28.2831V10.7766C28.2831 11.0238 28.1419 11.2003 27.9301 11.3062C27.8241 11.3768 27.7182 11.4121 27.6123 11.4827C27.4005 11.6239 27.1534 11.6239 26.9769 11.518L26.3062 11.1297L25 13.3537L25.6707 13.742C25.8825 13.8479 25.9885 14.095 25.9885 14.3068C25.9885 14.3774 25.9885 14.448 25.9885 14.4833C25.9885 14.5539 25.9885 14.6245 25.9885 14.6598C25.9885 14.907 25.8825 15.1188 25.706 15.2247L25 15.613L26.3062 17.837L26.9769 17.4487C27.1887 17.3428 27.4358 17.3428 27.6123 17.484C27.7182 17.5546 27.8241 17.6252 27.9301 17.6605C28.1419 17.7664 28.2831 17.9782 28.2831 18.19V18.9667H30.8601V18.19C30.8601 17.9429 31.0013 17.7664 31.2131 17.6605C31.319 17.5899 31.4249 17.5546 31.5308 17.484C31.7426 17.3428 31.9898 17.3428 32.1663 17.4487L32.837 17.837L34.1432 15.613L33.4724 15.2247C33.2606 15.1188 33.1547 14.8717 33.19 14.6598C33.19 14.5892 33.19 14.5186 33.19 14.4833C33.19 14.4127 33.19 14.3421 33.19 14.3068C33.19 14.0597 33.2959 13.8479 33.5077 13.742L34.1432 13.3537ZM31.672 14.5186C31.672 15.6836 30.7189 16.6367 29.5539 16.6367C28.389 16.6367 27.4358 15.6836 27.4358 14.5186C27.4358 13.3537 28.389 12.4005 29.5539 12.4005C30.7189 12.4005 31.672 13.3537 31.672 14.5186Z"
        fill="#DBDBDB"></path>
    <path
        d="M49.4614 67.3911C43.919 67.3911 39.4004 71.9097 39.4004 77.4521C39.4004 82.9945 43.919 87.5131 49.4614 87.5131C55.0038 87.5131 59.5224 82.9945 59.5224 77.4521C59.5224 71.8744 55.0038 67.3911 49.4614 67.3911ZM49.4614 82.1473C46.8491 82.1473 44.7663 80.0292 44.7663 77.4521C44.7663 74.8398 46.8844 72.757 49.4614 72.757C52.0737 72.757 54.1565 74.8751 54.1565 77.4521C54.1565 80.0292 52.0737 82.1473 49.4614 82.1473Z"
        fill="#EBEBEB"></path>
    <path d="M51.4027 67.8146H47.5195L47.7313 65.061H51.1909L51.4027 67.8146Z" fill="#EBEBEB"></path>
    <path d="M44.0264 69.1207L41.3082 71.839L39.5078 69.7561L41.9436 67.3203L44.0264 69.1207Z" fill="#EBEBEB"></path>
    <path d="M39.7535 75.2275V79.1107L37 78.8989V75.4394L39.7535 75.2275Z" fill="#EBEBEB"></path>
    <path d="M41.0602 82.606L43.7784 85.3242L41.6956 87.1246L39.2598 84.6888L41.0602 82.606Z" fill="#EBEBEB"></path>
    <path d="M47.166 86.8774H51.0492L50.8374 89.631H47.4131L47.166 86.8774Z" fill="#EBEBEB"></path>
    <path d="M54.5449 85.5713L57.2985 82.853L59.0636 84.9358L56.6277 87.3717L54.5449 85.5713Z" fill="#EBEBEB"></path>
    <path d="M58.8164 79.4643V75.5811L61.5699 75.7929V79.2525L58.8164 79.4643Z" fill="#EBEBEB"></path>
    <path d="M57.5093 72.086L54.791 69.3678L56.8738 67.5674L59.3096 70.0032L57.5093 72.086Z" fill="#EBEBEB"></path>
    <path
        d="M141.426 9.33008C135.884 9.33008 131.365 13.8487 131.365 19.3911C131.365 24.9335 135.884 29.4521 141.426 29.4521C146.969 29.4521 151.487 24.9335 151.487 19.3911C151.487 13.8134 147.004 9.33008 141.426 9.33008ZM141.426 24.0862C138.814 24.0862 136.731 21.9681 136.731 19.3911C136.731 16.7788 138.849 14.696 141.426 14.696C144.039 14.696 146.121 16.8141 146.121 19.3911C146.157 21.9681 144.039 24.0862 141.426 24.0862Z"
        fill="#EBEBEB"></path>
    <path d="M143.367 9.75354H139.52L139.731 7H143.156L143.367 9.75354Z" fill="#EBEBEB"></path>
    <path d="M136.026 11.0597L133.273 13.7779L131.508 11.6951L133.944 9.25928L136.026 11.0597Z" fill="#EBEBEB"></path>
    <path d="M131.718 17.1665V21.0497L129 20.8379V17.3783L131.718 17.1665Z" fill="#EBEBEB"></path>
    <path d="M133.025 24.5449L135.778 27.2632L133.696 29.0636L131.26 26.6277L133.025 24.5449Z" fill="#EBEBEB"></path>
    <path d="M139.166 28.8164H143.014L142.802 31.5699H139.378L139.166 28.8164Z" fill="#EBEBEB"></path>
    <path d="M146.51 27.5102L149.263 24.792L151.028 26.8748L148.593 29.3106L146.51 27.5102Z" fill="#EBEBEB"></path>
    <path d="M150.816 21.4032V17.52L153.535 17.7318V21.1914L150.816 21.4032Z" fill="#EBEBEB"></path>
    <path d="M149.511 14.025L146.758 11.3067L148.841 9.50635L151.276 11.9422L149.511 14.025Z" fill="#EBEBEB"></path>
    <path d="M22.7773 32.4424V0" stroke="#C7C7C7" stroke-miterlimit="10"></path>
    <path d="M24.4356 30.5718H21.1172V34.1726H24.4356V30.5718Z" fill="#DBDBDB"></path>
    <path
        d="M29.5559 45.6101H16C16.2824 40.456 18.7182 32.1954 22.7779 32.1954C26.8377 32.1601 29.3088 40.4207 29.5559 45.6101Z"
        fill="#DBDBDB"></path>
    <path d="M7.33398 23.5816V0" stroke="#C7C7C7" stroke-miterlimit="10"></path>
    <path d="M8.9922 21.7104H5.67383V25.3112H8.9922V21.7104Z" fill="#DBDBDB"></path>
    <path
        d="M14.1125 36.7488H0.556641C0.839055 31.5947 3.27488 23.3341 7.33459 23.3341C11.3943 23.2988 13.8301 31.5594 14.1125 36.7488Z"
        fill="#DBDBDB"></path>
    <path
        d="M115.724 119.637L115.759 124.156L115.724 124.121L120.101 124.085H120.136V124.121L120.172 129.663V129.734H120.101L115.724 129.769L115.794 129.698V134.217L115.688 134.111H117.912H118.018V134.217V139.759V139.865H117.912H114.7L114.806 139.795C114.276 140.924 113.535 141.983 112.652 142.866C111.77 143.748 110.711 144.49 109.581 145.019C108.451 145.549 107.216 145.866 105.98 146.008C105.345 146.078 104.709 146.078 104.109 146.078H102.238H100.367C99.7672 146.078 99.1317 146.078 98.4963 146.043C97.2607 145.937 96.0252 145.584 94.8602 145.055C93.7306 144.525 92.6715 143.784 91.789 142.901C90.9064 142.019 90.1651 140.96 89.6356 139.83L89.7768 139.936H86.5643H86.3878V139.759V134.217V134.04H86.5643H88.7883L88.6118 134.217V129.698L88.7883 129.875H84.4109H84.2344V129.698V124.156V124.015H84.3756H88.753L88.6118 124.156V119.637L88.753 119.778H84.3756H84.2344V119.637V114.095V113.954H84.3756L102.203 113.989L120.03 114.06H120.066V114.095L120.03 119.637V119.673H119.995L115.724 119.637ZM115.724 119.637L120.101 119.602L120.066 119.637L120.03 114.095L120.066 114.13L102.238 114.201L84.4109 114.236L84.5521 114.095V119.637L84.4109 119.496H88.7883H88.9295V119.637V124.156V124.297H88.7883H84.4109L84.5521 124.156V129.698L84.3756 129.522H88.753H88.9295V129.698V134.217V134.393H88.753H86.529L86.7055 134.217V139.759L86.529 139.583H89.7415H89.8474L89.8827 139.689C90.4122 140.783 91.1182 141.807 91.9655 142.689C92.848 143.537 93.8365 144.243 94.9661 144.772C96.0605 145.302 97.2607 145.619 98.4963 145.725C99.0964 145.796 99.7319 145.796 100.332 145.796H102.203H104.074C104.709 145.796 105.31 145.796 105.91 145.761C107.145 145.655 108.346 145.337 109.44 144.807C110.534 144.278 111.558 143.572 112.441 142.725C113.323 141.842 114.029 140.854 114.559 139.724L114.594 139.653H114.665H117.877L117.771 139.759V134.217L117.877 134.323H115.653H115.547V134.217V129.698V129.628H115.618L119.995 129.663L119.925 129.734L119.96 124.191L119.995 124.226L115.618 124.191H115.582V124.156L115.724 119.637Z"
        fill="#263238"></path>
    <path
        d="M130.366 104.55C145.875 89.0406 145.875 63.895 130.366 48.3856C114.856 32.8763 89.7106 32.8763 74.2013 48.3856C58.6919 63.895 58.6919 89.0406 74.2013 104.55C89.7106 120.059 114.856 120.059 130.366 104.55Z"
        fill="white" stroke="#263238" stroke-miterlimit="10"></path>
    <path
        d="M141.987 76.4631C141.987 91.2546 133.903 104.14 121.936 110.988C119.006 110.035 116.817 107.811 114.628 105.622C113.04 104.034 116.888 103.363 114.558 102.516C116.817 100.257 119.818 95.7379 115.97 96.3733C113.64 95.5261 112.192 100.115 109.051 98.4914C105.909 96.8323 105.062 92.9491 101.955 91.3252C101.178 92.0665 99.6956 93.5845 98.919 94.3258C96.5891 93.4786 94.9299 88.7834 94.1885 89.5248C90.3407 90.1602 88.1166 93.9728 85.0807 96.9735C83.4921 95.3849 81.1622 94.5376 81.9035 92.243C96.1655 76.3219 110.145 59.6594 124.901 43.8442C135.245 50.9752 141.987 62.9072 141.987 76.4631Z"
        fill="#F28123"></path>
    <path
        d="M98.5293 118.614C98.5293 118.614 98.5293 103.399 98.5293 93.0557C99.3412 93.0557 101.248 93.091 102.165 93.091H102.448C103.366 93.091 105.272 93.091 106.084 93.0557C106.084 103.434 106.084 118.614 106.084 118.614"
        stroke="#263238" stroke-width="2" stroke-miterlimit="10"></path>
    <path
        d="M106.049 93.0558V85.1482C106.049 78.4056 114.486 77.8054 116.428 85.1482C118.228 91.8202 114.945 92.9146 106.049 93.0558Z"
        stroke="#263238" stroke-width="2" stroke-miterlimit="10"></path>
    <path
        d="M98.5298 85.1482V93.0558C89.6338 92.9146 86.3507 91.8202 88.1511 85.1482C90.0927 77.8054 98.5298 78.4056 98.5298 85.1482Z"
        stroke="#263238" stroke-width="2" stroke-miterlimit="10"></path>
    <path
        d="M107.283 116.884H97.293C95.4573 116.884 93.9746 115.401 93.9746 113.566V111.483C93.9746 109.647 95.4573 108.165 97.293 108.165H107.283C109.119 108.165 110.602 109.647 110.602 111.483V113.566C110.602 115.401 109.119 116.884 107.283 116.884Z"
        fill="#A6A6A6"></path>
    <path
        d="M73.7824 48.2932C77.4891 44.5865 81.9724 41.5859 86.8088 39.609C91.6804 37.5968 96.9404 36.5377 102.2 36.5024C107.46 36.4671 112.756 37.4203 117.627 39.3619C122.534 41.3035 127.018 44.2688 130.76 47.9755C134.502 51.6822 137.467 56.2008 139.444 61.0725C141.421 65.9441 142.444 71.2394 142.48 76.4994C142.515 81.7593 141.527 87.0546 139.585 91.9615C137.643 96.8685 134.713 101.387 131.007 105.164C127.3 108.906 122.817 111.907 117.91 113.884C113.003 115.861 107.743 116.885 102.447 116.849C97.1875 116.849 91.8922 115.826 87.0206 113.849C82.1489 111.872 77.6303 108.906 73.8883 105.2C70.1463 101.493 67.1457 97.045 65.1688 92.1734C63.1566 87.3017 62.1328 82.0417 62.1328 76.7818C62.1328 71.5218 63.1213 66.2618 65.1335 61.3902C67.0751 56.4832 70.0404 51.9999 73.7824 48.2932ZM73.7824 48.2932C70.0757 51.9999 67.1104 56.4832 65.1335 61.3549C63.1566 66.2265 62.1681 71.4865 62.1681 76.7465C62.2034 82.0064 63.2272 87.2311 65.2394 92.1028C67.2516 96.9391 70.2522 101.387 73.9589 105.059C77.7009 108.765 82.1842 111.66 87.0206 113.637C91.8922 115.578 97.1169 116.602 102.377 116.602C107.602 116.602 112.862 115.578 117.698 113.602C122.534 111.625 126.982 108.659 130.654 104.917C134.36 101.211 137.255 96.7273 139.197 91.8556C141.138 86.984 142.127 81.7593 142.127 76.4994C142.127 71.2747 141.103 66.0147 139.161 61.1431C137.22 56.2714 134.29 51.7881 130.583 48.0814C126.876 44.3747 122.393 41.4094 117.521 39.4678C112.65 37.4909 107.39 36.5377 102.13 36.573C96.8698 36.6083 91.6451 37.6321 86.7735 39.6443C81.9724 41.6212 77.4891 44.5865 73.7824 48.2932Z"
        fill="#263238"></path>
    <path
        d="M142.339 76.8168C142.339 71.5568 141.245 66.2969 139.233 61.4605C137.22 56.6242 134.22 52.1761 130.548 48.4342C126.842 44.6922 122.429 41.6915 117.628 39.6087C112.792 37.5612 107.567 36.4668 102.307 36.4668C97.0469 36.4668 91.8223 37.5612 86.9859 39.6087C82.1496 41.6562 77.7368 44.6569 74.0301 48.3635C70.3235 52.0702 67.2875 56.4477 65.24 61.284C63.1572 66.0851 62.0628 71.3097 62.0628 76.5697C62.0275 81.7944 63.0513 87.0543 65.0988 91.8554C67.111 96.6917 70.1116 101.104 73.8183 104.811C77.525 108.518 81.9377 111.518 86.7741 113.566C91.6104 115.613 96.8351 116.743 102.06 116.743C107.32 116.778 112.544 115.755 117.416 113.742C122.252 111.73 126.7 108.765 130.442 105.058C134.184 101.352 137.185 96.9388 139.233 92.1025C141.28 87.3014 142.339 82.0768 142.339 76.8168ZM142.339 76.8168C142.339 82.0768 141.28 87.3367 139.233 92.1731C137.185 97.0094 134.184 101.457 130.478 105.164C126.736 108.871 122.288 111.871 117.451 113.884C112.58 115.896 107.32 116.955 102.06 116.92C96.7998 116.92 91.5398 115.825 86.6682 113.742C81.7965 111.695 77.3485 108.694 73.6418 104.952C69.8998 101.246 66.8639 96.7976 64.8164 91.926C62.7689 87.0543 61.6745 81.7944 61.7098 76.4991C61.7451 71.2038 62.8748 65.9438 64.9576 61.1075C67.0404 56.2712 70.1116 51.8231 73.8536 48.1164C77.5956 44.4097 82.0437 41.4091 86.9153 39.3616C91.787 37.3141 97.0469 36.2197 102.307 36.2197C107.567 36.2197 112.827 37.3141 117.663 39.3969C122.5 41.4797 126.912 44.5156 130.619 48.2576C134.326 51.9996 137.291 56.483 139.303 61.3193C141.315 66.2969 142.339 71.5568 142.339 76.8168Z"
        fill="#263238"></path>
    <path
        d="M101.918 117.449C107.249 117.449 112.579 116.355 117.486 114.307C122.393 112.26 126.912 109.224 130.689 105.482C134.466 101.74 137.537 97.2563 139.62 92.3493C141.703 87.4424 142.797 82.1471 142.797 76.8165C142.797 71.486 141.668 66.1907 139.585 61.2837C137.502 56.3768 134.466 51.9288 130.724 48.1515C126.982 44.3742 122.499 41.3382 117.627 39.2201C112.756 37.1373 107.46 36.0077 102.13 35.9724C96.8345 35.9371 91.5039 36.9961 86.597 39.0436C81.69 41.0911 77.2067 44.1271 73.4647 47.9044C69.6874 51.6464 66.6515 56.1297 64.5687 61.0366C62.4859 65.9436 61.3562 71.2389 61.3209 76.5694C61.2856 81.9 62.3093 87.2306 64.3569 92.1375C66.4044 97.0445 69.405 101.563 73.147 105.34C76.889 109.118 81.3723 112.189 86.2793 114.272C91.2568 116.355 96.5874 117.449 101.918 117.449ZM101.918 117.449C96.5874 117.449 91.2568 116.39 86.3499 114.307C81.4429 112.26 76.9243 109.188 73.147 105.411C69.3697 101.634 66.3338 97.1151 64.2862 92.1728C62.2387 87.2306 61.1797 81.9 61.1797 76.5694C61.1797 71.2389 62.3093 65.873 64.3922 60.966C66.475 56.0238 69.5109 51.5404 73.2882 47.7279C77.0655 43.9506 81.5488 40.8793 86.4911 38.7965C91.4333 36.7137 96.7639 35.6193 102.13 35.6546C107.496 35.6899 112.826 36.8196 117.733 38.973C122.64 41.0911 127.123 44.1977 130.901 47.975C134.678 51.7876 137.714 56.2709 139.797 61.2131C141.88 66.1201 142.974 71.486 142.974 76.8165C142.974 82.1471 141.844 87.513 139.726 92.4199C137.608 97.3269 134.537 101.81 130.724 105.552C126.912 109.294 122.393 112.295 117.486 114.342C112.579 116.39 107.249 117.449 101.918 117.449Z"
        fill="#263238"></path>
    <path
        d="M104.885 145.62H99.6601C93.9059 145.62 89.2461 140.96 89.2461 135.206V114.307H115.299V135.206C115.334 140.96 110.639 145.62 104.885 145.62Z"
        fill="#455A64"></path>
    <path d="M119.535 114.342H85.0098V119.779H119.535V114.342Z" fill="#37474F"></path>
    <path d="M119.535 124.227H85.0098V129.664H119.535V124.227Z" fill="#37474F"></path>
    <path d="M117.451 134.111H87.0918V139.548H117.451V134.111Z" fill="#37474F"></path>
    <path d="M115.969 44.6216C115.969 44.6216 135.279 55.671 135.279 75.5107" stroke="white" stroke-width="10"
        stroke-miterlimit="10" stroke-linecap="round" stroke-linejoin="round"></path>
    <path
        d="M134.821 86.1723C135.991 86.1723 136.939 85.2239 136.939 84.0541C136.939 82.8843 135.991 81.936 134.821 81.936C133.651 81.936 132.703 82.8843 132.703 84.0541C132.703 85.2239 133.651 86.1723 134.821 86.1723Z"
        fill="white"></path>
    <path
        d="M85.4043 148.444L89.6405 148.373L93.8767 148.338L102.314 148.303L110.751 148.338C113.575 148.373 116.364 148.409 119.188 148.479V148.515C116.364 148.585 113.575 148.62 110.751 148.656L102.314 148.691L93.8767 148.656L89.6405 148.62L85.4043 148.444Z"
        fill="#263238"></path>
    <path
        d="M86.5689 149.891L86.816 149.644L85.5452 148.443L86.816 147.278L86.5689 147.031L85.0156 148.443L86.5689 149.891Z"
        fill="#263238"></path>
    <path
        d="M117.987 149.891L117.74 149.644L119.046 148.443L117.74 147.278L117.987 147.031L119.541 148.443L117.987 149.891Z"
        fill="#263238"></path>
    <path
        d="M62.9473 31.489L72.7965 31.4184L82.6104 31.3478L102.273 31.3125L121.937 31.3478L131.786 31.4184L141.6 31.489L131.786 31.5949L121.937 31.6302L102.273 31.6655L82.6104 31.6302L72.7965 31.5949L62.9473 31.489Z"
        fill="#263238"></path>
    <path
        d="M64.1119 32.9363L64.359 32.6891L63.0881 31.4889L64.359 30.3239L64.1119 30.0415L62.5586 31.4889L64.1119 32.9363Z"
        fill="#263238"></path>
    <path
        d="M140.437 32.9363L140.189 32.6891L141.496 31.4889L140.189 30.3239L140.437 30.0415L141.99 31.4889L140.437 32.9363Z"
        fill="#263238"></path>
    <path
        d="M77.032 145.266C76.9614 142.725 76.9261 140.183 76.8908 137.641L76.8555 130.016L76.8908 122.391C76.9261 119.849 76.9614 117.307 77.032 114.766H77.0673C77.1379 117.307 77.1732 119.849 77.2085 122.391L77.2438 130.016L77.2085 137.641C77.1732 140.148 77.1379 142.689 77.032 145.266Z"
        fill="#263238"></path>
    <path
        d="M78.5139 144.066L78.2315 143.854L77.0665 145.125L75.8663 143.854L75.6191 144.066L77.0665 145.62L78.5139 144.066Z"
        fill="#263238"></path>
    <path
        d="M78.5139 115.895L78.2315 116.106L77.0665 114.836L75.8663 116.106L75.6191 115.895L77.0665 114.341L78.5139 115.895Z"
        fill="#263238"></path>
    <path
        d="M144.251 145.266L144.145 131.746L144.11 118.225L144.074 91.1839L144.11 64.1427L144.145 50.6222L144.251 37.1016L144.321 50.6222L144.357 64.1427L144.427 91.1839L144.357 118.225L144.321 131.746L144.251 145.266Z"
        fill="#263238"></path>
    <path
        d="M145.699 144.066L145.417 143.854L144.252 145.125L143.052 143.854L142.805 144.066L144.252 145.62L145.699 144.066Z"
        fill="#263238"></path>
    <path
        d="M145.699 38.3018L145.417 38.5136L144.252 37.2428L143.052 38.5136L142.805 38.3018L144.252 36.7485L145.699 38.3018Z"
        fill="#263238"></path>
    <path
        d="M92.6377 114.342C90.802 114.413 88.9663 114.448 87.1306 114.483C85.2949 114.519 83.4592 114.519 81.6235 114.519C79.7878 114.519 77.9522 114.519 76.1165 114.483L73.3629 114.448C72.4451 114.413 71.5272 114.413 70.6094 114.378C71.5272 114.342 72.4451 114.307 73.3629 114.307L76.1165 114.272C77.9522 114.236 79.7878 114.236 81.6235 114.236C83.4592 114.236 85.2949 114.236 87.1306 114.272C88.9663 114.236 90.802 114.272 92.6377 114.342Z"
        fill="#263238"></path>
    <path
        d="M99.4156 145.62C97.0151 145.69 94.6146 145.725 92.2141 145.761C89.8136 145.796 87.413 145.796 85.0125 145.796L77.8109 145.761L74.2102 145.725C73.0099 145.69 71.8096 145.69 70.6094 145.655C71.8096 145.62 73.0099 145.584 74.2102 145.584L77.8109 145.549L85.0125 145.514C87.413 145.514 89.8136 145.514 92.2141 145.549C94.6146 145.514 97.0151 145.549 99.4156 145.62Z"
        fill="#263238"></path>
    <path
        d="M85.0122 114.342C85.0828 117.59 85.1181 120.838 85.1534 124.086L85.1887 133.829L85.1534 143.572L85.1181 148.444L85.0475 153.315L84.9769 148.444L84.9416 143.572L84.9062 133.829L84.9416 124.086C84.9063 120.838 84.9416 117.59 85.0122 114.342Z"
        fill="#263238"></path>
    <path
        d="M119.536 114.343C119.606 117.591 119.641 120.838 119.677 124.086L119.712 133.829L119.677 143.573L119.641 148.444L119.571 153.316L119.5 148.444L119.465 143.573L119.43 133.829L119.465 124.086C119.43 120.838 119.465 117.591 119.536 114.343Z"
        fill="#263238"></path>
    <path
        d="M104.074 145.62C107.993 145.549 111.947 145.514 115.865 145.479L127.656 145.443L139.447 145.479L145.342 145.514L151.237 145.585L145.342 145.655L139.447 145.69L127.656 145.726L115.865 145.69C111.911 145.726 107.993 145.69 104.074 145.62Z"
        fill="#263238"></path>
    <path
        d="M104.074 36.7488C107.993 36.6782 111.947 36.6429 115.865 36.6076L127.656 36.5723L139.447 36.6076L145.342 36.6429L151.237 36.7135L145.342 36.7841L139.447 36.8194L127.656 36.8547L115.865 36.8194C111.911 36.8547 107.993 36.8194 104.074 36.7488Z"
        fill="#263238"></path>
    <path
        d="M62.5613 145.62L62.4907 130.899L62.4554 116.143L62.3848 86.6656L62.4554 57.1533L62.4907 42.4324L62.5613 27.6763L62.6672 42.4324L62.7025 57.1533L62.7378 86.6656L62.7025 116.143L62.6672 130.899L62.5613 145.62Z"
        fill="#263238"></path>
    <path
        d="M141.989 145.62L141.918 130.899L141.883 116.143L141.812 86.6656L141.883 57.1533L141.918 42.4324L141.989 27.6763L142.095 42.4324L142.13 57.1533L142.166 86.6656L142.13 116.143L142.095 130.899L141.989 145.62Z"
        fill="#263238"></path>
    <path
        d="M30.7905 135.242L30.4375 149.222C30.4375 151.799 30.5081 154.058 30.6493 155.258C30.6493 155.258 30.6493 155.258 30.6493 155.294C30.6846 155.753 30.7552 156 30.8258 156.106C31.6025 156.635 52.254 157.165 52.9954 156.953C53.7367 156.741 53.1366 154.623 52.3599 153.987C51.5833 153.317 43.7463 149.575 43.7463 149.575L43.9581 135.595L30.7905 135.242Z"
        fill="#BE7A3B"></path>
    <path
        d="M30.4375 146.433C30.4375 146.433 30.4728 149.186 30.4728 149.221C30.4728 151.799 30.5434 154.058 30.6846 155.258C30.6846 155.258 30.6846 155.258 30.6846 155.293C30.7552 155.717 30.8258 156.035 30.8611 156.105C31.6378 156.635 52.2893 157.164 53.0307 156.953C53.772 156.741 53.1719 154.623 52.3952 153.987C51.6186 153.316 43.7816 149.574 43.7816 149.574V146.75L30.4375 146.433Z"
        fill="white"></path>
    <path
        d="M45.0189 149.539C43.6421 149.328 41.9829 149.575 40.9592 150.563C40.9239 150.598 40.9592 150.669 41.0298 150.634C42.3712 150.175 43.6421 149.892 45.0542 149.716C45.1248 149.681 45.1248 149.539 45.0189 149.539Z"
        fill="#021217"></path>
    <path
        d="M46.0423 150.104C44.6655 149.892 43.0064 150.139 41.9826 151.128C41.9473 151.163 41.9826 151.234 42.0532 151.198C43.3947 150.739 44.6655 150.457 46.0776 150.28C46.1482 150.28 46.1482 150.139 46.0423 150.104Z"
        fill="#021217"></path>
    <path
        d="M47.0306 150.669C45.6538 150.457 43.9946 150.704 42.9709 151.693C42.9356 151.728 42.9709 151.798 43.0415 151.763C44.383 151.304 45.6538 151.022 47.0659 150.845C47.1365 150.845 47.1365 150.704 47.0306 150.669Z"
        fill="#021217"></path>
    <path
        d="M52.9955 156.917C52.2542 157.129 31.6026 156.6 30.826 156.07C30.5436 155.894 30.4376 152.858 30.4023 149.222C30.4023 149.186 30.4023 149.151 30.4023 149.116L43.7464 149.328V149.539C43.7464 149.539 51.5481 153.281 52.3601 153.952C53.172 154.588 53.7368 156.67 52.9955 156.917Z"
        fill="#37474F"></path>
    <path
        d="M30.4375 149.116V149.222C30.4375 152.858 30.5434 155.894 30.8611 156.07C31.2141 156.317 35.6975 156.529 40.5338 156.706C46.3233 156.917 52.6423 157.023 53.0307 156.882C53.772 156.67 53.1719 154.552 52.3952 153.917C51.6186 153.246 43.7816 149.504 43.7816 149.504V149.292L39.3336 149.222L30.4375 149.116Z"
        fill="#F28123"></path>
    <path
        d="M52.7848 156.106C49.2899 155.929 35.2398 155.541 31.8155 155.647C31.7802 155.647 31.7802 155.682 31.8155 155.682C35.2751 155.929 49.3252 156.212 52.7848 156.176C52.8554 156.141 52.8907 156.106 52.7848 156.106Z"
        fill="#021217"></path>
    <path opacity="0.1"
        d="M39.3359 149.222C39.6537 151.446 40.1479 154.729 40.5362 156.706C46.3257 156.917 52.6447 157.023 53.033 156.882C53.7744 156.67 53.1742 154.552 52.3976 153.917C51.621 153.246 43.784 149.504 43.784 149.504V149.292L39.3359 149.222Z"
        fill="black"></path>
    <path
        d="M29.2363 149.292L44.169 149.434C44.169 149.434 45.0162 125.111 45.0868 116.991C45.1574 107.707 44.6279 79.9243 44.6279 79.9243H33.4725C33.4725 79.9243 30.4719 86.0668 32.2017 92.9507L32.6606 117.768L29.2363 149.292Z"
        fill="#0F7174"></path>
    <path
        d="M30.365 146.68C30.7533 146.61 31.1769 146.61 31.5652 146.574C32.0242 146.539 32.4478 146.504 32.9067 146.504C33.754 146.468 34.6012 146.468 35.4484 146.433C37.1782 146.433 38.8727 146.433 40.6025 146.504C41.591 146.539 42.5441 146.574 43.5326 146.645C43.5679 146.645 43.5679 146.716 43.5326 146.716C41.8381 146.786 40.1436 146.821 38.4138 146.821C36.7193 146.857 35.0248 146.892 33.295 146.857C32.8008 146.857 32.3066 146.857 31.8477 146.821C31.3534 146.786 30.8592 146.821 30.4003 146.751C30.3297 146.716 30.3297 146.68 30.365 146.68Z"
        fill="#021217"></path>
    <path
        d="M43.1079 133.23C43.2845 129.205 43.4257 125.181 43.5316 121.157C43.7434 113.108 43.814 105.059 43.7081 96.975C43.6375 92.4563 43.5316 87.9377 43.3904 83.4191C43.3904 83.3838 43.461 83.3838 43.461 83.4191C43.8846 91.5032 44.0611 99.6226 44.0611 107.707C44.0611 115.756 43.8846 123.84 43.4963 131.853C43.2845 136.372 43.002 140.89 42.5784 145.409C42.5784 145.444 42.5078 145.444 42.5078 145.409C42.7196 141.385 42.9314 137.325 43.1079 133.23Z"
        fill="#021217"></path>
    <path
        d="M46.7812 137.466L46.8872 150.986C46.8872 153.563 46.9578 155.823 47.099 157.023C47.099 157.023 47.099 157.023 47.099 157.058C47.1343 157.482 47.2049 157.764 47.2755 157.87C48.0521 158.4 68.7037 158.929 69.445 158.718C70.1863 158.506 69.5862 156.388 68.8096 155.752C68.0329 155.081 60.1959 151.339 60.1959 151.339L59.9488 137.819L46.7812 137.466Z"
        fill="#BE7A3B"></path>
    <path
        d="M46.8867 148.197C46.8867 148.197 46.922 150.951 46.922 150.986C46.922 153.563 46.9926 155.822 47.1338 157.023C47.1338 157.023 47.1338 157.023 47.1338 157.058C47.2044 157.482 47.275 157.799 47.3103 157.87C48.087 158.399 68.7385 158.929 69.4799 158.717C70.2212 158.505 69.6211 156.387 68.8444 155.752C68.0678 155.081 60.2308 151.339 60.2308 151.339V148.515L46.8867 148.197Z"
        fill="white"></path>
    <path
        d="M61.5013 151.304C60.1245 151.092 58.4653 151.339 57.4416 152.327C57.4063 152.363 57.4416 152.433 57.5122 152.398C58.8537 151.939 60.1245 151.657 61.5366 151.48C61.5719 151.445 61.5719 151.304 61.5013 151.304Z"
        fill="#021217"></path>
    <path
        d="M62.4896 151.869C61.1128 151.657 59.4536 151.904 58.4299 152.892C58.3946 152.928 58.4299 152.998 58.5005 152.963C59.8419 152.504 61.1128 152.222 62.5249 152.045C62.5955 152.01 62.5955 151.869 62.4896 151.869Z"
        fill="#021217"></path>
    <path
        d="M63.4798 152.433C62.103 152.222 60.4439 152.469 59.4201 153.457C59.3848 153.493 59.4201 153.563 59.4907 153.528C60.8322 153.069 62.103 152.786 63.5151 152.61C63.5857 152.61 63.5857 152.469 63.4798 152.433Z"
        fill="#021217"></path>
    <path
        d="M69.4799 158.646C68.7385 158.858 48.087 158.329 47.3103 157.799C47.0279 157.623 46.922 154.587 46.8867 150.951C46.8867 150.915 46.8867 150.88 46.8867 150.845L60.2308 151.057V151.268C60.2308 151.268 68.0325 155.01 68.8444 155.681C69.6211 156.352 70.1859 158.435 69.4799 158.646Z"
        fill="#F28123"></path>
    <path
        d="M69.2692 157.835C65.7743 157.658 51.7242 157.27 48.2999 157.376C48.2646 157.376 48.2646 157.411 48.2999 157.411C51.7595 157.658 65.8096 157.941 69.2692 157.905C69.3398 157.905 69.3398 157.87 69.2692 157.835Z"
        fill="#021217"></path>
    <path
        d="M39.9667 94.2206C39.9667 94.2206 46.1092 113.566 46.2152 117.096C46.3211 120.132 45.9327 151.198 45.9327 151.198L61.4655 151.304C61.4655 151.304 60.1594 119.603 59.9123 116.461C59.4533 110.565 54.2993 94.3618 50.5926 79.9233H33.8242C33.8242 79.9233 33.9654 87.4779 37.425 92.9497C37.3897 92.9144 38.9783 93.6557 39.9667 94.2206Z"
        fill="#0F7174"></path>
    <path
        d="M46.7436 148.339C48.544 148.303 50.3797 148.233 52.1801 148.268C53.9452 148.303 55.7456 148.339 57.5107 148.444C58.5344 148.515 59.5229 148.55 60.5466 148.621C60.5819 148.621 60.5819 148.656 60.5466 148.692C58.7462 148.797 56.9459 148.762 55.1455 148.762C53.3804 148.762 51.58 148.727 49.8149 148.656C48.7911 148.621 47.8027 148.55 46.7789 148.48C46.673 148.48 46.6377 148.339 46.7436 148.339Z"
        fill="#021217"></path>
    <path
        d="M50.1353 88.9962C50.7002 90.8319 51.1591 92.7029 51.6533 94.5739C52.1475 96.4449 52.6418 98.3159 53.136 100.222C54.0892 103.858 55.0423 107.494 55.7483 111.201C56.4544 114.908 56.9133 118.65 56.9839 122.427C57.0545 126.275 56.9839 130.123 56.9486 133.971C56.9133 137.854 56.878 141.702 56.8074 145.585C56.8074 146.079 56.7721 146.538 56.7721 147.032C56.7721 147.068 56.7015 147.068 56.7015 147.032C56.5956 143.184 56.6662 139.337 56.6662 135.489C56.6662 131.641 56.7368 127.793 56.7015 123.945C56.6662 120.097 56.3838 116.32 55.713 112.543C55.0776 108.836 54.1598 105.2 53.2066 101.564C52.6771 99.4808 52.1122 97.398 51.5827 95.3505C51.0532 93.2677 50.4531 91.1849 49.9941 89.0668C49.9941 88.9609 50.1 88.9256 50.1353 88.9962Z"
        fill="#021217"></path>
    <path
        d="M43.815 94.574C43.0383 94.574 42.2617 94.5034 41.5204 94.3622C40.7437 94.2209 40.0377 93.9738 39.2963 93.7267C38.5903 93.5149 37.849 93.4796 37.1076 93.3737C36.3663 93.2678 35.625 93.056 34.9542 92.7383C34.9189 92.7383 34.8836 92.7736 34.9189 92.7736C35.5897 93.1266 36.2604 93.4443 36.9664 93.6561C37.7078 93.9032 38.4844 93.9032 39.2257 94.115C40.0024 94.2916 40.7437 94.5387 41.5204 94.6446C42.297 94.7505 43.0736 94.7152 43.815 94.6093C43.8503 94.6446 43.815 94.574 43.815 94.574Z"
        fill="#021217"></path>
    <path
        d="M44.768 109.965C44.6268 109.4 44.4855 108.836 44.3443 108.236C44.0266 107.071 43.7089 105.941 43.3559 104.776C42.6499 102.517 42.0144 100.222 41.2731 97.9627C40.8495 96.6918 40.4964 95.3857 40.0022 94.1148C40.0022 94.0795 39.9316 94.1148 39.9669 94.1148C40.214 95.2798 40.567 96.4447 40.8848 97.5744C41.2025 98.7393 41.5202 99.869 41.8732 101.034C42.5439 103.329 43.1794 105.588 43.9207 107.883C44.1325 108.518 44.3443 109.153 44.5562 109.789C44.768 110.424 44.9445 111.095 45.2269 111.73C45.2269 111.766 45.2975 111.766 45.2975 111.73C45.121 111.13 44.9445 110.53 44.768 109.965Z"
        fill="#021217"></path>
    <path
        d="M46.1419 62.7313C49.4955 67.6736 54.5437 74.3456 56.2382 73.3924C60.6509 70.886 65.6991 63.3667 66.5816 61.4957C67.1111 60.4014 59.9096 54.9649 59.2035 56.0593C58.3916 57.3301 54.8967 64.0728 54.3319 64.2493C53.9083 64.3552 49.7073 60.825 48.3306 60.0837C44.9416 58.2833 44.5886 60.4367 46.1419 62.7313Z"
        fill="#BE7A3B"></path>
    <path
        d="M57.8604 57.7183L66.4388 63.2253C66.4388 63.2253 58.9901 73.5688 55.7423 73.5688C53.836 73.5688 48.3995 67.2144 45.999 63.1194C43.422 58.6361 46.4579 58.5655 48.9291 60.26C50.906 61.6015 54.0831 64.0726 54.2243 63.9314C54.3655 63.8255 57.8604 57.7183 57.8604 57.7183Z"
        fill="#F28123"></path>
    <path opacity="0.1"
        d="M56.0944 63.8255C55.9532 64.1079 55.8473 64.3904 55.8119 64.7081C56.0238 64.461 56.165 64.1786 56.3062 63.9314C56.4121 63.649 56.5533 63.3666 56.5886 63.0489C56.3768 63.296 56.2356 63.5431 56.0944 63.8255ZM53.835 72.6157C53.9057 72.651 53.941 72.7216 54.0116 72.7569C54.1175 72.5451 54.1881 72.298 54.2234 72.0509C54.0822 72.1921 53.941 72.4039 53.835 72.6157ZM59.5892 61.8486C59.3068 61.7074 59.0244 61.6015 58.7067 61.5662C58.9538 61.778 59.2009 61.9192 59.4833 62.0604C59.7658 62.2016 60.0482 62.3076 60.3659 62.3429C60.1541 62.131 59.8717 61.9898 59.5892 61.8486ZM52.4936 67.8499C52.2112 67.7087 51.9287 67.6028 51.611 67.5675C51.8581 67.7793 52.1053 67.9205 52.3877 68.0617C52.6701 68.203 52.9525 68.3089 53.2702 68.3442C53.0231 68.0971 52.776 67.9558 52.4936 67.8499ZM46.4217 60.6484C46.3158 60.366 46.1746 60.0835 45.998 59.8364C45.998 60.1541 46.104 60.4719 46.2099 60.7543C46.3158 61.0367 46.457 61.3191 46.6335 61.5662C46.6335 61.2485 46.5276 60.9308 46.4217 60.6484ZM63.9667 64.4963C63.8608 64.2138 63.7196 63.9314 63.543 63.6843C63.5783 64.002 63.649 64.3198 63.7549 64.6022C63.8608 64.8846 64.002 65.167 64.1785 65.4141C64.1432 65.0611 64.0726 64.7787 63.9667 64.4963ZM57.4005 69.8974C57.2946 69.615 57.1534 69.3326 56.9769 69.0502C57.0122 69.3679 57.0828 69.6856 57.1887 69.968C57.2946 70.2505 57.4358 70.5329 57.6123 70.78C57.6123 70.4976 57.5064 70.2152 57.4005 69.8974ZM60.3659 66.7203C60.0835 66.8262 59.8011 66.9674 59.5539 67.1439C59.8717 67.1086 60.1894 67.038 60.4718 66.9321C60.7542 66.8262 61.0366 66.685 61.319 66.5085C60.9307 66.5085 60.6483 66.6144 60.3659 66.7203ZM50.4461 63.4372C50.1637 63.5431 49.8812 63.6843 49.6341 63.8608C49.9518 63.8255 50.2696 63.7549 50.552 63.649C50.8344 63.5431 51.1168 63.4019 51.3639 63.2254C51.0462 63.2607 50.7638 63.3313 50.4461 63.4372Z"
        fill="black"></path>
    <path
        d="M61.004 62.2722C60.3686 61.8838 59.7684 61.4955 59.133 61.1072C58.8153 60.9307 58.5329 60.7189 58.2152 60.5424C57.8974 60.3659 57.5444 60.1187 57.2267 59.9775C57.1914 59.9775 57.1914 59.9775 57.1914 60.0128C57.4738 60.26 57.8268 60.4718 58.1446 60.6836C58.427 60.8954 58.7447 61.0719 59.0271 61.2837C59.6272 61.7073 60.2627 62.0957 60.8628 62.5193C62.0984 63.3312 63.3692 64.0726 64.6401 64.8492C64.6754 64.8845 64.7107 64.8139 64.6754 64.8139C63.4398 63.9313 62.2396 63.0841 61.004 62.2722Z"
        fill="#021217"></path>
    <path opacity="0.1"
        d="M61.6731 69.1204C59.555 71.4503 57.225 73.5684 55.7424 73.5684C53.8361 73.5684 48.3643 67.2141 45.9991 63.1191C44.6576 60.7892 44.8341 59.6595 45.6461 59.3418L61.6731 69.1204Z"
        fill="black"></path>
    <path
        d="M87.0228 71.6624C87.0228 71.6624 77.4913 66.7202 67.8539 61.1778C58.2165 55.6354 35.1291 48.0102 34.3878 48.5751C33.6464 49.1399 55.2158 61.4602 65.2769 65.7317C75.3732 70.0033 85.8578 73.6746 85.8578 73.6746L87.0228 71.6624Z"
        fill="#455A64"></path>
    <path d="M87.3047 71.6623L80.8797 67.9556L79.2559 71.627L86.1044 74.1334L87.3047 71.6623Z" fill="#DBDBDB"></path>
    <path
        d="M87.3077 71.6624C88.8257 71.5212 90.5554 71.7683 92.2852 73.5334C94.368 75.6515 96.3096 75.5103 96.3096 75.5103C96.3096 75.5103 90.0259 78.7934 86.1074 74.0982L87.3077 71.6624Z"
        fill="#021217"></path>
    <path
        d="M96.558 75.5454C96.2403 75.263 94.4399 75.3689 93.2396 74.3098C92.11 73.3214 89.2858 76.8515 91.3687 76.8869C93.7692 76.9575 97.1228 76.0396 96.558 75.5454Z"
        fill="#F28123"></path>
    <path
        d="M49.2855 62.6961C48.1559 62.7314 46.4614 60.4721 46.0024 58.9894C45.9671 58.8835 46.3202 57.9656 46.7085 56.8007C46.9203 56.0946 47.1674 55.318 47.3086 54.5767L51.6507 56.6948C51.6507 56.6948 50.8741 58.1421 50.5917 59.413C50.5564 59.5189 50.5564 59.6248 50.5564 59.7307V59.766C50.5211 60.3662 50.3799 62.6608 49.2855 62.6961Z"
        fill="#BE7A3B"></path>
    <path
        d="M50.5569 59.6956C50.5569 59.6956 50.5569 59.7309 50.5569 59.7662C50.4157 59.7662 50.2392 59.7309 50.0627 59.6956C47.3797 58.9896 47.3444 55.8124 47.415 54.6475L51.6512 56.695C51.6512 56.695 50.8746 58.1423 50.5922 59.4132C50.5922 59.5191 50.5569 59.625 50.5569 59.6956Z"
        fill="#021217"></path>
    <path
        d="M47.2385 49.0335C46.4972 50.6221 46.6384 55.4937 47.6621 56.7293C49.1448 58.5297 51.8984 59.0945 53.5222 57.2235C55.0755 55.4231 54.7578 49.0688 53.5929 47.9038C51.8984 46.2093 48.3682 46.7036 47.2385 49.0335Z"
        fill="#BE7A3B"></path>
    <path
        d="M51.6518 52.6353C51.6518 52.6353 51.6165 52.6353 51.6518 52.6353C51.6518 52.9883 51.6165 53.3766 51.2988 53.4825V53.5178C51.6871 53.4472 51.7224 52.953 51.6518 52.6353Z"
        fill="#021217"></path>
    <path
        d="M51.3695 52.2821C50.8399 52.2468 50.8046 53.3059 51.2988 53.3412C51.7578 53.3765 51.7931 52.3174 51.3695 52.2821Z"
        fill="#021217"></path>
    <path
        d="M53.4855 52.6704C53.5208 52.6704 53.5208 52.7057 53.4855 52.6704C53.4855 53.0234 53.5208 53.4118 53.8386 53.5177V53.553C53.4855 53.4824 53.4149 52.9881 53.4855 52.6704Z"
        fill="#021217"></path>
    <path
        d="M53.8037 52.3524C54.3332 52.3171 54.3332 53.3762 53.8743 53.4115C53.3801 53.4115 53.3448 52.3524 53.8037 52.3524Z"
        fill="#021217"></path>
    <path
        d="M50.9456 51.7876C51.0868 51.7523 51.228 51.717 51.3692 51.6464C51.5457 51.5758 51.6516 51.5758 51.7575 51.4346C51.8281 51.3639 51.7928 51.2227 51.7222 51.1521C51.581 51.0109 51.3692 51.0109 51.1574 51.0815C50.9456 51.1521 50.8044 51.258 50.6632 51.4346C50.5573 51.6111 50.7691 51.8582 50.9456 51.7876Z"
        fill="#021217"></path>
    <path
        d="M54.2293 51.8228C54.0881 51.7875 53.9469 51.7522 53.8057 51.7169C53.6292 51.6816 53.5233 51.6463 53.4174 51.5051C53.3468 51.4345 53.3821 51.2933 53.4527 51.2227C53.5939 51.0815 53.8057 51.0815 54.0175 51.1168C54.2293 51.1874 54.3705 51.258 54.5117 51.4345C54.6177 51.611 54.4411 51.8581 54.2293 51.8228Z"
        fill="#021217"></path>
    <path
        d="M51.2266 55.6354C51.2972 55.706 51.3678 55.8119 51.509 55.8472C51.6149 55.8472 51.7562 55.8119 51.8621 55.7766C51.8621 55.7766 51.8974 55.7766 51.8621 55.7766C51.7562 55.9178 51.5796 55.9884 51.4384 55.9531C51.2972 55.9178 51.2266 55.7766 51.2266 55.6354C51.1913 55.6001 51.2266 55.6001 51.2266 55.6354Z"
        fill="#021217"></path>
    <path
        d="M51.6153 54.6464C51.7918 54.9288 52.0742 55.1053 52.3566 55.1759C52.4978 55.2112 52.6391 55.2112 52.745 55.2112C52.7803 55.2112 52.8156 55.2112 52.8156 55.2112C52.8509 55.2112 52.8509 55.2112 52.8862 55.2112C52.9215 55.2112 52.9568 55.1759 52.9568 55.1406V55.1053V55.07C52.9568 54.8229 52.9568 54.4345 52.9568 54.4345C53.0627 54.4698 53.5216 54.717 53.5216 54.5758C53.4863 53.4814 53.451 52.2458 53.1686 51.1515C53.1686 51.1162 53.098 51.1162 53.098 51.1515C53.098 52.2105 53.2745 53.2696 53.2745 54.3286C53.1333 54.258 52.8862 54.1521 52.745 54.1521C52.7097 54.1521 52.7803 54.8935 52.7803 54.9994C52.3566 55.0347 52.0389 54.8935 51.6153 54.6464C51.6153 54.6111 51.58 54.6111 51.6153 54.6464Z"
        fill="#021217"></path>
    <path
        d="M52.6052 55.0703C52.6052 55.0703 52.3581 55.3527 52.0757 55.4586C51.9698 55.4939 51.8286 55.4939 51.7227 55.4586C51.4755 55.388 51.4755 55.1409 51.5109 54.929C51.5462 54.7525 51.6521 54.6113 51.6521 54.6113C51.6521 54.6113 51.9698 54.9996 52.6052 55.0703Z"
        fill="#021217"></path>
    <path
        d="M52.0405 55.4587C51.9346 55.494 51.7934 55.494 51.6875 55.4587C51.4404 55.3881 51.4404 55.141 51.4757 54.9292C51.7581 54.9998 52.0405 55.1763 52.0405 55.4587Z"
        fill="#FF97B8"></path>
    <path opacity="0.2"
        d="M48.4383 47.6924C48.4383 48.3278 48.3677 50.3753 48.05 50.7989C47.7676 51.2226 47.1322 52.211 46.8145 52.3522C46.8145 51.0108 46.9557 49.7399 47.2734 49.0338C47.5205 48.469 47.9441 48.0101 48.4383 47.6924Z"
        fill="#021217"></path>
    <path
        d="M52.3924 49.387C52.0393 49.8106 51.4745 50.0224 50.9097 49.9518C50.3802 49.8812 49.8506 49.4929 49.6388 48.9634H49.6035C49.8153 49.5282 50.2742 49.9871 50.8744 50.0577C51.4745 50.1636 52.1099 49.8812 52.3924 49.387C52.463 49.387 52.4277 49.387 52.3924 49.387Z"
        fill="#021217"></path>
    <path
        d="M50.732 45.4334C49.8141 45.4687 48.9316 45.9629 48.6139 46.5983C48.402 46.9867 48.3667 47.375 48.4373 47.7633H48.4726C48.402 47.1279 48.7198 46.4218 49.3905 45.9629C50.0259 45.5393 50.9085 45.3981 51.6498 45.6805C52.0381 45.8217 52.3558 46.0688 52.5324 46.3865C52.5677 46.4218 52.603 46.3865 52.603 46.3512C52.3558 45.7864 51.5792 45.3981 50.732 45.4334Z"
        fill="#021217"></path>
    <path
        d="M56.1696 47.4451C56.0284 46.9862 55.7106 46.5979 55.287 46.3508C54.7222 45.9978 54.0514 46.0331 53.416 46.1037V46.139C53.9455 46.0684 54.5104 46.0684 55.0399 46.3155C55.4635 46.5273 55.7812 46.8803 55.993 47.3039C56.3814 48.1865 56.0283 49.2808 55.1811 49.7398C54.7222 50.0222 54.1221 50.0575 53.5925 49.9163C53.5572 49.9163 53.5572 49.9516 53.5925 49.9516C54.5457 50.2693 55.64 49.8457 56.099 48.9278C56.2755 48.4689 56.3108 47.9394 56.1696 47.4451Z"
        fill="#021217"></path>
    <path
        d="M46.9201 49.9874C46.9201 49.9874 46.0376 48.3282 46.7789 47.3397C47.2025 46.8102 48.5793 46.8808 48.5793 46.8808C48.5793 46.8808 49.0382 46.0689 50.1679 45.8218C51.3328 45.5746 52.7096 46.2454 52.7096 46.2454C52.7096 46.2454 53.804 45.6099 54.863 46.2101C56.3104 47.0573 56.1339 49.246 54.6512 49.9521C53.6274 50.4463 52.2507 49.5284 52.2507 49.5284C52.1095 49.5638 50.7327 50.3757 49.7089 49.1401C49.7089 49.1401 48.8617 49.8815 48.1204 49.3519C48.1557 49.3519 47.7673 50.1286 46.9201 49.9874Z"
        fill="#021217"></path>
    <path
        d="M47.6983 53.0585C47.6983 53.0585 46.8158 51.3641 46.0744 51.6818C45.3331 51.9642 45.8626 54.3294 46.6393 54.7177C47.4159 55.1414 47.8042 54.4 47.8042 54.4L47.6983 53.0585Z"
        fill="#BE7A3B"></path>
    <path
        d="M46.2148 52.3525C46.7444 52.6703 46.9915 53.2704 47.1327 53.8352C46.9915 53.5881 46.7797 53.4469 46.462 53.6234V53.6587C46.7091 53.6234 46.8856 53.694 46.9915 53.9058C47.0974 54.047 47.1327 54.2235 47.2033 54.4C47.2386 54.4706 47.3092 54.4353 47.3092 54.3647C47.4504 53.6234 47.0268 52.529 46.2148 52.3525Z"
        fill="#021217"></path>
    <path
        d="M31.1398 83.347C31.1751 83.4176 52.3209 87.7597 52.568 87.5479C52.8857 87.3008 54.0154 65.802 50.697 61.001C49.8851 59.836 46.7079 58.1415 45.543 58.7063C42.507 60.1184 40.3183 63.8604 38.9415 66.0491C37.9178 67.6377 36.541 70.4618 35.1995 73.3566C33.0108 78.1223 30.9986 83.1352 31.1398 83.347Z"
        fill="#F28123"></path>
    <path opacity="0.1"
        d="M45.8253 67.0733C45.6841 67.3557 45.5782 67.6381 45.5429 67.9558C45.7547 67.7087 45.8959 67.4616 46.0371 67.1792C46.1783 66.8968 46.2842 66.6144 46.3195 66.2967C46.1077 66.5438 45.9665 66.7909 45.8253 67.0733ZM36.6115 71.6272C36.4703 71.9096 36.3644 72.1921 36.3291 72.5098C36.5409 72.2627 36.6821 72.0155 36.8233 71.7331C36.9646 71.4507 37.0705 71.1683 37.1058 70.8506C36.8939 71.0977 36.7527 71.3448 36.6115 71.6272ZM47.661 85.6067C47.5198 85.8892 47.4139 86.1716 47.3786 86.4893C47.5904 86.2422 47.7316 85.9951 47.8728 85.7127C47.9787 85.4302 48.0846 85.1478 48.1552 84.8301C47.9434 85.0419 47.8022 85.3243 47.661 85.6067ZM36.9999 84.5477V84.583C37.0705 84.583 37.1764 84.6183 37.247 84.6183C37.3529 84.3359 37.4588 84.0535 37.5294 83.7357C37.2823 83.9829 37.1411 84.2653 36.9999 84.5477ZM31.634 82.1825C31.4928 82.4649 31.3869 82.7473 31.3516 83.065C31.5634 82.8179 31.7046 82.5708 31.8458 82.2884C31.987 82.006 32.0929 81.7235 32.1282 81.4058C31.9164 81.6529 31.7752 81.9001 31.634 82.1825ZM43.1424 78.0169C43.0012 78.2993 42.8953 78.5817 42.86 78.8994C43.0718 78.6523 43.213 78.4052 43.3542 78.1228C43.4954 77.8403 43.6013 77.5579 43.6366 77.2402C43.4248 77.452 43.2836 77.7344 43.1424 78.0169ZM41.6244 62.7665C41.4832 63.0489 41.3773 63.3313 41.342 63.649C41.5538 63.4019 41.695 63.1195 41.8362 62.8724C41.9774 62.59 42.0833 62.3076 42.1186 61.9898C41.9068 62.2016 41.7656 62.4841 41.6244 62.7665ZM52.4973 67.8499C52.2149 67.7087 51.8972 67.6028 51.5795 67.5675C51.8266 67.7793 52.0737 67.9205 52.3561 68.0617C52.3914 68.097 52.462 68.097 52.4973 68.1323C52.5326 68.0264 52.5326 67.9205 52.4973 67.8499ZM37.1411 78.264C36.8586 78.1228 36.5762 78.0169 36.2585 77.9816C36.5056 78.1934 36.788 78.3346 37.0352 78.4758C37.3176 78.617 37.6 78.7229 37.9177 78.7582C37.7059 78.5464 37.4235 78.4052 37.1411 78.264ZM52.6386 86.5599C52.3561 86.4187 52.0737 86.3128 51.756 86.2775C52.0031 86.4893 52.2855 86.6305 52.5326 86.7717C52.5679 86.807 52.6033 86.807 52.6739 86.8423C52.6739 86.7717 52.7092 86.7011 52.7092 86.5952C52.6739 86.5599 52.6739 86.5599 52.6386 86.5599ZM45.0487 82.5355C44.7662 82.3943 44.4838 82.2884 44.1661 82.2531C44.4132 82.4649 44.6956 82.6061 44.9428 82.7473C45.2252 82.8885 45.5076 82.9944 45.8253 83.0297C45.6135 82.8179 45.3311 82.6414 45.0487 82.5355ZM51.5795 76.7107C51.2971 76.6048 51.0147 76.4636 50.697 76.4283C50.9441 76.6401 51.1912 76.7813 51.4736 76.9225C51.756 77.0284 52.0384 77.1696 52.3561 77.2049C52.1443 76.9931 51.8619 76.8519 51.5795 76.7107ZM43.4954 70.9212C43.213 70.8153 42.9306 70.6741 42.6128 70.6388C42.86 70.8506 43.1424 70.9918 43.3895 71.133C43.6719 71.2742 43.9543 71.3801 44.272 71.4154C44.0249 71.2036 43.7778 71.0624 43.4954 70.9212ZM34.917 81.8647C34.8111 81.5823 34.6699 81.2999 34.4934 81.0528C34.5287 81.3705 34.5993 81.6882 34.7052 81.9707C34.8111 82.2531 34.9523 82.5355 35.1289 82.7826C35.0936 82.4296 35.023 82.1472 34.917 81.8647ZM46.4254 60.6484C46.3195 60.366 46.1783 60.0835 46.0018 59.8364C46.0018 60.1541 46.1077 60.4719 46.2136 60.7543C46.3195 61.0367 46.4607 61.3191 46.6372 61.5662C46.6372 61.2485 46.5313 60.9308 46.4254 60.6484ZM49.8144 71.1683C49.7085 70.8859 49.5673 70.6035 49.3908 70.3564C49.4261 70.6741 49.4967 70.9918 49.6026 71.2742C49.7085 71.5566 49.8497 71.839 50.0262 72.0862C49.9909 71.7684 49.9203 71.486 49.8144 71.1683ZM42.1539 85.1831C42.048 84.9007 41.9068 84.6183 41.7303 84.3712C41.7303 84.6889 41.8362 85.0066 41.9421 85.289C41.9774 85.3949 42.048 85.5361 42.1186 85.642C42.1892 85.642 42.2598 85.6773 42.3304 85.6773C42.2951 85.5008 42.2245 85.3243 42.1539 85.1831ZM48.0493 79.3936C47.9434 79.1112 47.8022 78.8288 47.6257 78.5817C47.6257 78.8994 47.7316 79.2171 47.8375 79.4995C47.9434 79.7819 48.0846 80.0644 48.2611 80.3468C48.2611 79.9938 48.1552 79.676 48.0493 79.3936ZM40.2476 74.6279C40.1417 74.3455 40.0005 74.0631 39.824 73.8159C39.824 74.1337 39.9299 74.4514 40.0358 74.7338C40.1417 75.0162 40.2829 75.2986 40.4594 75.5457C40.4241 75.228 40.3535 74.9103 40.2476 74.6279ZM34.1404 75.7222C34.1051 75.8281 34.0698 75.934 33.9992 76.0047C34.0345 76.0047 34.0698 75.9693 34.0698 75.9693C34.3522 75.8634 34.6346 75.7222 34.8817 75.5457C34.6346 75.581 34.3875 75.6163 34.1404 75.7222ZM40.0711 81.1587C39.7887 81.2646 39.5063 81.4058 39.2239 81.5823C39.5416 81.547 39.8593 81.4764 40.1417 81.3705C40.4241 81.2646 40.7065 81.1234 40.9537 80.9469C40.6712 80.9469 40.3888 81.0528 40.0711 81.1587ZM39.8946 67.8146C39.6122 67.9205 39.3298 68.0617 39.0827 68.2383C39.4004 68.203 39.7181 68.1323 40.0005 68.0264C40.2829 67.9205 40.5653 67.7793 40.8124 67.6028C40.4947 67.6381 40.2123 67.744 39.8946 67.8146ZM50.6617 82.8885C50.3792 82.9944 50.0968 83.1356 49.8497 83.3121C50.1674 83.2768 50.4851 83.2062 50.7676 83.1003C51.05 82.9944 51.3324 82.8532 51.5795 82.6767C51.2618 82.712 50.9441 82.8179 50.6617 82.8885ZM47.0609 74.5926C46.7785 74.6985 46.496 74.8397 46.2489 75.0162C46.5666 75.0162 46.8844 74.9103 47.1668 74.8044C47.4492 74.6985 47.7316 74.5573 47.9787 74.3808C47.6257 74.4161 47.3433 74.4867 47.0609 74.5926ZM50.4498 63.4372C50.1674 63.5431 49.885 63.6843 49.6379 63.8608C49.9556 63.8255 50.2733 63.7549 50.5557 63.649C50.8382 63.5431 51.1206 63.4019 51.3677 63.2254C51.05 63.2607 50.7676 63.3313 50.4498 63.4372Z"
        fill="black"></path>
    <path
        d="M48.6851 65.0605C51.3327 70.0733 56.6986 79.1812 60.6877 79.8873C64.8886 80.6286 70.9605 76.5689 73.5023 75.4039C74.5966 74.9097 69.5132 67.8493 68.2776 68.0964C67.042 68.3436 63.0882 71.0618 62.1351 71.0618C61.1819 71.0618 55.8161 65.237 52.0035 62.0598C47.4848 58.3178 46.5317 61.0008 48.6851 65.0605Z"
        fill="#BE7A3B"></path>
    <path
        d="M74.1722 61.4243C75.0901 61.7067 75.1254 62.6952 75.1254 62.6952C75.1254 62.6952 75.8667 62.4834 76.5374 62.8011C77.3141 63.1894 77.0317 64.5662 77.0317 64.5662C77.0317 64.5662 77.8436 64.4956 78.479 64.9192C79.1851 65.3781 79.0792 66.7902 79.0792 66.7902C79.0792 66.7902 79.8558 67.1432 80.1735 67.9199C80.703 69.2613 79.3969 71.0264 78.5496 72.1561C77.7377 73.2857 73.325 75.7569 72.6895 75.7569L66.5117 69.579C66.5117 69.579 67.5002 66.1548 69.8301 63.7189C70.7832 62.7305 73.1132 61.1066 74.1722 61.4243Z"
        fill="#BE7A3B"></path>
    <path
        d="M74.9502 62.6955C73.644 63.5074 72.6909 64.6724 71.6318 65.7667C71.5965 65.802 71.6318 65.8373 71.6671 65.802C72.6909 64.7077 73.9264 63.8251 74.9855 62.7661C75.0208 62.6955 74.9855 62.6602 74.9502 62.6955Z"
        fill="#021217"></path>
    <path
        d="M76.8914 64.5316C76.6089 64.7081 76.3971 65.0258 76.15 65.2729C75.9029 65.5553 75.6911 65.8378 75.444 66.1202C74.9851 66.685 74.5261 67.2851 74.1025 67.8853C74.0672 67.9206 74.1025 67.9559 74.1378 67.9206C74.5967 67.3557 75.0557 66.7909 75.5499 66.2261C75.797 65.9437 76.0441 65.6613 76.2912 65.4141C76.5383 65.167 76.7854 64.9199 76.962 64.6022C76.9973 64.5669 76.9267 64.4963 76.8914 64.5316Z"
        fill="#021217"></path>
    <path
        d="M79.0466 66.8262C78.7995 66.9674 78.5877 67.2851 78.4112 67.5322C78.1993 67.8146 77.9875 68.0617 77.7757 68.3442C77.3521 68.8737 76.9285 69.4032 76.5049 69.9327C76.4696 69.968 76.5049 70.0033 76.5402 69.968C76.9991 69.4385 77.4227 68.9443 77.8816 68.4148C78.0934 68.1676 78.3052 67.8852 78.5171 67.6381C78.7289 67.391 78.976 67.1086 79.0466 66.8262C79.0819 66.8262 79.0466 66.8262 79.0466 66.8262Z"
        fill="#021217"></path>
    <path
        d="M66.3355 68.6265L71.2071 77.8049C71.2071 77.8049 63.2289 81.7587 59.2751 79.8524C55.3213 77.9461 49.7789 68.5206 48.0844 64.2843C46.3546 60.0481 48.2962 58.6714 51.8617 61.672C55.3919 64.6727 61.6403 70.4269 61.8874 70.5681C62.1345 70.7446 66.3355 68.6265 66.3355 68.6265Z"
        fill="#F28123"></path>
    <path opacity="0.1"
        d="M50.4506 63.4369C50.1682 63.5428 49.8858 63.684 49.6387 63.8605C49.9564 63.8252 50.2741 63.7546 50.5565 63.6487C50.8389 63.5428 51.1213 63.4016 51.3685 63.2251C51.0507 63.2604 50.7683 63.331 50.4506 63.4369ZM61.7825 76.5692C61.5001 76.6751 61.2177 76.8163 60.9706 76.9928C61.2883 76.9928 61.606 76.8869 61.8884 76.781C62.1708 76.6751 62.4532 76.5339 62.7003 76.3574C62.3826 76.3927 62.0649 76.4633 61.7825 76.5692ZM66.8307 69.5441C66.6894 69.5794 66.5835 69.6147 66.4776 69.65C66.1952 69.7559 65.9128 69.8971 65.6657 70.0736C65.9834 70.0383 66.3011 69.9677 66.5835 69.8618C66.7247 69.8265 66.8307 69.7559 66.9719 69.6853L66.8307 69.5441ZM57.4051 69.8971C57.2992 69.6147 57.158 69.3323 56.9814 69.0499C57.0168 69.3676 57.0874 69.6853 57.1933 69.9677C57.2992 70.2502 57.4404 70.5326 57.6169 70.7797C57.6169 70.4973 57.511 70.2149 57.4051 69.8971ZM58.923 79.3933C58.8171 79.1109 58.6759 78.8285 58.4994 78.5814C58.5347 78.8991 58.6053 79.2168 58.7112 79.4992C58.7112 79.5345 58.7465 79.5698 58.7818 79.6404C58.8877 79.711 58.9936 79.7463 59.0643 79.8169C58.9936 79.6404 58.9584 79.4992 58.923 79.3933ZM65.6304 73.9568C65.5245 73.6744 65.3833 73.392 65.2068 73.1449C65.2421 73.4626 65.3127 73.7803 65.4186 74.0628C65.5245 74.3452 65.6657 74.6276 65.8422 74.8747C65.8069 74.5217 65.7363 74.2393 65.6304 73.9568ZM57.1227 74.9453C56.8402 74.8041 56.5578 74.6982 56.2401 74.6629C56.4872 74.8747 56.7696 75.0159 57.0168 75.1571C57.2992 75.2983 57.5816 75.4042 57.8993 75.4395C57.6875 75.2277 57.4051 75.0865 57.1227 74.9453ZM70.5373 76.5339C70.3961 76.4633 70.2902 76.3927 70.149 76.3221C69.8666 76.1809 69.5842 76.075 69.2665 76.0397C69.5136 76.2515 69.796 76.3927 70.0431 76.5339C70.2549 76.6045 70.4314 76.7104 70.6432 76.7457L70.5373 76.5339ZM52.4981 67.8496C52.2157 67.7084 51.9333 67.6025 51.6156 67.5672C51.8627 67.779 52.1098 67.9202 52.3922 68.0614C52.6746 68.2027 52.957 68.3086 53.2748 68.3439C53.0276 68.0967 52.7805 67.9555 52.4981 67.8496ZM53.7337 72.8272C53.5925 73.1096 53.4866 73.392 53.4513 73.7097C53.6631 73.4626 53.8043 73.2155 53.9455 72.9331C54.0514 72.6507 54.1926 72.3683 54.2279 72.0506C54.0161 72.2624 53.8749 72.5448 53.7337 72.8272ZM61.7472 72.4742C61.606 72.7566 61.5001 73.039 61.4648 73.3567C61.6766 73.1096 61.8178 72.8625 61.959 72.5801C62.0649 72.2977 62.2061 72.0152 62.2414 71.6975C62.0296 71.9446 61.8884 72.1918 61.7472 72.4742ZM65.0656 78.652C64.9597 78.9344 64.8184 79.2168 64.7831 79.5345C64.995 79.2874 65.1362 79.0403 65.2774 78.7579C65.4186 78.4755 65.5245 78.1931 65.5598 77.8753C65.348 78.0872 65.2068 78.3696 65.0656 78.652Z"
        fill="black"></path>
    <path
        d="M66.7236 73.9215C66.4059 73.2508 66.0528 72.6154 65.6998 71.9447C65.5233 71.6269 65.3821 71.3092 65.2056 70.9915C65.0291 70.6738 64.8526 70.2855 64.6408 69.9677C64.6408 69.9324 64.6055 69.9677 64.6055 70.0031C64.7467 70.3561 64.9232 70.7091 65.0644 71.0621C65.2056 71.3798 65.3468 71.6975 65.5233 72.0153C65.841 72.686 66.1587 73.3567 66.4765 74.0275C67.1472 75.3689 67.8179 76.6398 68.524 77.946C68.524 77.9813 68.5946 77.946 68.5593 77.9107C67.9944 76.6045 67.3943 75.263 66.7236 73.9215Z"
        fill="#021217"></path>
    <path
        d="M52.8854 73.0746C52.4265 72.298 50.6967 69.2267 50.379 68.6619C49.7435 67.4969 49.1434 66.332 48.508 65.167H48.4727C48.7551 65.9083 49.0728 66.6144 49.4258 67.3557C49.3905 67.3204 49.3552 67.2498 49.3199 67.2145C49.1081 66.9321 48.8963 66.685 48.6845 66.4026C48.6845 66.4026 48.6492 66.4026 48.6492 66.4379C48.8257 66.7203 49.0375 67.0027 49.214 67.2851C49.3552 67.4616 49.4611 67.6381 49.6023 67.8146C49.7435 68.1323 49.92 68.4148 50.0612 68.7325C50.379 69.3326 52.0734 72.4039 52.7442 73.0746C52.8854 73.1452 52.9207 73.1099 52.8854 73.0746Z"
        fill="#021217"></path>
    <path
        d="M57.8652 55.3878C59.2773 55.1407 61.2189 54.0817 62.278 54.2229C63.2311 54.3641 63.337 55.2113 63.337 55.2113C63.337 55.2113 64.1137 54.3288 65.0668 54.6465C65.561 54.7877 65.7022 55.7055 65.7022 55.7055C65.7022 55.7055 66.373 55.0348 67.1849 55.3525C67.8203 55.5996 67.9262 56.4822 67.9262 56.4822C67.9262 56.4822 68.8794 56.1292 69.4442 56.5881C70.6092 57.5412 69.0206 63.2954 66.6554 63.6131C65.561 63.7543 66.02 62.3776 66.02 62.3776C66.02 62.3776 64.8903 64.2133 63.69 63.8956C62.4898 63.6131 63.1958 61.8481 63.1958 61.8481C63.1958 61.8481 62.0661 63.6131 60.8659 63.1895C59.595 62.7306 60.6188 61.1067 60.6188 61.1067C60.6188 61.1067 59.3832 62.1305 58.536 61.6009C57.1239 60.7184 59.7362 58.8121 59.7715 57.4706L57.8652 56.1998V55.3878Z"
        fill="#BE7A3B"></path>
    <path
        d="M60.0187 54.7526C58.6773 54.8585 57.5476 52.9169 56.2414 52.8463C54.4763 52.7404 55.606 55.0703 57.9006 56.1646L59.8422 56.6942L60.0187 54.7526Z"
        fill="#BE7A3B"></path>
    <path
        d="M67.9589 56.6232C67.9589 56.5879 67.9942 56.5879 67.9589 56.6232C67.9236 58.6354 67.2529 60.8594 66.0173 62.448C65.982 62.4833 65.8761 62.448 65.9114 62.3774C66.8646 60.4711 67.5706 58.706 67.9589 56.6232Z"
        fill="#021217"></path>
    <path
        d="M65.7352 55.7051C65.7352 55.6698 65.7705 55.7051 65.7705 55.7051C65.6999 57.7879 64.8527 60.2238 63.2288 61.9183C63.1582 61.9889 63.0523 61.9889 63.1229 61.883C64.1466 60.718 65.3822 57.5761 65.7352 55.7051Z"
        fill="#021217"></path>
    <path
        d="M60.4756 61.1771C61.9935 59.4826 62.8055 57.5057 63.3703 55.317C63.3703 55.2817 63.4056 55.317 63.4056 55.317C63.4409 56.4466 62.9114 57.7881 62.4525 58.8118C61.9935 59.8003 61.3934 60.5769 60.5109 61.2124C60.4756 61.2477 60.4403 61.2124 60.4756 61.1771Z"
        fill="#021217"></path>
    <path
        d="M49.5322 59.9774C48.0495 58.6359 43.4956 57.0826 41.3069 57.8593C38.5534 58.8477 34.07 67.532 34.882 68.3086C36.3646 69.7207 43.6721 65.8375 45.5078 63.9665C47.3788 62.1308 49.5322 59.9774 49.5322 59.9774Z"
        fill="#F28123"></path>
    <path opacity="0.1"
        d="M42.7886 57.6831C42.6474 57.7537 42.5062 57.8243 42.4003 57.9302C42.718 57.8949 43.0358 57.8243 43.3182 57.7184H43.3535C43.1417 57.6831 42.9652 57.6831 42.7886 57.6831ZM39.4703 59.8012C39.435 59.6953 39.3997 59.5894 39.3291 59.4835C39.2585 59.5541 39.2232 59.6247 39.1526 59.66C39.1879 59.7306 39.1879 59.8012 39.2232 59.8718C39.3291 60.1542 39.4703 60.4366 39.6468 60.6838C39.6468 60.366 39.5762 60.0836 39.4703 59.8012ZM46.4247 60.6485C46.3188 60.366 46.1776 60.0836 46.0011 59.8365C46.0011 60.1542 46.107 60.472 46.2129 60.7544C46.3188 61.0368 46.46 61.3192 46.6365 61.5663C46.6365 61.2486 46.5306 60.9309 46.4247 60.6485ZM37.1404 64.6023C36.8579 64.4611 36.5755 64.3551 36.2578 64.3198C36.5049 64.5317 36.7873 64.6729 37.0345 64.8141C37.3169 64.9553 37.5993 65.0612 37.917 65.0965C37.7052 64.8847 37.4228 64.7082 37.1404 64.6023ZM41.6237 62.7666C41.4825 63.049 41.3766 63.3314 41.3413 63.6491C41.5531 63.402 41.6943 63.1196 41.8355 62.8725C41.9767 62.5901 42.0826 62.3076 42.1179 61.9899C41.9061 62.2017 41.7649 62.4842 41.6237 62.7666Z"
        fill="black"></path>
    <path
        d="M47.6615 62.4486C47.2732 62.6957 46.8849 62.9428 46.4966 63.1899C47.0614 62.6604 47.6262 62.1309 48.1558 61.5661C48.1911 61.5308 48.1558 61.5308 48.1205 61.5308C47.4144 62.025 46.779 62.6604 46.1436 63.2252C45.4728 63.8254 44.8021 64.3902 44.0961 64.955C43.39 65.5199 42.684 66.0494 41.9073 66.473C41.0954 66.9319 40.2482 67.3203 39.3656 67.6733C38.8714 67.8498 38.3772 68.0616 37.8829 68.2381C37.3534 68.4146 36.6121 68.6264 36.2591 68.6617C36.1532 68.6617 36.2238 68.7323 36.2591 68.7323C36.718 68.697 37.2122 68.5911 37.6358 68.4499C38.0948 68.3087 38.589 68.1675 39.0479 68.0263C39.9304 67.7439 40.813 67.4615 41.6602 67.0378C43.3194 66.2259 44.6609 65.0256 45.9671 63.7548C46.0024 63.7195 46.0024 63.7195 46.0377 63.6842C46.2495 63.543 46.4966 63.3665 46.7084 63.2252C47.0261 62.9781 47.3438 62.7663 47.6968 62.5545C47.6968 62.4839 47.6615 62.4133 47.6615 62.4486Z"
        fill="#021217"></path>
    <path
        d="M151.343 123.945C151.343 123.945 152.896 129.134 154.732 134.429C156.567 139.725 158.226 151.904 157.873 152.222C157.52 152.539 153.425 140.713 152.26 135.312C151.06 129.911 150.213 124.368 150.213 124.368L151.343 123.945Z"
        fill="#F28123"></path>
    <path d="M151.378 123.804L152.614 127.334L150.637 127.828L150.072 124.192L151.378 123.804Z" fill="#DBDBDB"></path>
    <path
        d="M151.381 123.804C151.593 123.063 151.628 122.18 150.922 121.156C150.075 119.921 150.322 118.968 150.322 118.968C150.322 118.968 148.098 121.792 150.075 124.157L151.381 123.804Z"
        fill="#021217"></path>
    <path
        d="M150.32 118.862C150.426 119.038 150.215 119.921 150.603 120.627C150.991 121.297 148.979 122.356 149.156 121.333C149.367 120.097 150.109 118.509 150.32 118.862Z"
        fill="#F28123"></path>
    <path
        d="M161.05 126.98C161.05 126.98 159.532 131.181 157.802 135.453C156.037 139.724 154.166 149.68 154.448 149.962C154.731 150.244 158.614 140.678 159.814 136.3C161.015 131.887 161.968 127.369 161.968 127.369L161.05 126.98Z"
        fill="#A6A6A6"></path>
    <path d="M161.015 126.875L159.85 129.734L161.438 130.193L162.074 127.228L161.015 126.875Z" fill="#DBDBDB"></path>
    <path
        d="M161.012 126.874C161.188 124.544 163.024 122.638 163.024 122.638C163.024 122.638 163.765 125.392 162.071 127.263L161.012 126.874Z"
        fill="#021217"></path>
    <path
        d="M156.393 121.473C156.393 121.473 156.993 125.886 157.805 130.44C158.617 134.994 158.37 145.09 158.052 145.302C157.734 145.514 155.934 135.347 155.651 130.793C155.404 126.239 155.404 121.614 155.404 121.614L156.393 121.473Z"
        fill="#021217"></path>
    <path d="M156.462 121.368L156.991 124.404L155.332 124.545V121.509L156.462 121.368Z" fill="#DBDBDB"></path>
    <path
        d="M155.333 121.509C155.333 121.509 156.392 121.403 156.463 121.367C156.533 121.332 157.31 118.296 157.239 118.226C157.169 118.155 153.674 118.649 153.674 118.967C153.709 119.285 155.333 121.509 155.333 121.509Z"
        fill="#021217"></path>
    <path
        d="M160.275 153.81H150.991C150.144 153.81 149.438 153.104 149.438 152.257V139.76C149.438 138.913 150.144 138.207 150.991 138.207H160.275C161.122 138.207 161.828 138.913 161.828 139.76V152.257C161.828 153.104 161.158 153.81 160.275 153.81Z"
        fill="#455A64"></path>
    <path d="M160.276 135.771H151.027V138.242H160.276V135.771Z" fill="#455A64"></path>
    <path
        d="M151.591 138.171C153.744 138.065 159.004 138.065 159.71 138.171V138.206C159.004 138.312 154.097 138.488 151.591 138.206C151.556 138.206 151.556 138.171 151.591 138.171Z"
        fill="#263238"></path>
</svg>