<svg xmlns="http://www.w3.org/2000/svg" width="226" height="165" viewBox="0 0 226 165" fill="none" class="injected-svg" data-src="/icons/stat_0.svg" xmlns:xlink="http://www.w3.org/1999/xlink">
<path d="M172.801 21.6255H51.4746V138.418H172.801V21.6255Z" fill="#0F7174"></path>
<path d="M30.9706 62.4689C37.069 66.7217 43.0871 69.5703 46.2968 67.8451C46.4974 67.7247 46.6579 67.6044 46.8184 67.484C48.6639 66.0397 49.3059 62.6294 48.0621 56.4507C44.8123 40.0813 34.5012 37.4735 24.8722 32.4984C15.3635 27.6438 18.9744 17.2524 19.0947 17.0117C5.93502 40.3221 20.6193 55.2471 30.9706 62.4689Z" fill="url(#paint0_linear_1206_2451-158)"></path>
<path d="M46.3398 67.8457C46.5404 67.7254 46.7009 67.605 46.8614 67.4846C45.6578 64.2749 42.9696 58.1364 39.3186 54.7663C37.5934 53.2015 35.5874 51.7572 33.4609 50.2727C29.4488 47.4241 25.3164 44.4551 22.5079 40.1221L21.9863 40.443C24.875 44.8965 29.0476 47.8654 33.0999 50.7541C35.1862 52.2386 37.1922 53.683 38.8773 55.2076C42.4481 58.4975 45.1362 64.7564 46.3398 67.8457Z" fill="#0B9619"></path>
<path d="M13.0399 79.2402C21.4653 80.6043 26.9218 73.9442 36.6311 86.2213C45.0164 96.8132 56.8922 85.0979 59.9414 81.6876C60.4229 81.166 60.7037 80.8049 60.7037 80.8049C60.7037 80.8049 60.5031 80.8451 60.1821 80.9253C58.0958 81.3666 50.1118 82.6906 48.2261 76.5922C46.0595 69.571 39.8408 60.0624 31.6561 62.59C23.4714 65.1176 21.7061 58.939 15.6478 54.2849C9.62962 49.7111 0.201172 58.2569 0.201172 58.2569C0.201172 58.2569 4.61449 77.8761 13.0399 79.2402Z" fill="url(#paint1_linear_1206_2451-159)"></path>
<path d="M39.4774 76.9538C41.0822 79.7222 42.7272 82.6109 46.4986 84.2157C51.6341 86.3823 56.8498 83.8547 59.9793 81.7684C60.4607 81.2468 60.7416 80.8857 60.7416 80.8857C60.7416 80.8857 60.541 80.9258 60.22 81.0061C57.2911 83.0924 51.9149 85.9811 46.6992 83.7744C43.0883 82.2498 41.4834 79.4413 39.9187 76.7131C38.1133 73.5837 36.2276 70.3339 31.3328 69.2105C29.1663 68.729 27.2405 68.8895 25.3548 69.0099C22.6667 69.2506 20.139 69.4512 17.3707 67.5254L17.0898 67.9266C20.0187 69.9327 22.6266 69.732 25.3949 69.4913C27.2405 69.3308 29.1262 69.1704 31.2125 69.6518C35.9066 70.7351 37.6318 73.7442 39.4774 76.9538Z" fill="#0B9619"></path>
<path d="M170.273 40.0008C171.196 56.6912 184.396 55.8487 185.439 55.7684C185.479 55.7684 185.519 55.7684 185.519 55.7684C185.238 55.4474 184.957 55.0864 184.717 54.7654C178.097 45.5777 185.639 33.0198 185.519 23.7919C185.399 14.203 176.853 12.1167 176.853 12.1167C183.112 17.3726 169.31 22.6685 170.273 40.0008Z" fill="url(#paint2_linear_1206_2451-160)"></path>
<path d="M178.015 48.4259C179.82 51.6356 182.628 54.0428 185.437 55.768C185.477 55.768 185.517 55.768 185.517 55.768C185.236 55.4471 184.955 55.086 184.715 54.765C182.308 53.12 179.98 50.9535 178.416 48.2253C176.41 44.6946 176.089 40.7628 177.413 36.5902C181.585 23.3502 179.218 21.2238 179.138 21.1436L178.977 21.3442L178.817 21.5046C178.937 21.625 180.903 23.9921 176.971 36.4698C175.607 40.7226 175.928 44.7347 178.015 48.4259Z" fill="#0B9619"></path>
<path d="M196.914 56.6914C191.658 63.191 186.081 68.1259 182.069 67.2432C181.828 67.2031 181.587 67.1229 181.387 67.0426C178.939 66.0396 177.214 62.5892 176.612 55.568C175.048 36.9117 185.319 30.8936 194.185 22.5885C202.932 14.4038 199.963 4.37354 199.762 4.13281C221.147 25.076 205.82 45.6982 196.914 56.6914Z" fill="url(#paint3_linear_1206_2451-161)"></path>
<path d="M182.069 67.2034C181.828 67.1633 181.587 67.0831 181.387 67.0028C181.708 63.1913 182.671 55.7288 185.559 50.9945C186.923 48.7478 188.649 46.6213 190.454 44.3344C193.864 40.0415 197.435 35.5479 199.08 30.0112L199.762 30.2118C198.077 35.909 194.466 40.4026 191.016 44.7758C189.21 47.0226 187.525 49.1891 186.161 51.3556C183.353 55.9696 182.39 63.5123 182.069 67.2034Z" fill="#0B9619"></path>
<path d="M181.229 133.384H43.0521C38.9952 133.384 35.7285 130.117 35.7285 126.061V46.2196C35.7285 42.1627 38.9952 38.896 43.0521 38.896H181.229C185.286 38.896 188.553 42.1627 188.553 46.2196V126.061C188.553 130.117 185.286 133.384 181.229 133.384Z" fill="white" stroke="#0F7174"></path>
<path d="M162.772 71.296C155.791 71.296 150.094 65.5988 150.094 58.6177C150.094 51.6366 155.791 45.9395 162.772 45.9395C169.753 45.9395 175.45 51.6366 175.45 58.6177C175.41 65.6389 169.753 71.296 162.772 71.296ZM162.772 47.8251C156.834 47.8251 151.979 52.6798 151.979 58.6177C151.979 64.5556 156.834 69.4103 162.772 69.4103C168.71 69.4103 173.565 64.5556 173.565 58.6177C173.565 52.6798 168.71 47.8251 162.772 47.8251Z" fill="#F28123"></path>
<path d="M52.4407 112.058C51.7587 112.058 51.1168 111.937 50.5149 111.696C49.9131 111.456 49.3915 111.135 48.9502 110.734C48.5089 110.332 48.1478 109.851 47.9071 109.289C47.6663 108.728 47.5059 108.166 47.5059 107.524C47.5059 106.922 47.6262 106.32 47.9071 105.759C48.1478 105.197 48.5089 104.715 48.9502 104.314C49.3915 103.913 49.9131 103.592 50.5149 103.351C51.1168 103.111 51.7587 102.99 52.4407 102.99C53.1228 102.99 53.7647 103.111 54.3666 103.351C54.9684 103.592 55.4899 103.913 55.9313 104.314C56.3726 104.715 56.7337 105.197 56.9744 105.759C57.2152 106.32 57.3756 106.882 57.3756 107.524C57.3756 108.166 57.2553 108.768 56.9744 109.289C56.7337 109.851 56.3726 110.292 55.9313 110.734C55.4899 111.135 54.9684 111.456 54.3666 111.696C53.7647 111.937 53.1228 112.058 52.4407 112.058ZM49.1909 123.091L57.5762 113.301L65.3196 103.111L67.1251 104.715L58.9805 114.344L50.9563 124.696L49.1909 123.091ZM52.4407 110.052C52.7216 110.052 53.0024 109.971 53.2432 109.851C53.4839 109.731 53.7246 109.53 53.9252 109.289C54.1258 109.049 54.2863 108.808 54.4067 108.487C54.527 108.166 54.5672 107.845 54.5672 107.524C54.5672 106.842 54.3666 106.24 53.9252 105.759C53.524 105.277 53.0024 105.036 52.4407 105.036C52.1599 105.036 51.8791 105.117 51.6383 105.237C51.3976 105.357 51.1569 105.558 50.9563 105.799C50.7557 106.039 50.5952 106.28 50.4748 106.601C50.3545 106.882 50.3143 107.203 50.3143 107.564C50.3143 108.246 50.5149 108.848 50.9563 109.369C51.3575 109.811 51.8791 110.052 52.4407 110.052ZM63.9555 124.776C63.2734 124.776 62.6315 124.656 62.0297 124.415C61.4279 124.174 60.9063 123.853 60.465 123.452C60.0236 123.051 59.6625 122.569 59.4218 122.048C59.1811 121.486 59.0206 120.924 59.0206 120.282C59.0206 119.64 59.141 119.039 59.4218 118.517C59.6625 117.955 60.0236 117.514 60.465 117.073C60.9063 116.672 61.4279 116.351 62.0297 116.11C62.6315 115.869 63.2734 115.749 63.9555 115.749C64.6375 115.749 65.2795 115.869 65.8813 116.11C66.4831 116.351 67.0047 116.672 67.446 117.073C67.8874 117.474 68.2484 117.955 68.4892 118.517C68.7299 119.079 68.8503 119.64 68.8503 120.282C68.8503 120.924 68.7299 121.526 68.4892 122.048C68.2484 122.609 67.8874 123.051 67.446 123.452C67.0047 123.853 66.4831 124.174 65.8813 124.415C65.2795 124.656 64.6375 124.776 63.9555 124.776ZM63.9555 122.77C64.2363 122.77 64.5172 122.69 64.7579 122.569C64.9986 122.449 65.2394 122.248 65.44 122.008C65.6406 121.767 65.8011 121.526 65.9214 121.205C66.0418 120.924 66.0819 120.603 66.0819 120.242C66.0819 119.881 66.0418 119.56 65.9214 119.239C65.8011 118.918 65.6406 118.678 65.44 118.437C65.2394 118.196 65.0388 118.036 64.7579 117.915C64.5172 117.795 64.2363 117.715 63.9555 117.715C63.6746 117.715 63.3938 117.795 63.1531 117.915C62.9123 118.036 62.6716 118.236 62.471 118.477C62.2704 118.718 62.1099 118.958 61.9896 119.279C61.8692 119.6 61.8291 119.921 61.8291 120.242C61.8291 120.924 62.0297 121.526 62.471 122.008C62.8722 122.529 63.3537 122.77 63.9555 122.77Z" fill="#0F7174"></path>
<path d="M125.821 50.7529H44.2148V56.6106H125.821V50.7529Z" fill="#F28123"></path>
<path d="M125.821 45.9795H44.2148V47.5041H125.821V45.9795Z" fill="#F28123"></path>
<path d="M85.9407 59.8604H44.2148V65.718H85.9407V59.8604Z" fill="#F28123"></path>
<path opacity="0.2" d="M138.096 142.55H86.1792C82.8893 142.55 80.2012 139.862 80.2012 136.572V68.7276C80.2012 65.4376 82.8893 62.7495 86.1792 62.7495H138.096C141.386 62.7495 144.074 65.4376 144.074 68.7276V136.572C144.074 139.902 141.386 142.55 138.096 142.55Z" fill="#0F7174"></path>
<path d="M128.31 128.789C124.419 128.789 121.289 125.619 121.289 121.768C121.289 117.876 124.459 114.747 128.31 114.747C132.202 114.747 135.331 117.916 135.331 121.768C135.331 125.619 132.162 128.789 128.31 128.789ZM128.31 116.071C125.181 116.071 122.653 118.598 122.653 121.728C122.653 124.857 125.181 127.385 128.31 127.385C131.44 127.385 133.967 124.857 133.967 121.728C133.967 118.598 131.44 116.071 128.31 116.071Z" fill="#F28123"></path>
<path d="M127.864 124.496L124.654 121.327L125.617 120.364L127.864 122.57L130.993 119.441L131.956 120.404L127.864 124.496Z" fill="#F28123"></path>
<path d="M149.896 118.639H147.85V128.068H149.896V118.639Z" fill="#FF7759"></path>
<path d="M151.862 118.639H150.859V128.068H151.862V118.639Z" fill="#FF7759"></path>
<path d="M154.709 118.639H152.863V128.068H154.709V118.639Z" fill="#FF7759"></path>
<path d="M156.877 118.639H155.754V128.068H156.877V118.639Z" fill="#FF7759"></path>
<path d="M158.16 118.68H157.639V128.108H158.16V118.68Z" fill="#FF7759"></path>
<path d="M160.689 118.639H158.924V128.068H160.689V118.639Z" fill="#F28123"></path>
<path d="M162.776 118.639H161.412V128.068H162.776V118.639Z" fill="#F28123"></path>
<path d="M164.102 118.639H163.42V128.068H164.102V118.639Z" fill="#F28123"></path>
<path d="M166.785 118.639H164.859V128.068H166.785V118.639Z" fill="#F28123"></path>
<path d="M168.714 118.639H167.27V128.068H168.714V118.639Z" fill="#F28123"></path>
<path d="M170.039 118.639H169.316V128.068H170.039V118.639Z" fill="#F28123"></path>
<path d="M171.599 118.639H170.596V128.068H171.599V118.639Z" fill="#F28123"></path>
<path d="M175.415 118.68H172.285V128.108H175.415V118.68Z" fill="#F28123"></path>
<path d="M47.7871 14.123V31.4152C47.7871 31.4152 51.2375 36.31 55.37 31.4152H62.9529C62.9529 31.4152 66.4033 36.31 70.5358 31.4152H78.1186C78.1186 31.4152 81.569 36.31 85.7015 31.4152H93.2844C93.2844 31.4152 96.7348 36.31 100.867 31.4152H108.45C108.45 31.4152 111.901 36.31 116.033 31.4152H123.616C123.616 31.4152 127.066 36.31 131.199 31.4152H138.621C138.621 31.4152 142.072 36.31 146.204 31.4152H153.787C153.787 31.4152 157.237 36.31 161.37 31.4152H168.953C168.953 31.4152 172.403 36.31 176.536 31.4152V14.123H47.7871Z" fill="#0F7174"></path>
<path d="M55.3691 31.4553C55.3691 31.4553 58.8195 36.3501 62.952 31.4553V14.123H55.3691V31.4553Z" fill="#38D2E0"></path>
<path d="M70.4961 31.4553C70.4961 31.4553 73.9465 36.3501 78.079 31.4553V14.123H70.4961V31.4553Z" fill="#38D2E0"></path>
<path d="M85.6602 31.4553C85.6602 31.4553 89.1106 36.3501 93.243 31.4553V14.123H85.6602V31.4553Z" fill="#38D2E0"></path>
<path d="M100.785 31.4553C100.785 31.4553 104.236 36.3501 108.368 31.4553V14.123H100.785V31.4553Z" fill="#38D2E0"></path>
<path d="M115.912 31.4553C115.912 31.4553 119.363 36.3501 123.495 31.4553V14.123H115.912V31.4553Z" fill="#38D2E0"></path>
<path d="M131.037 31.4553C131.037 31.4553 134.488 36.3501 138.62 31.4553V14.123H131.037V31.4553Z" fill="#38D2E0"></path>
<path d="M146.203 31.4553C146.203 31.4553 149.654 36.3501 153.786 31.4553V14.123H146.203V31.4553Z" fill="#38D2E0"></path>
<path d="M161.33 14.123V31.4152C161.33 31.4152 164.78 36.31 168.913 31.4152V14.123H161.33Z" fill="#38D2E0"></path>
<path d="M124.056 74.6255L122.973 79.3197H95.6504V80.4029L99.5823 98.658V99.1796H101.829L102.391 101.547H103.193C102.431 101.828 101.869 102.55 101.869 103.432C101.869 104.516 102.752 105.438 103.875 105.438C104.958 105.438 105.881 104.556 105.881 103.432C105.881 102.59 105.32 101.828 104.557 101.547H115.791C115.029 101.828 114.467 102.55 114.467 103.432C114.467 104.516 115.35 105.438 116.473 105.438C117.556 105.438 118.479 104.556 118.479 103.432C118.479 102.59 117.918 101.828 117.155 101.547H118.038V100.704H103.033L102.672 99.1796H119.643V98.658L122.852 83.733L124.738 75.5082H136.213V74.6255H124.056ZM105.039 103.432C105.039 104.074 104.517 104.596 103.875 104.596C103.233 104.596 102.712 104.074 102.712 103.432C102.712 102.79 103.233 102.269 103.875 102.269C104.517 102.269 105.039 102.79 105.039 103.432ZM117.637 103.432C117.637 104.074 117.115 104.596 116.473 104.596C115.831 104.596 115.31 104.074 115.31 103.432C115.31 102.79 115.831 102.269 116.473 102.269C117.115 102.269 117.637 102.79 117.637 103.432ZM106.042 86.6618H113.183L112.822 91.8775H106.403L106.042 86.6618ZM105.48 91.8374H99.1008L97.9774 86.6217H105.119L105.48 91.8374ZM113.264 85.5785H105.962L105.6 80.3628H113.665L113.264 85.5785ZM114.588 80.4029H122.612L121.488 85.6187H114.186L114.588 80.4029ZM112.742 92.9207L112.381 98.1364H106.884L106.523 92.9207H112.742ZM113.665 92.9207H119.884L118.76 98.1364H113.264L113.665 92.9207ZM120.124 91.8374H113.745L114.106 86.6217H121.248L120.164 91.7171L120.124 91.8374ZM104.638 80.4029L104.999 85.6187H97.6966L96.5732 80.4029H104.638ZM99.3014 92.9207H105.52L105.881 98.1364H100.385L99.3014 92.9207Z" fill="#F28123"></path>
<path d="M115.349 133.483H108.93V134.285H115.349V133.483Z" fill="#F28123"></path>
<path d="M115.349 67.3242H108.93V68.1266H115.349V67.3242Z" fill="#F28123"></path>
<path d="M105.439 118.157H89.6309V120.284H105.439V118.157Z" fill="#F28123"></path>
<path d="M113.062 123.212H89.6309V125.338H113.062V123.212Z" fill="#F28123"></path>
<path d="M175.41 83.8535H150.855V91.9179H175.41V83.8535Z" fill="#F28123"></path>
<path d="M175.41 94.125H150.855V98.9395H175.41V94.125Z" fill="#F28123"></path>
<path d="M162.006 117.261C162.006 117.261 161.685 117.782 161.645 118.224C161.604 118.545 161.324 119.066 161.203 119.347C161.083 119.628 160.682 120.912 160.682 121.233C160.682 121.353 160.962 122.236 160.922 122.477C160.882 122.757 160.722 123.279 160.962 123.319C161.203 123.359 161.484 122.918 161.484 122.918C161.484 122.918 161.444 123.159 161.685 123.279C162.086 123.48 162.286 123.319 162.286 123.319C162.286 123.319 162.447 123.6 162.607 123.64C163.009 123.72 163.209 123.56 163.209 123.56C163.209 123.56 163.41 123.72 163.691 123.72C164.052 123.72 164.212 123.399 164.212 123.399C164.212 123.399 164.654 123.48 164.814 123.279C164.934 123.078 164.934 122.838 164.975 122.637C165.015 122.437 164.975 120.671 164.373 119.427C163.771 118.144 164.533 116.94 164.533 116.94L162.006 117.261Z" fill="#BE7A3B"></path>
<path d="M161.403 122.756C161.403 122.756 161.363 121.191 161.765 120.83C162.166 120.509 162.246 121.071 162.246 121.071C162.246 121.071 162.206 120.509 162.647 120.429C163.089 120.349 163.129 121.031 163.129 121.031C163.129 121.031 163.209 120.589 163.69 120.67C164.172 120.75 164.051 121.312 164.051 121.312C164.051 121.312 164.493 120.75 164.814 121.271C165.295 122.154 164.814 123.197 164.814 123.197C164.814 123.197 164.653 123.438 164.212 123.318C164.212 123.318 163.891 123.919 163.209 123.478C163.209 123.478 162.527 123.879 162.246 123.237C162.286 123.318 161.524 123.679 161.403 122.756Z" fill="#996C42"></path>
<path d="M156.629 94.5124C156.629 94.5124 159.317 103.54 160.24 106.83C160.52 107.873 161.203 117.823 161.323 118.224C161.443 118.625 164.894 119.187 164.894 119.187C164.894 119.187 164.492 106.749 164.452 106.067C164.412 105.385 160.681 91.4632 159.598 90.9818C158.795 90.6207 158.354 90.9015 157.311 91.6638C155.866 92.7471 156.629 94.5124 156.629 94.5124Z" fill="#021217"></path>
<path d="M158.832 156.017C158.832 156.017 159.073 157.742 159.113 157.983C159.153 158.224 161.841 157.823 161.841 157.823L162.042 155.776C162.042 155.816 159.153 155.776 158.832 156.017Z" fill="#424773"></path>
<path d="M159.079 157.782C159.079 157.782 158.236 158.826 157.394 159.267C156.551 159.708 155.267 159.909 154.786 160.35C154.425 160.671 153.502 162.116 156.952 162.116C160.403 162.075 162.048 162.316 162.449 161.754C162.81 161.193 161.927 157.662 161.927 157.662C161.927 157.662 161.045 157.983 159.079 157.782Z" fill="#292C47"></path>
<path d="M139.414 156.017C139.414 156.017 139.655 157.742 139.695 157.983C139.735 158.223 142.423 157.822 142.423 157.822L142.624 155.776C142.624 155.816 139.735 155.776 139.414 156.017Z" fill="#424773"></path>
<path d="M139.662 157.783C139.662 157.783 138.819 158.826 137.977 159.267C137.134 159.709 134.085 160.07 133.603 160.551C133.242 160.872 132.64 162.236 137.495 162.116C140.946 162.036 142.59 162.317 142.992 161.755C143.353 161.193 142.47 157.663 142.47 157.663C142.47 157.663 141.668 157.984 139.662 157.783Z" fill="#292C47"></path>
<path d="M156.59 112.085C156.59 112.085 159.117 116.138 158.957 119.789C158.756 123.44 159.88 127.452 160.281 131.263C160.722 135.516 162.448 145.627 162.528 147.873C162.608 150.16 162.247 157.422 162.247 157.422L158.756 157.502C158.756 157.502 155.828 139.889 155.065 138.084C154.303 136.278 150.532 123.44 150.411 122.035C150.251 120.591 156.59 112.085 156.59 112.085Z" fill="#021217"></path>
<path d="M143.186 112.607C143.186 112.607 141.261 122.637 141.02 124.884C140.779 127.131 140.579 135.717 140.458 137.121C140.338 138.525 139.255 155.376 138.934 157.502H143.387C143.387 157.502 146.797 145.225 146.797 139.408C146.797 133.59 149.445 126.77 151.171 122.918C152.896 119.066 156.787 118.986 157.831 111.885C157.871 111.885 144.591 110.36 143.186 112.607Z" fill="#021217"></path>
<path d="M152.336 78.0621C152.336 78.0621 148.925 76.7782 147.321 79.3861C145.756 81.994 145.876 87.2097 147.601 87.8516C149.327 88.4936 151.894 88.1726 152.777 86.5276C153.66 84.8827 154.462 82.5557 154.422 80.9909C154.422 79.3861 153.218 78.5034 152.336 78.0621Z" fill="#BE7A3B"></path>
<path d="M148.003 87.9323C148.003 87.9323 148.164 88.8551 147.923 89.2965C147.682 89.7378 152.336 89.7779 152.336 89.7779C152.336 89.7779 152.697 87.2904 153.42 85.2041C154.142 83.1579 148.003 87.9323 148.003 87.9323Z" fill="#BE7A3B"></path>
<path d="M153.422 85.2437C153.422 85.2437 153.101 85.7653 151.777 85.5647C150.453 85.3641 148.848 83.5987 148.326 83.3981C147.765 83.1975 147.765 82.8766 147.765 82.8766L147.404 83.358L146.802 83.3981C146.802 83.3981 147.323 81.8334 146.521 81.1915C145.719 80.5495 147.364 76.1362 151.576 77.6207C151.576 77.6207 154.826 78.5034 154.706 80.3489C154.625 82.2346 154.184 84.3209 153.422 85.2437Z" fill="black"></path>
<path d="M147.646 89.2563C147.646 89.2563 147.646 88.3737 148.048 88.2934C148.449 88.2132 152.381 87.812 152.862 88.0126V89.0156C152.862 89.0557 151.939 89.6174 147.646 89.2563Z" fill="#E2D2CA"></path>
<path d="M147.881 82.2362C147.962 81.9152 148.724 81.0326 149.045 81.9955C149.366 82.9584 148.603 84.2021 148.162 84.1219C147.721 83.9614 147.681 82.9985 147.881 82.2362Z" fill="#C88548"></path>
<path d="M131.954 99.5259C131.916 99.564 131.916 99.564 131.954 99.5259V99.5259Z" fill="#323657"></path>
<path d="M153.303 78.3428C153.303 78.3428 157.676 78.7039 153.423 85.2035L153.303 78.3428Z" fill="black"></path>
<path d="M123.61 79.6673C123.731 79.226 124.212 79.1056 124.212 79.1056C124.413 78.8247 124.894 78.6643 124.894 78.6643C124.894 78.6241 124.894 78.6241 124.934 78.6241C124.613 78.3032 123.731 77.6612 123.691 77.5409C123.61 77.3804 123.65 77.3804 123.811 77.3001C123.971 77.2199 125.416 78.1828 125.897 78.5038C126.018 78.584 126.098 78.6643 126.138 78.6643C126.258 78.7846 126.539 78.8649 126.78 79.1056C126.82 79.1457 126.82 79.1457 126.86 79.1858C127.101 79.5068 127.663 81.9943 127.663 81.9943L126.66 82.4356L125.657 83.2782C125.657 83.2782 124.493 82.3153 124.212 82.0344C123.931 81.7536 123.771 81.3925 123.691 81.232C123.691 81.1919 123.65 81.1518 123.61 81.0715C123.49 80.8709 123.289 80.6302 123.289 80.6302C123.209 80.4697 123.129 80.1487 123.129 80.1487C123.129 79.8679 123.61 79.6673 123.61 79.6673Z" fill="#BE7A3B"></path>
<path d="M141.103 90.5798C143.831 90.2187 147.643 89.2558 147.643 89.2558L152.899 89.0552C152.899 89.0552 157.713 90.0983 159.599 90.981C159.759 91.0613 159.759 95.274 160.281 96.3572L158.716 99.6873C158.716 99.6873 157.793 106.267 157.633 109.156C157.553 110.48 159.519 121.714 159.519 121.714C159.519 121.714 157.432 122.316 153.862 122.717C150.291 123.118 141.344 122.556 141.304 122.155C141.264 121.714 143.029 106.428 143.109 105.625C143.229 104.422 142.708 97.9621 142.708 97.9621C141.865 97.3201 134.644 93.95 132.638 92.1846C132.116 91.7032 129.869 89.5367 129.227 88.7744C126.98 86.1264 125.135 83.8395 124.894 83.358C124.653 83.0772 127.342 81.5927 127.582 81.5124C127.783 81.4322 130.832 85.3641 131.996 86.6479C132.517 87.2096 134.684 88.7744 134.684 88.7744C134.684 88.7744 139.418 90.7002 141.103 90.5798Z" fill="#021217"></path>
<path d="M56.248 91.3966C56.248 91.3966 56.89 90.2331 56.9702 90.0325C57.0906 89.872 57.572 89.5912 58.214 89.3505C58.8158 89.1097 59.7787 89.0696 59.8589 89.1499C59.9392 89.2301 60.0595 89.2301 60.1799 89.511C60.2602 89.7918 60.1799 90.0726 60.1799 90.0726C60.1799 90.0726 60.4206 90.3535 60.3404 90.7146C60.3404 90.7146 60.6212 90.9553 60.4206 91.3565C60.4206 91.3565 60.7015 91.6374 60.541 91.8781C60.541 91.8781 60.0194 92.1188 59.8589 92.2793C59.6985 92.4398 58.5751 92.8811 57.4517 93.162C57.4517 93.162 56.2882 93.0817 56.248 91.3966Z" fill="#CD8F56"></path>
<path d="M58.0975 90.9155C58.0975 90.9155 58.0172 91.5976 57.937 91.7581C57.8166 91.9186 59.2209 92.5204 59.2209 92.5204C59.2209 92.5204 58.8999 91.0359 58.0975 90.9155Z" fill="#CF8C6C"></path>
<path d="M74.0565 108.126L57.3662 110.293L54.5176 95.0066L72.0104 91.9976L74.0565 108.126Z" fill="#F28123"></path>
<path d="M65.6 93.4824C65.5598 91.8776 64.958 89.9518 63.7143 88.9086C62.7915 88.1463 61.6681 87.9858 60.5046 88.1865C57.7764 88.6278 57.6159 91.4764 58.1776 93.4423L65.6 93.4824ZM58.4584 93.1213C57.977 90.9949 58.4183 88.9086 60.5848 88.5475C61.628 88.3871 62.6711 88.5074 63.5137 89.1895C64.5969 90.0721 65.1185 91.7171 65.2389 93.1213H58.4584Z" fill="#23344A"></path>
<path d="M66.2776 93.4839C66.2375 91.8791 65.5153 89.9532 64.2716 88.9101C63.3488 88.1478 62.2254 87.9873 61.0619 88.1879C58.3337 88.6293 58.6546 91.4778 59.2163 93.4438L66.2776 93.4839ZM59.4972 93.1228C59.0157 90.9964 58.9355 88.9101 61.1421 88.549C62.1853 88.3885 63.2284 88.5089 64.071 89.1909C65.1543 90.0736 65.9166 91.7186 66.0369 93.1228H59.4972Z" fill="#23344A"></path>
<path d="M71.4988 110.576L52 109.091L53.5647 93.2834L71.6994 92.7217L71.4988 110.576Z" fill="#9E4CC7"></path>
<path d="M17.0127 101.827C17.0127 101.827 17.1732 100.503 17.1732 100.303C17.1732 100.102 16.9324 99.5806 16.5312 99.059C16.1701 98.4973 15.4078 97.9356 15.3276 97.9356C15.2072 97.9356 15.0869 97.8955 14.8461 98.056C14.6054 98.2165 14.5252 98.4973 14.5252 98.4973C14.5252 98.4973 14.124 98.5775 14.0036 98.9386C14.0036 98.9386 13.6425 99.0189 13.6024 99.4201C13.6024 99.4201 13.2413 99.5003 13.2012 99.7812C13.2012 99.7812 13.482 100.263 13.5221 100.503C13.5623 100.704 14.2042 101.707 14.9665 102.59C15.0066 102.59 16.0096 103.151 17.0127 101.827Z" fill="#CD8F56"></path>
<path d="M19.1364 103.674C19.2968 102.43 19.1364 100.865 18.3339 99.9022C17.7722 99.2602 17.0501 99.0195 16.2476 98.9794C15.1242 98.9393 14.0811 99.2602 13.3188 100.103C12.2757 101.226 11.9948 103.152 12.1553 104.677L19.1364 103.674ZM12.4361 104.275C12.3559 102.951 12.6367 101.347 13.5595 100.344C14.2416 99.5812 15.2045 99.3004 16.2476 99.3405C16.9698 99.3405 17.6118 99.5812 18.0932 100.143C18.7753 100.945 18.9759 102.309 18.8555 103.393L12.4361 104.275Z" fill="#23344A"></path>
<path d="M4.65039 121.689L5.93426 105.199L8.78286 121.448L6.81693 121.127L4.65039 121.689Z" fill="#3F74A0"></path>
<path d="M8.7804 121.449L25.7516 118.48L22.9832 102.672L5.85156 105.079L8.7804 121.449Z" fill="#5B83C2"></path>
<path d="M26.9616 107.204C27.2424 108.006 26.9616 109.049 26.6406 109.812L26.9616 109.852C27.3227 109.049 27.5634 108.006 27.2826 107.164L26.9616 107.204Z" fill="#23344A"></path>
<path d="M14.4375 122.09L28.3595 123.895L30.7266 111.137L16.1627 108.649L14.4375 122.09Z" fill="#F28123"></path>
<path d="M11.5957 121.69L16.1695 108.69L14.4443 122.011L12.9598 121.449L11.5957 121.69Z" fill="#AD3434"></path>
<path d="M27.2402 106.843C27.7217 107.805 27.481 109.17 27.4007 109.531L27.6816 109.651C27.7618 109.25 28.1229 107.645 27.3606 106.481L27.2402 106.843Z" fill="#23344A"></path>
<path d="M12.9609 123.655L16.0503 109.572L16.5718 124.056L14.8867 123.414L12.9609 123.655Z" fill="#B06E2A"></path>
<path d="M15.0059 102.591C15.0059 102.591 16.049 103.514 16.5706 103.514C17.0922 103.514 17.373 102.07 17.373 102.07L16.8915 101.147L15.0059 102.591Z" fill="#6A523B"></path>
<path d="M55.5275 92.24C55.5275 92.24 56.0491 91.7585 56.2898 91.3172C56.5305 90.8759 57.5737 93.1227 57.5737 93.1227C57.5737 93.1227 56.2898 93.1628 55.7281 93.564C55.1263 94.0053 55.5275 92.24 55.5275 92.24Z" fill="#6A523B"></path>
<path d="M59.6981 89.2297C59.6981 89.2297 58.1735 89.8716 58.2136 90.1123C58.2939 90.353 58.4544 90.4333 58.4544 90.4333L57.9328 90.995C57.9328 90.995 57.8124 91.5567 58.4544 91.5166C58.4544 91.5166 58.2939 92.0381 58.8957 91.9178C58.8957 91.9178 58.9358 92.319 59.2167 92.319C59.4975 92.319 60.5005 91.8776 60.5005 91.8776C60.5005 91.8776 60.661 91.677 60.4203 91.3561C60.4203 91.3561 60.6209 90.995 60.34 90.7141C60.34 90.7141 60.4604 90.3932 60.1796 90.0722C60.1796 90.0722 60.3802 89.3901 59.8185 89.1494C59.8586 89.1494 59.7382 89.1895 59.6981 89.2297Z" fill="#CA9360"></path>
<path d="M57.0093 90.0327C57.0093 90.0327 58.1326 90.113 58.7345 90.4339C58.8548 90.5142 58.9752 90.5944 58.9752 90.7549C58.9752 90.9154 58.7345 91.0759 58.2129 91.0759C57.7314 91.0759 57.0895 91.2765 57.0895 91.2765C57.0895 91.2765 56.6081 91.116 57.0093 90.0327Z" fill="#CD8F56"></path>
<path d="M15.7713 100.386C15.7713 100.386 15.4504 100.987 15.4103 101.188C15.4103 101.389 13.9258 101.068 13.9258 101.068C13.9258 101.068 15.0492 99.9843 15.7713 100.386Z" fill="#CF8C6C"></path>
<path d="M15.4461 98.057C15.4461 98.057 16.3287 99.4612 16.1281 99.6217C15.9275 99.7822 15.7269 99.7421 15.7269 99.7421L15.8473 100.504C15.8473 100.504 15.6467 101.026 15.1251 100.665C15.1251 100.665 14.9646 101.186 14.5233 100.745C14.5233 100.745 14.2825 101.026 14.0418 100.865C13.8011 100.705 13.2394 99.7822 13.2394 99.7822C13.2394 99.7822 13.1993 99.5414 13.6005 99.381C13.6005 99.381 13.6406 98.9798 14.0418 98.8995C14.0418 98.8995 14.1221 98.5785 14.5233 98.4983C14.5233 98.4983 14.764 97.8162 15.3257 97.9366C15.3257 97.9366 15.4059 98.0168 15.4461 98.057Z" fill="#CA9360"></path>
<path d="M17.1291 100.264C17.1291 100.264 16.1261 99.7023 15.4842 99.6221C15.3237 99.6221 15.1632 99.6221 15.1231 99.7424C15.0428 99.8628 15.1632 100.144 15.5644 100.424C15.9656 100.705 16.4069 101.227 16.4069 101.227C16.4069 101.227 16.8884 101.387 17.1291 100.264Z" fill="#CD8F56"></path>
<path d="M35.4259 161.729C34.6234 161.97 34.3827 163.334 33.7006 163.736C33.0186 164.137 29.7287 164.418 29.6083 163.374C29.4879 162.331 31.0125 161.408 31.6545 160.887C32.3365 160.365 33.8611 158.68 34.1821 157.998C34.1821 157.998 34.4629 158.44 35.2654 158.279C36.0678 158.159 36.2283 157.918 36.2283 157.918C36.1882 158.72 36.469 159.282 36.5492 159.603C36.8301 160.726 36.2283 161.529 35.4259 161.729Z" fill="#3F74A0"></path>
<path d="M40.7995 161.93C40.1977 162.492 40.0774 163.374 39.3953 163.776C39.1947 163.896 38.7935 164.016 38.3521 164.097C37.5096 164.257 36.4665 164.257 35.9449 163.976C35.7844 163.856 35.664 163.736 35.6239 163.535C35.5036 162.492 37.0282 161.328 37.7102 160.807C38.1114 160.486 38.5528 159.764 38.9138 159.081C39.1145 158.64 39.3151 158.239 39.4354 157.998C39.4354 157.998 39.4755 158.078 39.5558 158.159C39.6761 158.239 39.957 158.359 40.4384 158.279C41.0804 158.159 41.3211 157.998 41.4013 157.918C41.5217 158.56 41.7624 159.242 41.8427 159.523C42.1637 160.606 41.4013 161.409 40.7995 161.93Z" fill="#3F74A0"></path>
<path d="M34.9877 80.2031C34.9877 80.2031 37.5555 79.9223 38.5184 82.4499C39.4412 84.9374 40.3238 85.78 40.4442 87.0638C40.8855 92.3598 43.373 91.1562 42.6508 94.2455C41.9688 97.2947 41.4873 97.7762 41.4873 97.7762L35.5494 96.6126H29.5312C29.5312 96.6126 31.8984 95.4491 31.3367 92.9616C30.8151 90.4741 29.5313 86.3818 30.2534 83.5733C31.0157 80.7648 33.423 80.4037 34.9877 80.2031Z" fill="black"></path>
<path d="M16.5684 124.055L31.5737 123.533L31.8546 109.491H16.0469L16.5684 124.055Z" fill="#FAA146"></path>
<path d="M78.0299 107.003L72.0117 91.9976L74.0579 108.126L75.8232 107.083L78.0299 107.003Z" fill="#AD3434"></path>
<path d="M75.8615 110.094L71.6889 92.7217L71.4883 110.576L73.5345 109.813L75.8615 110.094Z" fill="#5B2C73"></path>
<path d="M30.6959 115.791C30.6959 115.791 28.5294 123.373 28.1281 125.339C27.7671 127.265 26.6838 136.654 26.5634 138.258C26.4431 139.863 30.1342 147.326 30.3348 147.887C31.0971 149.974 34.2667 157.557 34.2667 157.557C34.2667 157.557 36.3128 158.76 36.0721 156.995C35.3901 151.579 35.0691 150.255 34.5475 147.446C33.4642 141.308 31.2576 140.505 31.6187 139.582C35.029 130.515 35.711 124.376 36.1925 123.815C36.6338 123.293 36.7141 124.096 36.9949 125.259C37.2757 126.423 36.8745 134.567 37.356 137.697C37.6368 139.382 38.1985 143.233 38.3991 145.44C38.5997 147.647 39.6028 157.837 39.6028 157.837C39.6028 157.837 39.7231 158.199 41.2477 157.356C41.4885 157.236 42.6921 148.329 42.7322 145.721C42.7723 143.113 41.6088 142.712 42.5316 137.657C44.5377 126.784 44.2568 124.898 41.9298 117.074C36.2727 97.9367 30.6959 115.791 30.6959 115.791Z" fill="#EEA886"></path>
<path d="M57.2928 93.5619C57.2126 93.4816 51.6758 97.6943 51.074 98.0554C49.8704 98.7375 48.5865 98.6974 47.2625 98.7776C45.7781 98.8578 44.0528 98.6974 42.5684 99.0183C41.8061 99.1788 41.7258 99.3794 41.3246 100.182C40.2413 102.388 39.8803 105.157 39.7599 107.604C39.5994 110.132 40.6024 111.897 41.6055 114.144C41.9666 114.906 42.448 115.709 41.7659 116.391C41.1641 117.033 39.9605 117.153 39.1581 117.233C37.1921 117.474 34.1831 117.634 32.2974 116.872C29.9704 115.909 30.4117 113.021 30.171 110.974C30.0105 109.61 29.3685 107.564 28.9673 106.28C28.6062 104.996 28.5661 104.435 28.6464 103.071C27.9242 105.117 27.3224 108.607 25.3966 109.891C23.9121 110.894 22.548 109.53 21.4647 108.607C19.4185 106.842 17.3723 105.036 15.3262 103.271C15.7675 102.87 16.2088 102.469 16.6502 102.068C16.8107 101.947 16.8107 101.907 16.9711 101.787C17.3723 101.466 17.2921 101.385 17.6933 101.626C17.9742 101.787 18.6562 102.469 18.8969 102.669C19.6191 103.351 20.3012 103.793 21.0234 104.475C21.6653 105.077 22.7887 106.481 23.7516 105.959C24.5139 105.598 24.7145 104.033 24.9953 103.351C25.7175 101.426 26.4397 99.4998 27.3224 97.6542C28.2452 95.6482 30.2913 94.605 32.2974 93.8026C34.0226 93.1205 36.3095 93.2409 38.0748 93.6822C39.3186 94.0032 39.7198 94.0032 40.9635 94.3643C42.127 94.6852 43.2103 95.0865 44.4139 95.3272C45.7781 95.608 47.1823 95.7284 48.5865 95.7284C49.7099 95.7284 50.1512 95.5679 51.074 94.926C52.3178 94.0433 54.1634 92.5588 55.5275 91.8768C56.3299 91.4354 56.6107 92.8798 57.2928 93.5619Z" fill="#F0DDD5"></path>
<path d="M36.7506 90.554C36.7506 90.554 36.5499 93.1217 37.0314 93.9241C37.5129 94.6864 36.5901 95.7296 34.7044 95.3685C32.8187 95.0074 32.8989 93.9241 32.8989 93.9241C32.8989 93.9241 33.4205 92.3193 33.26 91.0354C33.1397 89.7917 36.7506 90.554 36.7506 90.554Z" fill="#CD8F56"></path>
<path d="M37.9923 93.7244C37.9923 93.7244 36.2671 97.7365 34.0604 98.5791C34.0604 98.5791 31.8537 96.6533 32.4556 93.7646C32.4556 93.7244 35.3041 92.2801 37.9923 93.7244Z" fill="#CD8F56"></path>
<path d="M35.3013 81.6492C35.3013 81.6492 38.7116 82.1306 38.2302 87.1859C37.7487 92.2812 34.6995 91.88 34.4989 91.8399C34.2983 91.8399 31.4497 91.9603 31.209 85.7816C31.2491 85.7816 31.1287 81.248 35.3013 81.6492Z" fill="#CD8F56"></path>
<path d="M34.9009 83.4927C34.9009 83.4927 36.5058 85.1778 37.228 86.0203C37.9903 86.8629 38.0705 88.5078 38.0705 88.5078C38.0705 88.5078 39.3143 86.9832 38.7927 85.1778C38.2711 83.4125 37.0274 79.9219 33.8979 81.0052C30.7685 82.0885 30.6481 86.7425 31.0092 89.0695C31.0493 89.1097 32.4536 83.9742 34.9009 83.4927Z" fill="black"></path>
<path d="M33.6211 91.6371C33.6211 91.6371 35.1056 92.3593 36.59 91.1958C36.59 91.1958 36.0284 92.1587 35.0253 92.1988C33.9822 92.2791 33.6211 91.6371 33.6211 91.6371Z" fill="#6A523B"></path>
<path d="M24.1959 105.479C24.0354 105.8 23.7145 105.961 23.7145 105.961C22.1497 106.803 21.8689 108.81 21.8288 109.492H21.5078C21.7887 105.841 24.1959 105.479 24.1959 105.479Z" fill="#23344A"></path>
<path d="M24.1092 105.519C24.1092 105.519 21.5816 105.639 20.8594 109.491L21.1001 109.531C21.1001 109.531 21.5816 106.723 23.6277 105.96C23.6277 105.92 23.9086 105.8 24.1092 105.519Z" fill="#23344A"></path>
<path d="M42.0084 115.148C42.0084 115.148 45.4588 122.33 43.1318 136.854C43.1318 136.854 36.0705 136.212 25.4785 135.449C25.4785 135.449 30.293 115.91 30.4134 114.667C30.5739 113.383 42.0084 115.148 42.0084 115.148Z" fill="#F0DDD5"></path>
<path d="M34.2207 157.396C34.2207 157.396 35.2237 158.038 36.1064 157.196L36.1866 157.958C36.1866 157.958 34.6219 159.362 34.2207 157.838V157.396Z" fill="#EEA886"></path>
<path d="M39.8718 157.275C39.8718 157.275 40.4736 157.797 41.3562 156.994L41.4766 157.877C41.4766 157.877 39.952 159.442 39.5508 157.917L39.8718 157.275Z" fill="#EEA886"></path>
<path d="M34.2259 157.836C34.2259 157.836 33.4234 158.799 33.5037 158.959C33.5839 159.12 35.3493 159.481 35.6301 159.08C35.911 158.719 36.2319 157.916 36.2319 157.916C36.2319 157.916 34.6672 158.638 34.2259 157.836Z" fill="#3F74A0"></path>
<path d="M39.6001 157.835C39.6001 157.835 38.8378 158.919 38.918 159.079C38.9983 159.24 40.563 159.48 40.8438 159.119C41.1247 158.758 41.4858 157.956 41.4858 157.956C41.4858 157.956 40.0414 158.638 39.6001 157.835Z" fill="#3F74A0"></path>
<path d="M30.3268 113.623C30.3268 113.623 34.4993 115.148 40.4774 111.778C40.4774 111.778 40.7181 112.259 40.999 112.941C40.999 112.941 35.5425 116.312 30.4471 114.667C30.4471 114.626 30.2866 113.864 30.3268 113.623Z" fill="#F28123"></path>
<path d="M29.1285 99.582C28.6471 100.826 28.607 103.073 28.607 103.073C28.607 103.073 28.4465 103.674 28.2057 104.356C28.1255 100.986 29.1285 99.582 29.1285 99.582Z" fill="#AD3434"></path>
<path d="M34.6263 94.0051C34.4257 94.0051 34.2251 93.9649 34.0245 93.9649C33.3425 93.8446 33.0616 93.5236 33.0215 93.4835L33.1017 93.1625C33.1017 93.1625 33.5029 93.5236 34.1048 93.6039C34.9072 93.7643 35.83 93.5236 36.7527 92.9619L36.8731 93.2829C36.0306 93.8446 35.2281 94.0051 34.6263 94.0051Z" fill="#F28123"></path>
<path d="M45.258 40.0016L37.2338 41.486C36.7925 41.5663 36.3512 41.807 36.0703 42.1681L17.8955 63.1915C17.1733 64.0341 17.2535 65.3581 18.0961 66.0802L25.7592 72.7002C26.6018 73.4224 27.9258 73.3422 28.6479 72.4996L46.8228 51.4762C47.1437 51.1151 47.3042 50.6738 47.3042 50.2324L47.6252 42.0879C47.7456 40.804 46.582 39.7608 45.258 40.0016ZM46.4216 42.81C46.0203 43.2514 45.3383 43.3316 44.8568 42.9304C44.4155 42.5292 44.3353 41.8471 44.7365 41.3657C45.1377 40.9243 45.8197 40.8441 46.3012 41.2453C46.7826 41.6465 46.8228 42.3687 46.4216 42.81Z" fill="#EEECF0"></path>
<path d="M29.6546 64.7967C29.3738 65.1177 29.0929 65.3584 28.7318 65.559C28.3707 65.7596 28.0096 65.88 27.6486 65.9201L27.3677 64.7566C27.4078 64.7566 27.5282 64.7566 27.6486 64.7566C27.7689 64.7165 27.9294 64.6764 28.0899 64.6362C28.2504 64.556 28.4109 64.4758 28.5713 64.3955C28.7318 64.2751 28.8923 64.1548 29.0528 63.9943C29.2534 63.7536 29.3738 63.5128 29.3738 63.3122C29.3738 63.1116 29.2935 62.9512 29.133 62.7907C29.0528 62.7104 28.9726 62.6703 28.8522 62.6703C28.7719 62.6703 28.6516 62.6703 28.5312 62.7505C28.4109 62.7907 28.2905 62.8709 28.13 62.9511C28.0096 63.0314 27.8492 63.1116 27.6887 63.232C27.3276 63.4727 27.0066 63.5931 26.7258 63.6332C26.4449 63.6733 26.1641 63.5931 25.9234 63.3524C25.6826 63.1116 25.482 62.8709 25.3617 62.5901C25.2413 62.3092 25.2012 62.0284 25.2012 61.7475C25.2012 61.4667 25.2814 61.1457 25.4018 60.8649C25.5221 60.584 25.6826 60.3032 25.9234 60.0624C26.1641 59.7816 26.4449 59.5409 26.7659 59.4205C27.0467 59.26 27.3276 59.1798 27.6084 59.1396L27.8492 60.263C27.809 60.263 27.7288 60.263 27.6486 60.263C27.5282 60.263 27.448 60.3032 27.2875 60.3834C27.1671 60.4235 27.0467 60.5038 26.8863 60.584C26.7659 60.6643 26.6455 60.7846 26.5252 60.905C26.3246 61.1457 26.2042 61.3864 26.2042 61.587C26.2042 61.7876 26.2844 61.9882 26.485 62.1487C26.5653 62.229 26.6455 62.229 26.7258 62.2691C26.806 62.2691 26.8863 62.2691 27.0066 62.229C27.0869 62.1889 27.2072 62.1487 27.3276 62.0685C27.448 61.9882 27.5683 61.908 27.7288 61.8278C27.9294 61.7074 28.0899 61.587 28.2905 61.5068C28.451 61.4266 28.6516 61.3864 28.8121 61.3463C28.9726 61.3062 29.133 61.3463 29.2935 61.3864C29.454 61.4266 29.6145 61.5068 29.775 61.6673C30.0558 61.908 30.2564 62.1487 30.3367 62.4296C30.457 62.7104 30.4972 62.9913 30.457 63.2721C30.4169 63.553 30.3367 63.8338 30.2163 64.1147C30.0157 64.3153 29.8552 64.556 29.6546 64.7967Z" fill="#0F7174"></path>
<path d="M32.624 61.386C32.4635 61.5866 32.303 61.707 32.1024 61.7872C31.9018 61.8674 31.7012 61.9076 31.5006 61.9076C31.3 61.9076 31.0994 61.8674 30.8587 61.7471C30.658 61.6668 30.4574 61.5465 30.2568 61.386C29.976 61.1453 29.7754 60.8644 29.6149 60.5836C29.4544 60.2626 29.3341 59.9416 29.2939 59.6207C29.2538 59.2997 29.2538 58.9787 29.3341 58.6578C29.4143 58.3368 29.5347 58.0559 29.7353 57.8152C29.9359 57.5745 30.1365 57.4541 30.4173 57.3739C30.658 57.3338 30.8988 57.3338 31.1395 57.4541L30.6982 56.8523L31.4203 56.0098L33.306 58.4571C33.3462 58.4973 33.3863 58.5374 33.3863 58.5775C33.4665 58.6578 33.5468 58.6578 33.6671 58.5374L34.2288 59.2997C34.1887 59.3799 34.1486 59.4602 34.1085 59.5404C34.0683 59.6207 34.0282 59.6608 33.9881 59.7009C33.8677 59.8614 33.7474 59.9416 33.5869 59.9817C33.4665 60.0219 33.306 59.9817 33.1857 59.8614C33.1456 59.8213 33.0653 59.741 32.9851 59.6207C33.0653 59.9416 33.0653 60.2626 32.9851 60.5836C32.9449 60.9045 32.8246 61.1854 32.624 61.386ZM32.2629 60.383C32.3431 60.3027 32.3833 60.2225 32.4234 60.1021C32.4635 59.9817 32.5036 59.9015 32.5036 59.7811C32.5036 59.6608 32.5036 59.5404 32.5036 59.4201C32.5036 59.2997 32.4635 59.1793 32.4234 59.059L31.7814 58.2164C31.5808 58.0961 31.3802 58.0158 31.1395 58.0559C30.8988 58.0559 30.7383 58.1763 30.6179 58.3368C30.4976 58.4571 30.4173 58.6176 30.3772 58.8182C30.3371 59.0188 30.3371 59.1793 30.3772 59.3799C30.4173 59.5805 30.4574 59.741 30.5778 59.9416C30.658 60.1021 30.7784 60.2626 30.9389 60.4231C31.1395 60.6237 31.3802 60.7039 31.621 60.7039C31.8617 60.7039 32.0623 60.6237 32.2629 60.383Z" fill="#0F7174"></path>
<path d="M35.5511 57.976C35.3505 58.1766 35.19 58.297 34.9894 58.3371C34.7888 58.3772 34.5882 58.297 34.4277 58.1365C34.3876 58.0963 34.3475 58.0562 34.3073 58.0161C34.2672 57.976 34.2271 57.9359 34.187 57.8957L31.0977 53.8435L31.8198 53.001L34.6684 56.7724C34.6684 56.8125 34.7086 56.8125 34.7086 56.8526L34.7487 56.8927C34.9092 57.0532 35.0696 57.0131 35.2301 56.8526C35.2702 56.8125 35.3104 56.7322 35.3505 56.6921C35.3906 56.6119 35.4307 56.5316 35.4307 56.4514L36.0325 57.0131C35.9924 57.1736 35.9122 57.334 35.7918 57.5347C35.7517 57.7353 35.6313 57.8556 35.5511 57.976Z" fill="#0F7174"></path>
<path d="M37.7985 55.4481C37.6381 55.6487 37.4375 55.8092 37.1967 55.9295C36.9961 56.0499 36.7554 56.09 36.5548 56.09C36.3141 56.09 36.1135 56.0499 35.8727 55.9697C35.6721 55.8894 35.4314 55.7691 35.2308 55.5685C34.95 55.3277 34.7493 55.0469 34.5889 54.7259C34.4284 54.4049 34.3481 54.084 34.308 53.7229C34.2679 53.3618 34.308 53.0408 34.4284 52.6797C34.5487 52.3187 34.7092 51.9977 34.95 51.7168C35.2709 51.3557 35.5919 51.1551 35.9129 51.0749C36.2338 50.9947 36.5548 51.0749 36.8758 51.3557C37.5578 51.9576 37.3973 52.8803 36.3141 54.1642C36.2338 54.2445 36.1937 54.3247 36.1135 54.405C36.0332 54.4852 35.953 54.5654 35.8727 54.6457L35.953 54.7259C36.1536 54.9265 36.3943 55.0068 36.635 55.0469C36.8758 55.0469 37.0764 54.9666 37.2369 54.766C37.3973 54.6056 37.4776 54.405 37.5177 54.2043C37.5578 54.0037 37.5578 53.763 37.4776 53.5624L38.2399 53.081C38.28 53.2816 38.3201 53.4822 38.3201 53.6828C38.3201 53.8834 38.28 54.1241 38.2399 54.3247C38.1998 54.5253 38.1195 54.7259 38.0393 54.9265C38.0393 55.087 37.9189 55.2876 37.7985 55.4481ZM35.5116 52.439C35.3913 52.5594 35.3512 52.6797 35.2709 52.8402C35.2308 53.0007 35.1907 53.1211 35.1907 53.2816C35.1907 53.442 35.2308 53.5624 35.2709 53.7229C35.311 53.8834 35.3913 54.0037 35.4715 54.1642C35.5518 54.084 35.5919 54.0439 35.632 53.9636C35.6721 53.8834 35.7524 53.8433 35.7925 53.763C35.953 53.5624 36.1135 53.4019 36.1937 53.2414C36.2739 53.081 36.3542 52.9606 36.3943 52.8402C36.4344 52.7199 36.4344 52.5995 36.3943 52.5193C36.3542 52.439 36.3141 52.3588 36.2338 52.2785C36.1135 52.1582 35.9931 52.1582 35.8326 52.1983C35.7925 52.1983 35.632 52.2785 35.5116 52.439Z" fill="#0F7174"></path>
<path d="M46.342 41.4051L46.2617 41.1644C46.2617 41.1644 46.8635 41.0039 47.7061 40.5225L47.8264 40.7632C46.9839 41.2045 46.3821 41.4051 46.342 41.4051Z" fill="#E6E6E6"></path>
<path d="M144.361 62.6687L144.12 62.5885C144.481 61.5052 144.802 60.5423 145.083 59.5393L145.324 59.6195C145.043 60.6226 144.722 61.6256 144.361 62.6687ZM146.166 56.5703L145.925 56.4901C146.206 55.4068 146.447 54.3637 146.607 53.4008L146.888 53.4409C146.688 54.4439 146.447 55.4871 146.166 56.5703ZM147.37 50.2713L147.089 50.2312C147.209 49.1479 147.289 48.0647 147.33 47.0616H147.61C147.57 48.1048 147.53 49.1881 147.37 50.2713ZM147.209 43.9322C147.089 42.8489 146.888 41.8058 146.607 40.8429L146.848 40.7626C147.129 41.7657 147.33 42.8088 147.45 43.9322H147.209ZM50.2768 38.6362L50.0762 38.4757C50.7181 37.6733 51.1996 36.7104 51.4804 35.7074L51.7211 35.7876C51.4403 36.8308 50.9588 37.7937 50.2768 38.6362ZM145.484 37.8739C145.003 36.9511 144.401 36.0685 143.759 35.2661L143.959 35.1056C144.641 35.908 145.243 36.8308 145.725 37.7937L145.484 37.8739ZM141.472 33.0594C140.67 32.4175 139.787 31.8558 138.824 31.3743L138.944 31.1336C139.907 31.6552 140.83 32.2169 141.632 32.8588L141.472 33.0594ZM52.1223 32.5779H51.8415C51.8816 31.615 51.9619 30.4917 52.1223 29.3683L52.4032 29.4084C52.2427 30.5318 52.1625 31.615 52.1223 32.5779ZM135.895 30.0904C134.932 29.7695 133.929 29.4485 132.846 29.2078L132.926 28.9671C134.009 29.2078 135.053 29.5287 136.015 29.8497L135.895 30.0904ZM129.716 28.606C128.713 28.4455 127.63 28.3251 126.547 28.2449L126.587 27.964C127.67 28.0443 128.754 28.1646 129.757 28.3251L129.716 28.606ZM123.377 28.0041C122.294 27.8838 121.211 27.7634 120.208 27.6029L120.248 27.3221C121.251 27.4826 122.294 27.6029 123.417 27.7233L123.377 28.0041ZM117.078 27.0011C115.995 26.7604 114.952 26.4795 113.989 26.1586L114.069 25.9179C115.032 26.2388 116.035 26.5197 117.118 26.7604L117.078 27.0011ZM52.9649 26.2789L52.7242 26.2388C52.9649 25.1957 53.2457 24.1525 53.5667 23.1495L53.8074 23.2297C53.4865 24.1926 53.2056 25.2358 52.9649 26.2789ZM111.02 24.9549C110.057 24.5136 109.134 23.992 108.212 23.3902L108.372 23.1495C109.255 23.7112 110.178 24.2328 111.14 24.6741L111.02 24.9549ZM105.644 21.5447C104.761 20.8225 103.919 20.1003 103.237 19.4584L103.397 19.2578C104.079 19.8997 104.922 20.6219 105.804 21.3441L105.644 21.5447ZM54.9709 20.2207L54.7302 20.1003C55.1715 19.0973 55.653 18.1344 56.1746 17.2517L56.4153 17.3721C55.8937 18.2949 55.4123 19.2578 54.9709 20.2207ZM100.869 17.2918C99.9868 16.4894 99.1843 15.8475 98.422 15.2457L98.5825 15.045C99.3448 15.6469 100.147 16.2888 101.03 17.0912L100.869 17.2918ZM58.1806 14.8043L57.98 14.6438C58.6621 13.8013 59.3843 12.9989 60.1466 12.2767L60.3472 12.4773C59.5849 13.1594 58.8627 13.9217 58.1806 14.8043ZM95.8543 13.4402C94.9716 12.8785 94.0488 12.3569 93.0859 11.8755L93.2063 11.6348C94.1692 12.1162 95.092 12.6378 95.9747 13.2396L95.8543 13.4402ZM90.2373 10.5515C89.2744 10.1503 88.2714 9.78919 87.2684 9.46822L87.3486 9.22749C88.3918 9.54846 89.3948 9.94967 90.3577 10.3108L90.2373 10.5515ZM62.7945 10.4712L62.6341 10.2305C63.5167 9.6287 64.4796 9.10713 65.4425 8.6658L65.5629 8.90653C64.6 9.34786 63.6772 9.86943 62.7945 10.4712ZM84.2192 8.54544C83.4168 8.34483 82.5341 8.14422 81.6916 7.94362C81.491 7.9035 81.3305 7.86338 81.1299 7.82326L81.17 7.54241C81.3706 7.58253 81.5311 7.62265 81.7317 7.66277C82.6143 7.86338 83.4569 8.06398 84.2994 8.26459L84.2192 8.54544ZM68.5319 7.86338L68.4516 7.62265C69.4546 7.3418 70.4978 7.1412 71.5811 7.02084L71.6212 7.30168C70.578 7.42205 69.5349 7.62265 68.5319 7.86338ZM77.9603 7.3418C76.877 7.22144 75.7938 7.1412 74.7907 7.1412V6.86035C75.8339 6.86035 76.9172 6.94059 78.0004 7.06096L77.9603 7.3418Z" fill="#E6E6E6"></path>
<path d="M142.674 67.3626L142.434 67.2823C142.594 66.8009 142.795 66.2793 142.995 65.7979L143.236 65.8781C143.035 66.3595 142.835 66.8811 142.674 67.3626Z" fill="#E6E6E6"></path>
<path d="M207.992 67.8052L216.418 62.9506L224.482 57.6546L225.365 59.2594L217.18 64.0338L208.915 69.4101L207.992 67.8052ZM213.088 60.8242C212.606 60.6637 212.165 60.4229 211.804 60.102C211.443 59.781 211.162 59.4199 210.961 59.0187C210.761 58.6175 210.64 58.1762 210.6 57.7348C210.56 57.2935 210.6 56.8121 210.761 56.3707C210.921 55.9294 211.162 55.5683 211.483 55.2072C211.804 54.8862 212.165 54.6455 212.566 54.4449C212.967 54.2844 213.409 54.1641 213.89 54.1641C214.371 54.1641 214.853 54.2042 215.334 54.4048C215.816 54.5653 216.257 54.806 216.618 55.127C216.979 55.4479 217.26 55.809 217.501 56.2102C217.701 56.6114 217.822 57.0127 217.862 57.4941C217.902 57.9354 217.862 58.4169 217.701 58.8181C217.541 59.2594 217.3 59.6606 216.979 59.9816C216.658 60.3026 216.297 60.5433 215.896 60.7439C215.495 60.9044 215.053 61.0248 214.532 61.0248C214.05 61.0649 213.569 60.9846 213.088 60.8242ZM213.569 59.4199C213.77 59.5002 214.01 59.5002 214.211 59.46C214.412 59.4199 214.612 59.3397 214.813 59.2193C215.013 59.099 215.174 58.9385 215.334 58.778C215.495 58.5774 215.615 58.3768 215.695 58.136C215.856 57.6546 215.856 57.1731 215.695 56.7318C215.535 56.2905 215.214 55.9695 214.813 55.8491C214.612 55.7689 214.371 55.7689 214.171 55.809C213.97 55.8491 213.77 55.9294 213.569 56.0498C213.368 56.1701 213.208 56.2905 213.047 56.4911C212.887 56.6917 212.767 56.8923 212.686 57.133C212.526 57.6145 212.526 58.0959 212.686 58.5774C212.887 58.9385 213.168 59.2594 213.569 59.4199ZM218.063 72.7401C217.581 72.5796 217.14 72.3389 216.779 72.0179C216.418 71.697 216.137 71.3359 215.936 70.9347C215.736 70.5335 215.615 70.1322 215.535 69.6508C215.495 69.2095 215.535 68.728 215.695 68.2867C215.856 67.8453 216.097 67.4441 216.418 67.1232C216.739 66.8022 217.1 66.5615 217.501 66.3609C217.902 66.2004 218.343 66.08 218.825 66.08C219.306 66.08 219.788 66.1201 220.269 66.3207C220.751 66.4812 221.192 66.722 221.553 67.0429C221.914 67.3639 222.195 67.725 222.436 68.1262C222.636 68.5274 222.797 68.9687 222.797 69.4101C222.837 69.8514 222.757 70.2927 222.596 70.7742C222.436 71.2155 222.195 71.6167 221.874 71.9377C221.553 72.2587 221.192 72.4994 220.791 72.6599C220.39 72.8204 219.908 72.9407 219.427 72.9407C219.025 72.9808 218.544 72.9006 218.063 72.7401ZM218.544 71.2958C218.745 71.376 218.985 71.376 219.186 71.3359C219.387 71.2958 219.587 71.2155 219.788 71.0951C219.988 70.9748 220.149 70.8544 220.309 70.6538C220.47 70.4532 220.59 70.2526 220.67 70.0119C220.751 69.7712 220.791 69.4903 220.791 69.2496C220.791 69.0089 220.751 68.7681 220.67 68.5675C220.59 68.3669 220.47 68.1663 220.309 68.0058C220.149 67.8453 219.988 67.725 219.788 67.6849C219.587 67.6046 219.346 67.6046 219.146 67.6447C218.945 67.6849 218.745 67.7651 218.544 67.8855C218.343 68.0058 218.183 68.1663 218.022 68.3268C217.862 68.5274 217.742 68.728 217.661 68.9687C217.501 69.4502 217.501 69.9316 217.661 70.373C217.862 70.8544 218.143 71.1754 218.544 71.2958Z" fill="#0F7174"></path>
<path d="M26.3981 7.30203C26.1172 7.50264 25.7963 7.623 25.4753 7.70324C25.1543 7.78348 24.8735 7.78348 24.5525 7.74336C24.2717 7.70324 23.9908 7.58288 23.71 7.4224C23.4692 7.26191 23.2285 7.06131 23.068 6.78046C22.9075 6.53973 22.7872 6.25888 22.7471 5.93792C22.7069 5.61695 22.7069 5.3361 22.7872 5.05525C22.8674 4.77441 22.9878 4.49356 23.1884 4.21271C23.389 3.93186 23.5896 3.73126 23.9106 3.53065C24.1914 3.33005 24.5124 3.20968 24.7932 3.16956C25.1142 3.08932 25.4352 3.08932 25.716 3.12944C25.9969 3.16956 26.2777 3.28993 26.5586 3.45041C26.8394 3.6109 27.04 3.8115 27.2005 4.09235C27.361 4.37319 27.4813 4.65404 27.5215 4.93489C27.5616 5.21574 27.5616 5.53671 27.4813 5.81755C27.4011 6.0984 27.2807 6.37925 27.0801 6.6601C26.9196 6.90082 26.6789 7.10143 26.3981 7.30203ZM25.8364 6.45949C25.9567 6.37925 26.037 6.25888 26.1172 6.13852C26.1975 6.01816 26.2376 5.85767 26.2376 5.73731C26.2376 5.57683 26.2376 5.41634 26.1975 5.25586C26.1573 5.09537 26.0771 4.93489 25.9969 4.81453C25.7963 4.53368 25.5555 4.33307 25.2346 4.25283C24.9136 4.17259 24.6327 4.21271 24.392 4.37319C24.2717 4.45344 24.1914 4.5738 24.1112 4.69416C24.0309 4.81453 23.9908 4.97501 23.9908 5.09537C23.9908 5.25586 23.9908 5.41634 24.0309 5.53671C24.0711 5.69719 24.1513 5.85767 24.2315 5.97804C24.4321 6.25888 24.6729 6.45949 24.9938 6.53973C25.3549 6.66009 25.5957 6.61997 25.8364 6.45949ZM28.0832 12.7986L28.8856 6.37925L29.3269 0L30.5305 0.160484L29.7682 6.41937L29.2868 12.9591L28.0832 12.7986ZM34.7031 9.42845C34.4223 9.62905 34.1013 9.74942 33.7803 9.82966C33.4594 9.9099 33.1785 9.9099 32.8576 9.86978C32.5767 9.82966 32.2959 9.7093 32.015 9.54881C31.7743 9.38833 31.5336 9.18772 31.3731 8.90687C31.2126 8.62603 31.0922 8.34518 31.0521 8.06433C31.012 7.78348 31.012 7.46252 31.0922 7.18167C31.1725 6.90082 31.2928 6.61997 31.4533 6.33913C31.6539 6.05828 31.8545 5.85767 32.1755 5.65707C32.4564 5.45646 32.7773 5.3361 33.0983 5.25586C33.4193 5.17562 33.7001 5.17562 34.0211 5.21574C34.3019 5.25586 34.5828 5.37622 34.8636 5.53671C35.1043 5.69719 35.3451 5.89779 35.5056 6.17864C35.666 6.45949 35.7864 6.74034 35.8265 7.02118C35.8666 7.30203 35.8666 7.623 35.7864 7.90385C35.7062 8.1847 35.5858 8.46554 35.3852 8.74639C35.2247 9.02724 35.0241 9.26796 34.7031 9.42845ZM34.1816 8.62603C34.3019 8.54578 34.3822 8.42542 34.4624 8.30506C34.5426 8.1847 34.5828 8.02421 34.5828 7.90385C34.5828 7.74336 34.5828 7.58288 34.5426 7.46252C34.5025 7.30203 34.4223 7.14155 34.342 7.02118C34.2618 6.8607 34.1414 6.74034 33.981 6.6601C33.8606 6.57985 33.7001 6.49961 33.5797 6.45949C33.4193 6.41937 33.2989 6.41937 33.1384 6.41937C32.9779 6.41937 32.8576 6.49961 32.7372 6.57985C32.6168 6.66009 32.5366 6.78046 32.4564 6.90082C32.3761 7.02118 32.336 7.18167 32.336 7.30203C32.336 7.46252 32.336 7.623 32.3761 7.78348C32.4162 7.94397 32.4965 8.10445 32.5767 8.22482C32.7773 8.50566 33.018 8.70627 33.339 8.78651C33.66 8.78651 33.9408 8.78651 34.1816 8.62603Z" fill="#0F7174"></path>
<defs>
<linearGradient id="paint0_linear_1206_2451-158" x1="13.8806" y1="42.6962" x2="48.7496" y2="42.6962" gradientUnits="userSpaceOnUse">
<stop stop-color="#22BF32"></stop>
<stop offset="1" stop-color="#159700"></stop>
</linearGradient>
<linearGradient id="paint1_linear_1206_2451-159" x1="1.2457" y1="60.0604" x2="44.0713" y2="79.9065" gradientUnits="userSpaceOnUse">
<stop stop-color="#30B224"></stop>
<stop offset="1" stop-color="#0A711B"></stop>
</linearGradient>
<linearGradient id="paint2_linear_1206_2451-160" x1="156.034" y1="38.418" x2="186.929" y2="32.8921" gradientUnits="userSpaceOnUse">
<stop stop-color="#0E6517"></stop>
<stop offset="1" stop-color="#1AC217"></stop>
</linearGradient>
<linearGradient id="paint3_linear_1206_2451-161" x1="186.694" y1="67.3436" x2="205.623" y2="-10.8963" gradientUnits="userSpaceOnUse">
<stop stop-color="#167B14"></stop>
<stop offset="1" stop-color="#6CF54A"></stop>
</linearGradient>
</defs>
</svg>