<svg xmlns="http://www.w3.org/2000/svg" width="236" height="157" viewBox="0 0 236 157" fill="none" class="injected-svg"
    data-src="/icons/stat_3.svg" xmlns:xlink="http://www.w3.org/1999/xlink">
    <g opacity="0.5">
        <path
            d="M67.4523 37.5797V33.3427C67.4523 32.9313 67.1233 32.6023 66.712 32.6023H65.6427C65.3137 32.6023 65.0258 32.3966 64.9847 32.0675C64.6146 30.422 63.9565 28.9 63.0928 27.5014C62.9283 27.2134 62.9695 26.8843 63.1751 26.6375L63.9565 25.8971C64.2444 25.6091 64.2444 25.1155 63.9565 24.8275L60.9953 21.8657C60.7075 21.5778 60.2139 21.5778 59.926 21.8657L59.1446 22.6473C58.8979 22.8941 58.5688 22.8941 58.2809 22.7296C56.8826 21.8657 55.3609 21.2075 53.7158 20.8373C53.3868 20.755 53.1811 20.4671 53.1811 20.1791V19.1096C53.1811 18.6982 52.8521 18.3691 52.4409 18.3691H48.2459C47.8346 18.3691 47.5056 18.6982 47.5056 19.1096V20.1791C47.5056 20.5082 47.2999 20.7962 46.9709 20.8373C45.3258 21.2075 43.8041 21.8657 42.4058 22.7296C42.1179 22.8941 41.7889 22.853 41.5421 22.6473L40.7607 21.8657C40.4728 21.5778 39.9793 21.5778 39.6914 21.8657L36.7302 24.8275C36.4423 25.1155 36.4423 25.6091 36.7302 25.8971L37.5116 26.6786C37.7584 26.9255 37.7584 27.2546 37.5939 27.5425C36.7302 28.9411 36.0722 30.4632 35.702 32.1086C35.6198 32.4377 35.3319 32.6434 35.044 32.6434H33.9747C33.5634 32.6434 33.2344 32.9725 33.2344 33.3838V37.5797C33.2344 37.9911 33.5634 38.3202 33.9747 38.3202H35.044C35.373 38.3202 35.6609 38.5259 35.702 38.855C36.0722 40.5004 36.7302 42.0224 37.5939 43.4211C37.7584 43.709 37.7173 44.0381 37.5116 44.2849L36.7302 45.0665C36.4423 45.3545 36.4423 45.8481 36.7302 46.1361L39.6914 49.0979C39.9793 49.3858 40.4728 49.3858 40.7607 49.0979L41.5421 48.3163C41.7889 48.0695 42.1179 48.0695 42.4058 48.234C43.8041 49.0979 45.3258 49.7149 46.9709 50.1263C47.2999 50.2085 47.5056 50.4965 47.5056 50.7844V51.854C47.5056 52.2653 47.8346 52.5944 48.2459 52.5944H52.4409C52.8521 52.5944 53.1811 52.2653 53.1811 51.854V50.7844C53.1811 50.4554 53.3868 50.1674 53.7158 50.1263C55.3609 49.756 56.8826 49.0979 58.2809 48.234C58.5688 48.0695 58.8979 48.1106 59.1446 48.3163L59.926 49.0979C60.2139 49.3858 60.7075 49.3858 60.9953 49.0979L63.9565 46.1361C64.2444 45.8481 64.2444 45.3545 63.9565 45.0665L63.1751 44.2849C62.9283 44.0381 62.9283 43.709 63.0928 43.4211C63.9565 42.0224 64.6146 40.5004 64.9847 38.855C65.067 38.5259 65.3548 38.3202 65.6427 38.3202H66.712C67.1233 38.3202 67.4523 37.9911 67.4523 37.5797ZM50.3434 47.3701C43.763 47.3701 38.4575 42.0636 38.4575 35.4818C38.4575 28.9411 43.763 23.5934 50.3434 23.5934C56.9237 23.5934 62.2292 28.9 62.2292 35.4818C62.2292 42.0224 56.9237 47.3701 50.3434 47.3701Z"
            stroke="#0F7174" stroke-miterlimit="10"></path>
        <path
            d="M86.8638 51.8538V48.9742C86.8638 48.6863 86.617 48.4806 86.3703 48.4806H85.63C85.4243 48.4806 85.2187 48.3161 85.1776 48.1104C84.9308 46.9997 84.4784 45.9302 83.9026 44.984C83.7792 44.7783 83.8204 44.5727 83.9849 44.4081L84.5195 43.8733C84.7252 43.6677 84.7252 43.3386 84.5195 43.174L82.5043 41.1584C82.2987 40.9527 81.9696 40.9527 81.8051 41.1584L81.2705 41.6931C81.106 41.8577 80.8592 41.8577 80.6947 41.7343C79.7488 41.1584 78.7206 40.7059 77.569 40.459C77.3634 40.4179 77.1989 40.2122 77.1989 40.0065V39.2661C77.1989 38.9781 76.9521 38.7725 76.7053 38.7725H73.8264C73.5385 38.7725 73.3329 39.0193 73.3329 39.2661V40.0065C73.3329 40.2122 73.1684 40.4179 72.9627 40.459C71.8523 40.7059 70.783 41.1584 69.8371 41.7343C69.6314 41.8577 69.4258 41.8165 69.2613 41.652L68.7266 41.1172C68.521 40.9115 68.192 40.9115 68.0275 41.1172L66.0122 43.1329C65.8066 43.3386 65.8066 43.6677 66.0122 43.8322L66.5469 44.367C66.7114 44.5315 66.7114 44.7783 66.6291 44.9429C66.0534 45.889 65.601 46.9174 65.3542 48.0692C65.3131 48.2749 65.1074 48.4395 64.9018 48.4395H64.1615C63.8736 48.4395 63.668 48.6863 63.668 48.9331V51.8126C63.668 52.1006 63.9147 52.3063 64.1615 52.3063H64.9018C65.1074 52.3063 65.3131 52.4708 65.3542 52.6765C65.601 53.7872 66.0534 54.8567 66.6291 55.8028C66.7525 56.0085 66.7114 56.2142 66.5469 56.3787L66.0122 56.9135C65.8066 57.1192 65.8066 57.4483 66.0122 57.6128L68.0275 59.6285C68.2331 59.8342 68.5621 59.8342 68.7266 59.6285L69.2613 59.0937C69.4258 58.9292 69.6726 58.9292 69.8371 59.0115C70.783 59.5874 71.8112 60.0399 72.9627 60.2867C73.1684 60.3278 73.3329 60.5335 73.3329 60.7392V61.4796C73.3329 61.7676 73.5797 61.9733 73.8264 61.9733H76.7053C76.9932 61.9733 77.1989 61.7264 77.1989 61.4796V60.7392C77.1989 60.5335 77.3634 60.3278 77.569 60.2867C78.6795 60.0399 79.7488 59.5874 80.6536 59.0115C80.8592 58.888 81.0648 58.9292 81.2294 59.0937L81.764 59.6285C81.9696 59.8342 82.2987 59.8342 82.4632 59.6285L84.4784 57.6128C84.684 57.4071 84.684 57.0781 84.4784 56.9135L83.9438 56.3787C83.7792 56.2142 83.7792 55.9674 83.8615 55.8028C84.4373 54.8567 84.8897 53.8283 85.1364 52.6765C85.1776 52.4708 85.3832 52.3063 85.5889 52.3063H86.3291C86.617 52.3474 86.8638 52.1417 86.8638 51.8538ZM75.1836 58.0653C70.9475 58.0653 67.5339 54.651 67.5339 50.414C67.5339 46.2181 70.9475 42.7627 75.1836 42.7627C79.4197 42.7627 82.8333 46.177 82.8333 50.414C82.8333 54.6099 79.4197 58.0653 75.1836 58.0653Z"
            fill="#0F7174"></path>
    </g>
    <path opacity="0.2"
        d="M32.7811 127.914C33.5534 127.914 34.1795 127.288 34.1795 126.516C34.1795 125.743 33.5534 125.117 32.7811 125.117C32.0089 125.117 31.3828 125.743 31.3828 126.516C31.3828 127.288 32.0089 127.914 32.7811 127.914Z"
        fill="#F28123"></path>
    <path opacity="0.2"
        d="M219.336 89.8642C220.108 89.8642 220.734 89.238 220.734 88.4655C220.734 87.6931 220.108 87.0669 219.336 87.0669C218.564 87.0669 217.938 87.6931 217.938 88.4655C217.938 89.238 218.564 89.8642 219.336 89.8642Z"
        fill="#F28123"></path>
    <path opacity="0.2"
        d="M216.539 40.1303C217.311 40.1303 217.937 39.5041 217.937 38.7316C217.937 37.9592 217.311 37.333 216.539 37.333C215.767 37.333 215.141 37.9592 215.141 38.7316C215.141 39.5041 215.767 40.1303 216.539 40.1303Z"
        fill="#F28123"></path>
    <path opacity="0.2"
        d="M166.487 22.6887C166.964 22.6887 167.35 22.3019 167.35 21.8248C167.35 21.3477 166.964 20.9609 166.487 20.9609C166.01 20.9609 165.623 21.3477 165.623 21.8248C165.623 22.3019 166.01 22.6887 166.487 22.6887Z"
        fill="#F28123"></path>
    <path opacity="0.2"
        d="M38.2117 10.1832C38.2117 10.6768 37.8005 11.0471 37.3481 11.0471C36.8545 11.0471 36.4844 10.6357 36.4844 10.1832C36.4844 9.68956 36.8957 9.31934 37.3481 9.31934C37.8416 9.31934 38.2117 9.68956 38.2117 10.1832Z"
        fill="#F28123"></path>
    <path opacity="0.2"
        d="M57.5418 63.9893C57.5418 64.483 57.1305 64.8532 56.6781 64.8532C56.1846 64.8532 55.8145 64.4418 55.8145 63.9893C55.8145 63.4957 56.2257 63.1255 56.6781 63.1255C57.1717 63.1255 57.5418 63.4957 57.5418 63.9893Z"
        fill="#F28123"></path>
    <path opacity="0.2"
        d="M25.5027 127.915C25.5027 128.409 25.0915 128.779 24.6391 128.779C24.1455 128.779 23.7754 128.368 23.7754 127.915C23.7754 127.421 24.1867 127.051 24.6391 127.051C25.1326 127.051 25.5027 127.421 25.5027 127.915Z"
        fill="#F28123"></path>
    <path opacity="0.2"
        d="M198.896 128.738C199.669 128.738 200.295 128.111 200.295 127.339C200.295 126.567 199.669 125.94 198.896 125.94C198.124 125.94 197.498 126.567 197.498 127.339C197.498 128.111 198.124 128.738 198.896 128.738Z"
        fill="#F28123"></path>
    <path opacity="0.2"
        d="M228.508 128.738C229.28 128.738 229.906 128.111 229.906 127.339C229.906 126.567 229.28 125.94 228.508 125.94C227.735 125.94 227.109 126.567 227.109 127.339C227.109 128.111 227.735 128.738 228.508 128.738Z"
        fill="#F28123"></path>
    <path opacity="0.2"
        d="M62.2284 7.79726C63.0007 7.79726 63.6267 7.17107 63.6267 6.39863C63.6267 5.62619 63.0007 5 62.2284 5C61.4561 5 60.8301 5.62619 60.8301 6.39863C60.8301 7.17107 61.4561 7.79726 62.2284 7.79726Z"
        fill="#F28123"></path>
    <path opacity="0.2"
        d="M158.303 69.7486C158.303 70.777 157.48 71.5997 156.452 71.5997C155.424 71.5997 154.602 70.777 154.602 69.7486C154.602 68.7202 155.424 67.8975 156.452 67.8975C157.48 67.8975 158.303 68.7202 158.303 69.7486Z"
        fill="#F28123"></path>
    <path opacity="0.2"
        d="M20.8968 46.7125C20.8968 47.7409 20.0742 48.5636 19.046 48.5636C18.0179 48.5636 17.1953 47.7409 17.1953 46.7125C17.1953 45.6841 18.0179 44.8613 19.046 44.8613C20.0331 44.8613 20.8968 45.6841 20.8968 46.7125Z"
        fill="#F28123"></path>
    <path
        d="M15.6322 18.9041H13.2879C13.1234 18.9041 13 18.7807 13 18.6161V16.2714C13 16.1068 13.1234 15.9834 13.2879 15.9834H15.6322C15.7967 15.9834 15.92 16.1068 15.92 16.2714V18.6161C15.92 18.7807 15.7967 18.9041 15.6322 18.9041Z"
        fill="white"></path>
    <path
        d="M19.4993 18.9041H17.1551C16.9906 18.9041 16.8672 18.7807 16.8672 18.6161V16.2714C16.8672 16.1068 16.9906 15.9834 17.1551 15.9834H19.4993C19.6638 15.9834 19.7872 16.1068 19.7872 16.2714V18.6161C19.7872 18.7807 19.6638 18.9041 19.4993 18.9041Z"
        fill="white"></path>
    <path
        d="M23.3646 18.9041H21.0203C20.8558 18.9041 20.7324 18.7807 20.7324 18.6161V16.2714C20.7324 16.1068 20.8558 15.9834 21.0203 15.9834H23.3646C23.5291 15.9834 23.6525 16.1068 23.6525 16.2714V18.6161C23.6525 18.7807 23.5291 18.9041 23.3646 18.9041Z"
        fill="white"></path>
    <path
        d="M212.47 120.386H210.126C209.961 120.386 209.838 120.263 209.838 120.099V117.754C209.838 117.589 209.961 117.466 210.126 117.466H212.47C212.635 117.466 212.758 117.589 212.758 117.754V120.099C212.717 120.263 212.593 120.386 212.47 120.386Z"
        fill="#DEE3FC"></path>
    <path
        d="M216.337 120.386H213.993C213.828 120.386 213.705 120.263 213.705 120.099V117.754C213.705 117.589 213.828 117.466 213.993 117.466H216.337C216.502 117.466 216.625 117.589 216.625 117.754V120.099C216.584 120.263 216.461 120.386 216.337 120.386Z"
        fill="#DEE3FC"></path>
    <path
        d="M220.202 120.386H217.858C217.694 120.386 217.57 120.263 217.57 120.099V117.754C217.57 117.589 217.694 117.466 217.858 117.466H220.202C220.367 117.466 220.49 117.589 220.49 117.754V120.099C220.449 120.263 220.326 120.386 220.202 120.386Z"
        fill="#DEE3FC"></path>
    <path
        d="M33.7708 118.824H31.4266C31.2621 118.824 31.1387 118.7 31.1387 118.536V116.191C31.1387 116.026 31.2621 115.903 31.4266 115.903H33.7708C33.9353 115.903 34.0587 116.026 34.0587 116.191V118.536C34.0587 118.7 33.9353 118.824 33.7708 118.824Z"
        fill="#DEE3FC"></path>
    <path
        d="M37.638 118.824H35.2937C35.1292 118.824 35.0059 118.7 35.0059 118.536V116.191C35.0059 116.026 35.1292 115.903 35.2937 115.903H37.638C37.8025 115.903 37.9259 116.026 37.9259 116.191V118.536C37.9259 118.7 37.8025 118.824 37.638 118.824Z"
        fill="#DEE3FC"></path>
    <path
        d="M41.5032 118.824H39.159C38.9945 118.824 38.8711 118.7 38.8711 118.536V116.191C38.8711 116.026 38.9945 115.903 39.159 115.903H41.5032C41.6678 115.903 41.7911 116.026 41.7911 116.191V118.536C41.7911 118.7 41.6678 118.824 41.5032 118.824Z"
        fill="#DEE3FC"></path>
    <path
        d="M148.905 147.917H91.0563C86.011 147.917 81.9492 143.812 81.9492 138.808V9.95665C81.9492 4.91035 86.0538 0.847656 91.0563 0.847656H148.905C153.95 0.847656 158.012 4.95312 158.012 9.95665V138.765C158.055 143.812 153.95 147.917 148.905 147.917Z"
        fill="#021217"></path>
    <path
        d="M148.607 145.822H91.3567C86.9528 145.822 83.3613 142.229 83.3613 137.824V10.1275C83.3613 5.72265 86.9528 2.13037 91.3567 2.13037H148.607C153.011 2.13037 156.602 5.72265 156.602 10.1275V137.824C156.602 142.229 153.054 145.822 148.607 145.822Z"
        fill="white"></path>
    <path opacity="0.1"
        d="M153.394 9.87112V137.397C153.394 140.391 150.957 142.828 147.964 142.828H91.9535C88.9605 142.828 86.5234 140.391 86.5234 137.397V9.87112C86.5234 6.87756 88.9605 4.43994 91.9535 4.43994H101.317C101.83 4.43994 102.3 4.7393 102.557 5.20972L103.54 7.17692C104.011 8.07499 104.909 8.6737 105.935 8.6737H134.025C135.052 8.6737 135.992 8.11775 136.42 7.17692L137.403 5.20972C137.617 4.7393 138.13 4.43994 138.643 4.43994H147.964C151 4.48271 153.394 6.87756 153.394 9.87112Z"
        fill="#0F7174"></path>
    <path
        d="M131.76 6.36458H109.142C108.629 6.36458 108.201 5.93693 108.201 5.42375C108.201 4.91056 108.629 4.48291 109.142 4.48291H131.76C132.273 4.48291 132.7 4.91056 132.7 5.42375C132.743 5.93693 132.316 6.36458 131.76 6.36458Z"
        fill="#DEE3FC"></path>
    <path
        d="M144.501 138.38H94.1345C92.1677 138.38 90.543 136.755 90.543 134.788V116.998C90.543 115.03 92.1677 113.405 94.1345 113.405H144.501C146.468 113.405 148.093 115.03 148.093 116.998V134.788C148.093 136.798 146.511 138.38 144.501 138.38Z"
        stroke="#F28123" stroke-miterlimit="10" stroke-linecap="round" stroke-linejoin="round"
        stroke-dasharray="2.84 2.84"></path>
    <path
        d="M141.978 77.1834H117.009C115.598 77.1834 114.443 76.0287 114.443 74.6174V62.2583C114.443 60.847 115.598 59.6924 117.009 59.6924H141.978C143.389 59.6924 144.544 60.847 144.544 62.2583V74.6174C144.544 76.0287 143.389 77.1834 141.978 77.1834Z"
        stroke="#F28123" stroke-miterlimit="10" stroke-linecap="round" stroke-linejoin="round"
        stroke-dasharray="2.84 2.84"></path>
    <path
        d="M147.32 109.3H95.7562C94.0459 109.3 92.6777 107.932 92.6777 106.221V84.4536C92.6777 82.743 94.0459 81.3745 95.7562 81.3745H147.363C149.073 81.3745 150.441 82.743 150.441 84.4536V106.221C150.398 107.932 149.03 109.3 147.32 109.3Z"
        fill="#0F7174"></path>
    <path
        d="M148.091 82.187V103.955C148.091 105.665 146.723 107.034 145.012 107.034H93.6624C91.9522 107.034 90.584 105.665 90.584 103.955V82.187C90.584 80.4764 91.9522 79.1079 93.6624 79.1079H145.055C146.723 79.1079 148.091 80.4764 148.091 82.187Z"
        fill="#0F7174"></path>
    <path
        d="M110.422 104.767H95.2865C94.132 104.767 93.1914 103.826 93.1914 102.671V87.5325C93.1914 86.3779 94.132 85.437 95.2865 85.437H110.422C111.577 85.437 112.517 86.3779 112.517 87.5325V102.671C112.517 103.826 111.577 104.767 110.422 104.767Z"
        fill="white"></path>
    <path
        d="M128.38 87.9177H115.04C114.698 87.9177 114.398 87.6184 114.398 87.2762C114.398 86.9341 114.698 86.6348 115.04 86.6348H128.38C128.722 86.6348 129.021 86.9341 129.021 87.2762C129.021 87.6184 128.764 87.9177 128.38 87.9177Z"
        fill="#F8F9F9"></path>
    <path
        d="M122.308 90.5266H115.04C114.698 90.5266 114.398 90.2273 114.398 89.8851C114.398 89.543 114.698 89.2437 115.04 89.2437H122.308C122.65 89.2437 122.95 89.543 122.95 89.8851C122.95 90.2273 122.65 90.5266 122.308 90.5266Z"
        fill="#F8F9F9"></path>
    <path
        d="M144.628 90.5266H125.003C124.661 90.5266 124.361 90.2273 124.361 89.8851C124.361 89.543 124.661 89.2437 125.003 89.2437H144.628C144.97 89.2437 145.269 89.543 145.269 89.8851C145.269 90.2273 144.97 90.5266 144.628 90.5266Z"
        fill="#F8F9F9"></path>
    <path
        d="M126.285 93.135H115.04C114.698 93.135 114.398 92.8356 114.398 92.4935C114.398 92.1514 114.698 91.8521 115.04 91.8521H126.285C126.627 91.8521 126.926 92.1514 126.926 92.4935C126.926 92.8784 126.627 93.135 126.285 93.135Z"
        fill="#F8F9F9"></path>
    <path
        d="M135.819 93.135H128.764C128.422 93.135 128.123 92.8356 128.123 92.4935C128.123 92.1514 128.422 91.8521 128.764 91.8521H135.819C136.161 91.8521 136.46 92.1514 136.46 92.4935C136.46 92.8784 136.161 93.135 135.819 93.135Z"
        fill="#F8F9F9"></path>
    <path
        d="M144.627 93.135H138.128C137.786 93.135 137.486 92.8356 137.486 92.4935C137.486 92.1514 137.786 91.8521 138.128 91.8521H144.627C144.969 91.8521 145.268 92.1514 145.268 92.4935C145.268 92.8784 144.969 93.135 144.627 93.135Z"
        fill="#F8F9F9"></path>
    <path
        d="M144.627 95.7864H115.083C114.741 95.7864 114.441 95.487 114.441 95.1449C114.441 94.8028 114.741 94.5034 115.083 94.5034H144.627C144.969 94.5034 145.269 94.8028 145.269 95.1449C145.269 95.487 144.969 95.7864 144.627 95.7864Z"
        fill="#F8F9F9"></path>
    <path
        d="M131.33 98.3953H115.04C114.698 98.3953 114.398 98.0959 114.398 97.7538C114.398 97.4117 114.698 97.1123 115.04 97.1123H131.33C131.672 97.1123 131.971 97.4117 131.971 97.7538C131.971 98.0959 131.672 98.3953 131.33 98.3953Z"
        fill="#F8F9F9"></path>
    <path
        d="M144.627 98.3953H133.938C133.596 98.3953 133.297 98.0959 133.297 97.7538C133.297 97.4117 133.596 97.1123 133.938 97.1123H144.627C144.969 97.1123 145.269 97.4117 145.269 97.7538C145.269 98.0959 144.969 98.3953 144.627 98.3953Z"
        fill="#F8F9F9"></path>
    <path
        d="M124.617 101.004H115.04C114.698 101.004 114.398 100.705 114.398 100.363C114.398 100.021 114.698 99.7212 115.04 99.7212H124.617C124.959 99.7212 125.258 100.021 125.258 100.363C125.258 100.705 124.959 101.004 124.617 101.004Z"
        fill="#F8F9F9"></path>
    <path
        d="M136.76 101.004H127.182C126.84 101.004 126.541 100.705 126.541 100.363C126.541 100.021 126.84 99.7212 127.182 99.7212H136.76C137.102 99.7212 137.401 100.021 137.401 100.363C137.401 100.705 137.102 101.004 136.76 101.004Z"
        fill="#F8F9F9"></path>
    <path
        d="M144.627 101.004H139.069C138.727 101.004 138.428 100.705 138.428 100.363C138.428 100.021 138.727 99.7212 139.069 99.7212H144.627C144.969 99.7212 145.269 100.021 145.269 100.363C145.269 100.705 144.969 101.004 144.627 101.004Z"
        fill="#F8F9F9"></path>
    <path
        d="M128.38 103.655H115.04C114.698 103.655 114.398 103.356 114.398 103.014C114.398 102.671 114.698 102.372 115.04 102.372H128.38C128.722 102.372 129.021 102.671 129.021 103.014C129.021 103.356 128.764 103.655 128.38 103.655Z"
        fill="#F8F9F9"></path>
    <path
        d="M144.628 87.9177H131.288C130.946 87.9177 130.646 87.6184 130.646 87.2762C130.646 86.9341 130.946 86.6348 131.288 86.6348H144.628C144.97 86.6348 145.269 86.9341 145.269 87.2762C145.269 87.6184 144.97 87.9177 144.628 87.9177Z"
        fill="#F8F9F9"></path>
    <path
        d="M148.089 82.187V83.0851H90.582V82.187C90.582 80.4764 91.9502 79.1079 93.6605 79.1079H145.053C146.721 79.1079 148.089 80.4764 148.089 82.187Z"
        fill="#F28123"></path>
    <path
        d="M137.27 81.1606C137.27 81.5455 136.971 81.8876 136.543 81.8876C136.158 81.8876 135.816 81.5883 135.816 81.1606C135.816 80.7757 136.116 80.4336 136.543 80.4336C136.928 80.4764 137.27 80.7757 137.27 81.1606Z"
        fill="#DEE3FC"></path>
    <path
        d="M140.905 81.1606C140.905 81.5455 140.606 81.8876 140.178 81.8876C139.75 81.8876 139.451 81.5883 139.451 81.1606C139.451 80.7757 139.75 80.4336 140.178 80.4336C140.606 80.4336 140.905 80.7757 140.905 81.1606Z"
        fill="#DEE3FC"></path>
    <path
        d="M144.538 81.1606C144.538 81.5455 144.238 81.8876 143.811 81.8876C143.426 81.8876 143.084 81.5883 143.084 81.1606C143.084 80.7757 143.383 80.4336 143.811 80.4336C144.238 80.4764 144.538 80.7757 144.538 81.1606Z"
        fill="#DEE3FC"></path>
    <path
        d="M108.373 77.1832H97.0003C95.3328 77.1832 93.9219 75.8147 93.9219 74.1041V62.7285C93.9219 61.0607 95.2901 59.6494 97.0003 59.6494H108.373C110.041 59.6494 111.452 61.0179 111.452 62.7285V74.1041C111.452 75.8147 110.084 77.1832 108.373 77.1832Z"
        stroke="#F28123" stroke-width="0.8956" stroke-miterlimit="10"></path>
    <path d="M99.9503 65.8936L97.4277 68.4167L99.9931 70.9398" stroke="#F28123" stroke-width="1.6716"
        stroke-miterlimit="10" stroke-linecap="round" stroke-linejoin="round"></path>
    <path d="M105.424 65.8936L107.946 68.4167L105.381 70.9398" stroke="#F28123" stroke-width="1.6716"
        stroke-miterlimit="10" stroke-linecap="round" stroke-linejoin="round"></path>
    <path d="M103.885 65.8936L101.49 70.9398" stroke="#F28123" stroke-width="1.6716" stroke-miterlimit="10"
        stroke-linecap="round" stroke-linejoin="round"></path>
    <path
        d="M148.093 16.9272V52.5506C148.093 54.475 146.511 56.0573 144.587 56.0573H94.049C92.1249 56.0573 90.543 54.475 90.543 52.5506V16.9272C90.543 15.0027 92.1249 13.4204 94.049 13.4204H144.587C146.553 13.4204 148.093 15.0027 148.093 16.9272Z"
        fill="#A7ADAF"></path>
    <path
        d="M136.462 33.0495C141.067 33.0495 144.8 29.3159 144.8 24.7103C144.8 20.1047 141.067 16.3711 136.462 16.3711C131.858 16.3711 128.125 20.1047 128.125 24.7103C128.125 29.3159 131.858 33.0495 136.462 33.0495Z"
        fill="#F0F4FF"></path>
    <path
        d="M124.406 56.0572H94.049C92.1249 56.0572 90.543 54.4749 90.543 52.5505V46.9482L103.797 23.9406C104.481 22.7431 106.234 22.7431 106.919 23.9406L116.966 41.3032L124.406 54.1756C124.791 54.817 124.705 55.5013 124.406 56.0572Z"
        fill="white"></path>
    <path
        d="M137.446 56.0575H108.457L116.965 41.3035L121.54 33.3492C122.182 32.2801 123.721 32.2801 124.362 33.3492L137.446 56.0575Z"
        fill="#F0F4FF"></path>
    <path d="M194.994 122.215H172.633V155.829H194.994V122.215Z" fill="#CB6612"></path>
    <path d="M194.988 155.817H203.539V122.204H194.988V155.817Z" fill="#F28123"></path>
    <path d="M202.475 123.498H196.189V124.567H202.475V123.498Z" fill="#F8F9F9"></path>
    <path d="M202.475 125.808H196.189V126.877H202.475V125.808Z" fill="#F8F9F9"></path>
    <path d="M202.475 128.117H196.189V129.186H202.475V128.117Z" fill="#F8F9F9"></path>
    <path d="M202.475 130.426H196.189V131.495H202.475V130.426Z" fill="#F8F9F9"></path>
    <path d="M202.475 132.735H196.189V133.804H202.475V132.735Z" fill="#F8F9F9"></path>
    <path d="M202.475 135.044H196.189V136.114H202.475V135.044Z" fill="#F8F9F9"></path>
    <path d="M202.475 137.311H196.189V138.38H202.475V137.311Z" fill="#F8F9F9"></path>
    <path d="M202.475 139.621H196.189V140.69H202.475V139.621Z" fill="#F8F9F9"></path>
    <path d="M202.475 141.93H196.189V142.999H202.475V141.93Z" fill="#F8F9F9"></path>
    <path d="M202.475 144.239H196.189V145.308H202.475V144.239Z" fill="#F8F9F9"></path>
    <path d="M202.475 146.549H196.189V147.618H202.475V146.549Z" fill="#F8F9F9"></path>
    <path d="M202.475 148.858H196.189V149.927H202.475V148.858Z" fill="#F8F9F9"></path>
    <path d="M202.475 151.167H196.189V152.236H202.475V151.167Z" fill="#F8F9F9"></path>
    <path d="M202.475 153.434H196.189V154.503H202.475V153.434Z" fill="#F8F9F9"></path>
    <path
        d="M168.999 155.829H180.372C180.372 155.829 181.013 153.819 179.645 151.295C179.645 151.295 178.747 152.022 176.011 151.552C176.011 151.552 174.856 152.536 174.087 152.92C173.231 153.263 168.699 154.161 168.999 155.829Z"
        fill="#281616"></path>
    <path
        d="M169.768 123.798C170.495 128.16 173.873 142.999 175.326 151.723C177.977 151.937 179.26 151.638 179.944 151.509C179.816 148.473 179.559 141.16 179.559 137.953C179.602 132.522 179.858 125.423 177.464 121.488L169.469 122.13C169.512 122.557 169.554 122.9 169.597 123.156C169.683 123.37 169.725 123.584 169.768 123.798Z"
        fill="#0F7174"></path>
    <path
        d="M148.432 155.829H159.805C159.805 155.829 160.447 153.819 159.078 151.295C159.078 151.295 158.181 152.022 155.444 151.552C155.444 151.552 154.29 152.536 153.52 152.92C152.665 153.263 148.133 154.161 148.432 155.829Z"
        fill="#281616"></path>
    <path
        d="M155.059 151.467C157.239 152.023 158.821 151.937 159.548 151.852C160.147 148.345 161.087 140.604 161.985 136.969C163.311 131.324 164.636 123.584 163.695 120.804L155.828 118.837C155.785 119.094 155.144 142.828 155.059 151.467Z"
        fill="#021217"></path>
    <path
        d="M186.4 110.754C186.229 109.214 186.058 108.06 186.058 108.06L177.251 110.198L169.768 111.908C166.989 112.507 163.654 113.277 160.704 113.918C157.412 114.688 155.189 117.169 155.915 120.504L156.728 124.524C161.345 124.481 183.151 122.386 184.99 121.445C187.17 120.419 187.811 116.655 186.4 110.754Z"
        fill="#021217"></path>
    <path
        d="M199.569 110.754C199.398 109.214 198.671 107.546 198.671 107.546L190.462 110.241L182.979 111.951C180.2 112.55 176.865 113.32 173.915 113.961C170.623 114.731 168.399 117.211 169.126 120.547L169.939 124.567C174.556 124.524 193.925 123.84 198.2 121.488C200.253 120.333 200.937 116.655 199.569 110.754Z"
        fill="#0F7174"></path>
    <path
        d="M174.939 98.1387C174.939 98.1387 178.83 96.3853 179.942 98.1387C180.541 99.1223 180.113 100.918 178.788 101.645C177.462 102.415 169.937 105.58 162.797 107.376C162.797 107.376 162.497 106.392 161.984 105.366C161.984 105.366 165.191 104.04 168.355 101.816C171.519 99.5927 174.939 98.1387 174.939 98.1387Z"
        fill="#BE7A3B"></path>
    <path
        d="M175.882 85.9502L172.547 99.3357C172.547 99.3357 172.889 102.714 176.309 101.046C179.73 99.3785 181.996 88.7299 181.996 88.7299L175.882 85.9502Z"
        fill="#BE7A3B"></path>
    <path
        d="M181.568 93.4341C181.14 93.3486 180.755 93.2203 180.37 93.092C179.986 92.9637 179.601 92.8782 179.259 92.7499C176.095 91.638 174.342 90.355 174.342 90.355C175.325 85.9929 176.565 83.0849 177.634 81.1605C177.677 81.1177 177.677 81.0749 177.72 81.0322C177.762 80.9894 177.762 80.9467 177.805 80.9039C178.361 79.9631 179.216 79.1505 180.114 78.4663C180.199 78.3807 180.285 78.338 180.413 78.2524L180.798 85.2232L180.883 85.9502L181.568 93.4341Z"
        fill="white"></path>
    <path
        d="M181.569 93.4344C181.141 93.3489 180.756 93.2206 180.371 93.0923C179.987 92.964 179.602 92.8785 179.26 92.7502C179.944 88.046 180.542 85.0952 180.542 85.0952L180.885 85.9505L181.569 93.4344Z"
        fill="#C7E5F2"></path>
    <path
        d="M201.363 81.3316C201.278 83.3843 200.936 86.72 200.594 90.0557C200.508 91.1249 200.38 92.194 200.337 93.2203C200.295 93.8618 199.311 97.283 199.268 97.8818C199.097 100.79 197.686 102.971 199.012 107.418C199.354 108.488 199.397 109.043 199.397 109.471C199.397 109.77 199.012 110.113 198.841 110.198C198.285 110.54 197.173 110.754 195.805 110.925C193.154 111.267 189.563 111.31 187.382 111.31C184.475 111.31 180.114 110.84 179.558 110.113C179.045 109.428 179.515 108.445 179.772 107.119C180.841 101.046 180.456 97.839 180.413 93.4769C180.413 93.3486 180.413 93.2631 180.413 93.1348C180.285 86.3779 179.857 80.5618 180.156 78.4663C180.242 78.3808 180.327 78.338 180.456 78.2525C180.926 77.9532 181.354 77.6538 181.824 77.3972C181.867 77.3972 181.909 77.3544 181.952 77.3117C182.08 77.2262 182.209 77.1834 182.337 77.0979C182.38 77.0551 182.423 77.0551 182.508 77.0123C183.491 76.5419 184.945 76.0287 185.757 75.7294C185.843 75.6866 185.971 75.6438 186.057 75.6438C186.826 75.6011 187.682 75.6011 188.579 75.6011C189.349 75.6438 190.589 75.7294 191.914 75.9004C193.411 76.0715 195.036 76.3709 196.318 76.713C196.318 76.713 196.318 76.713 196.361 76.713C196.618 76.7985 198.2 77.3972 199.824 79.1506C200.295 79.7493 200.85 80.4763 201.363 81.3316Z"
        fill="white"></path>
    <path
        d="M199.012 107.418C199.354 108.487 199.397 109.043 199.397 109.471C199.397 109.77 199.012 110.112 198.841 110.198C198.285 110.54 197.174 110.754 195.806 110.925C196.361 110.839 197.345 109.984 197.345 109.172C197.345 108.616 196.618 104.852 196.832 102.415C197.046 99.9771 197.43 96.1282 196.661 93.0063C195.891 89.9272 195.207 85.8218 195.207 85.8218L199.44 88.3877C199.44 88.3877 199.996 89.1575 200.594 90.0983C200.509 91.1674 200.381 92.2366 200.338 93.2629C200.252 93.8616 197.644 102.971 199.012 107.418Z"
        fill="#C7E5F2"></path>
    <path
        d="M180.328 63.4556C180.328 63.4556 180.713 67.9031 182.167 68.2025C183.62 68.5019 183.278 66.6202 183.278 66.6202L183.065 64.5247L180.328 63.4556Z"
        fill="black"></path>
    <path
        d="M187.127 79.5353C184.262 79.1931 185.331 76.3706 185.716 75.7292C185.801 75.6864 186.314 75.5581 186.357 75.5153C186.443 75.4298 186.528 75.3443 186.571 75.1732C186.87 74.4462 186.742 72.9494 186.699 72.8639V72.6073C186.742 72.4362 186.785 72.2652 186.827 72.0941L188.324 70.8967L191.531 68.3735C191.531 68.3735 190.675 72.6073 191.36 75.2587C191.402 75.4726 191.531 75.7292 191.787 75.9002C191.873 75.943 191.958 75.9857 192.086 76.0285C192.942 76.4134 191.83 80.0912 187.127 79.5353Z"
        fill="#BE7A3B"></path>
    <path
        d="M189.649 71.0674C189.649 71.0674 189.606 73.8899 186.57 75.1728C186.87 74.4458 186.741 72.949 186.699 72.8635L187.981 71.8799L189.649 71.0674Z"
        fill="#996C42"></path>
    <path
        d="M181.012 64.0541C181.012 64.0541 181.696 73.2486 184.176 74.0612C184.176 74.0612 187.34 74.3605 189.606 71.2814C190.247 70.3833 191.102 70.2123 191.359 69.1432C191.786 67.4325 192.428 64.2252 191.615 62.3007C190.546 59.5637 181.14 57.3827 181.012 64.0541Z"
        fill="#BE7A3B"></path>
    <path
        d="M191.701 60.8043C191.659 59.1364 189.948 58.4949 189.948 58.4949C188.281 57.7252 184.775 58.0673 181.141 58.8371C180.285 59.0081 179.217 58.4949 178.618 58.9226C177.891 59.4358 178.618 61.7023 178.618 61.7023C180.029 65.9361 185.16 64.5676 186.699 64.0117C187.084 65.0808 186.998 66.6203 187.939 67.3901C188.452 67.8178 189.35 67.8605 190.29 67.6895C190.419 67.9033 190.846 68.0744 190.932 68.3737C191.231 69.3573 191.188 70.8969 191.188 72.0943L191.616 71.8805C191.659 71.5811 196.148 60.9326 191.701 60.8043Z"
        fill="black"></path>
    <path
        d="M183.576 67.1753C183.705 67.9451 183.32 68.6294 182.721 68.7577C182.123 68.8432 181.524 68.33 181.396 67.5602C181.267 66.7905 181.652 66.1062 182.251 65.9779C182.849 65.8496 183.448 66.4056 183.576 67.1753Z"
        stroke="white" stroke-width="0.501" stroke-miterlimit="10"></path>
    <path
        d="M186.569 66.6197C186.697 67.3895 186.312 68.0737 185.713 68.202C185.115 68.2875 184.516 67.7744 184.388 67.0046C184.26 66.2348 184.644 65.5506 185.243 65.4223C185.884 65.294 186.44 65.8499 186.569 66.6197Z"
        stroke="white" stroke-width="0.501" stroke-miterlimit="10"></path>
    <path d="M183.576 67.1757C183.576 67.1757 183.704 66.9619 184.389 67.0047" stroke="white" stroke-width="0.501"
        stroke-miterlimit="10"></path>
    <path d="M186.611 66.7909L189.177 66.3633" stroke="white" stroke-width="0.501" stroke-miterlimit="10"></path>
    <path
        d="M189.393 69.6567C191.146 70.3409 191.702 65.9788 190.034 65.765C188.752 65.6367 188.709 67.3901 188.709 67.3901C188.709 67.3901 188.367 69.2718 189.393 69.6567Z"
        fill="#BE7A3B"></path>
    <g opacity="0.5">
        <path
            d="M189.952 66.4487C189.952 66.4487 189.823 66.577 189.738 66.7481C189.652 66.9619 189.524 67.2185 189.524 67.4751C189.524 67.6034 189.524 67.7744 189.524 67.9027C189.524 68.031 189.524 68.1593 189.567 68.2876C189.567 68.4159 189.61 68.5015 189.61 68.587C189.61 68.6725 189.61 68.7153 189.61 68.7153C189.61 68.7153 189.567 68.6725 189.567 68.6298C189.524 68.587 189.481 68.5015 189.439 68.3732C189.396 68.2449 189.353 68.1166 189.31 67.9883C189.268 67.8172 189.268 67.6889 189.268 67.5179C189.268 67.3468 189.31 67.1757 189.396 67.0474C189.481 66.9191 189.567 66.7908 189.652 66.7053C189.781 66.4487 189.952 66.4487 189.952 66.4487Z"
            fill="#CC6362"></path>
        <path
            d="M190.251 67.2612C190.251 67.2612 190.165 67.2612 190.08 67.304C189.994 67.3468 189.866 67.3895 189.781 67.5178C189.695 67.6034 189.61 67.7316 189.61 67.8172C189.567 67.9027 189.567 67.9882 189.567 67.9882L189.268 67.9027C189.268 67.9027 189.31 67.8172 189.353 67.7316C189.439 67.6461 189.524 67.5178 189.695 67.4323C189.823 67.3468 189.994 67.304 190.08 67.304C190.165 67.2612 190.251 67.2612 190.251 67.2612Z"
            fill="#CC6362"></path>
    </g>
    <path
        d="M206.367 99.9343C205.598 100.832 202.647 101.517 201.237 100.234C200.809 99.8488 200.296 98.7796 199.783 97.4967C198.543 94.161 197.346 89.2002 197.346 89.2002L203.93 85.8218C203.93 85.8218 204.785 89.6279 205.512 93.2629C205.512 93.2629 205.512 93.3057 205.512 93.3485C205.769 94.5031 205.982 95.6578 206.153 96.6414C206.153 96.6841 206.153 96.6841 206.153 96.7269C206.367 97.8816 206.496 99.079 206.367 99.9343Z"
        fill="#BE7A3B"></path>
    <path
        d="M194.865 84.5819C195.507 87.2334 197.516 92.2797 197.516 92.2797C198.927 92.4935 200.808 92.2369 202.348 91.681C204.143 91.0395 205.426 89.671 205.426 89.671C205.426 89.671 204.101 85.9504 202.903 83.2562C201.834 80.8614 201.193 79.9633 200.723 79.4501C200.039 78.7231 198.884 77.8678 198.115 77.4829L194.865 84.5819Z"
        fill="white"></path>
    <path
        d="M203.204 86.2925L199.313 84.6247L196.277 76.7559C196.277 76.7559 196.833 76.9269 197.56 77.2263C197.56 77.2263 197.603 77.2263 197.646 77.269C197.646 77.269 197.688 77.269 197.688 77.3118C198.33 77.6112 200.895 79.1079 202.648 84.5819C202.648 84.6247 202.691 84.6674 202.691 84.7102C202.862 85.3517 203.033 85.8649 203.076 86.1214C203.076 86.1642 203.076 86.1642 203.076 86.207C203.161 86.207 203.204 86.2497 203.204 86.2925Z"
        fill="white"></path>
    <path
        d="M206.364 99.9345C206.321 100.405 206.193 100.79 205.936 100.875C205.894 100.918 205.338 101.217 205.338 101.26C204.526 101.773 203.072 102.586 201.233 103.399C196.829 105.323 190.416 107.504 186.953 108.53C186.953 108.53 186.611 107.547 186.098 106.52C186.098 106.52 189.219 105.066 192.297 102.714C195.376 100.362 199.822 97.4969 199.822 97.4969L200.934 96.1712C200.934 96.1712 204.91 92.4934 205.552 93.2632C205.552 93.2632 205.552 93.3059 205.552 93.3487C205.637 93.7336 205.979 95.1448 206.193 96.6416C206.193 96.6844 206.193 96.6844 206.193 96.7271C206.364 97.8818 206.492 99.0792 206.364 99.9345Z"
        fill="#BE7A3B"></path>
    <path
        d="M186.526 106.264C186.526 106.264 185.757 106.734 184.944 106.563C184.517 106.478 184.346 106.307 184.004 106.221C183.662 106.178 182.806 106.05 182.379 105.836C181.951 105.622 181.78 105.622 181.78 106.05C181.78 106.478 182.635 106.863 182.849 106.948C183.063 107.076 183.362 107.461 183.405 107.504C183.448 107.547 181.994 108.317 181.609 108.146C181.609 108.146 181.481 108.488 181.567 108.702C181.652 108.915 181.909 108.958 181.951 109.044C181.994 109.129 181.866 109.343 181.951 109.514C181.994 109.685 182.293 109.685 182.379 109.899C182.464 110.156 182.379 110.156 182.464 110.412C182.55 110.669 182.892 110.711 182.935 110.84C182.977 110.968 182.977 111.139 183.106 111.225C183.234 111.31 184.517 110.883 185.03 110.711C185.5 110.498 186.74 108.702 188.151 108.06L186.526 106.264Z"
        fill="#BE7A3B"></path>
    <path
        d="M193.112 114.389H183.064V113.405H193.112C193.369 113.405 193.582 113.619 193.582 113.876C193.625 114.175 193.411 114.389 193.112 114.389Z"
        fill="#064F4A"></path>
    <path
        d="M187.682 114.389H162.542C162.242 114.389 161.986 114.175 161.9 113.919L156.769 95.4014C156.641 94.9738 156.983 94.5889 157.411 94.5889H181.696C182.252 94.5889 182.765 94.9738 182.893 95.5297L188.024 114.004C188.11 114.175 187.939 114.389 187.682 114.389Z"
        fill="#064F4A"></path>
    <path
        d="M186.784 114.389H161.643C161.344 114.389 161.087 114.175 161.002 113.919L155.871 95.4014C155.743 94.9738 156.085 94.5889 156.512 94.5889H180.841C181.396 94.5889 181.91 94.9738 182.038 95.5297L187.168 114.004C187.211 114.175 187.04 114.389 186.784 114.389Z"
        fill="#0F7174"></path>
    <path
        d="M87.0781 102.415L89.9855 99.4211C89.9855 99.4211 90.0711 98.0954 90.2421 97.7961C90.4131 97.4967 90.7979 96.4703 91.0117 96.342C91.2255 96.2137 91.6103 96.342 91.6103 96.342C91.6103 96.342 91.9951 96.2137 92.2089 96.2137C92.3799 96.2137 92.7219 96.3848 92.7219 96.3848C92.7219 96.3848 93.1495 96.342 93.3205 96.342C93.4915 96.342 93.5771 96.3848 93.5771 96.3848C93.5771 96.3848 94.2611 95.5723 94.6032 95.3157C94.9452 95.0591 95.4583 94.5459 95.6294 94.5459C95.7576 94.5459 95.8431 94.8025 95.7149 95.0591C95.6293 95.3157 95.159 95.7861 95.159 95.7861L93.8336 97.7961C93.8336 97.7961 94.0474 97.7105 94.1756 97.625C94.3039 97.5395 95.1163 96.8125 95.159 96.7697C95.2018 96.7269 95.5866 96.5131 95.8004 96.7269C96.0142 96.9408 94.3894 98.908 94.1329 99.1645C93.8764 99.4211 92.4226 100.148 92.4226 100.148C92.4226 100.148 90.8834 102.928 90.7124 103.142C90.5841 103.356 87.0781 102.415 87.0781 102.415Z"
        fill="#BE7A3B"></path>
    <path
        d="M89.8134 88.6016C89.8134 88.6016 88.1887 98.0527 86.6495 98.2666C86.6495 98.2666 80.5354 98.5232 79.1672 91.082C77.97 84.6672 82.7159 83.256 84.9392 83.7692C87.2053 84.2823 90.3265 84.5817 89.8134 88.6016Z"
        fill="#BE7A3B"></path>
    <path
        d="M84.4268 96.77C84.4268 96.77 83.5717 97.9247 83.2724 100.704C83.2724 100.704 80.7071 101.089 78.3555 99.8491C78.3555 99.8491 79.6382 95.9147 79.7664 91.6382"
        fill="#BE7A3B"></path>
    <path
        d="M82.7156 82.1868C79.3806 82.9138 79.6371 85.0093 79.6371 85.0093C78.0552 85.3942 77.7559 86.0356 77.7559 88.9437C77.7559 91.8517 78.8248 95.3157 79.3806 95.5723C79.9364 95.8716 83.2286 95.8716 83.4852 95.7861C83.7417 95.7006 84.8961 93.0491 84.6396 92.5787C84.3831 92.1083 84.6396 90.2694 85.4092 90.2266C86.1788 90.1411 86.0078 91.3385 86.0078 91.3385L86.6491 91.2102L87.1194 90.0128C91.5233 90.2694 92.6777 85.2231 92.6777 85.2231C91.6516 84.4961 86.0505 81.4598 82.7156 82.1868Z"
        fill="black"></path>
    <path
        d="M45.6046 146.036L48.9823 146.506L47.8707 150.44L44.1937 149.5C44.1937 149.5 42.6972 147.49 44.9633 145.993C45.0488 145.95 45.4336 145.993 45.6046 146.036Z"
        fill="#BE7A3B"></path>
    <path
        d="M70.8299 135.9L65.8274 120.804C65.8274 120.804 64.331 120.248 63.5613 120.804C63.5613 120.804 58.3879 123.584 58.9437 131.538C59.3713 137.525 60.6112 144.026 61.1243 146.634L47.8271 146.164C47.8271 146.164 46.2024 148.131 47.2285 150.654C47.2285 150.654 63.9462 155.145 66.2977 155.572C68.2218 155.914 70.3168 156.171 71.3002 155.316C73.096 153.776 70.8299 135.9 70.8299 135.9Z"
        fill="#021217"></path>
    <path
        d="M61.339 146.036L64.7167 146.506L63.6051 150.44L59.928 149.5C59.928 149.5 58.4316 147.49 60.6976 145.993C60.8259 145.95 61.168 145.993 61.339 146.036Z"
        fill="#BE7A3B"></path>
    <path
        d="M60.0986 148.088C60.013 148.858 60.6971 149.585 60.5689 149.756C60.4406 149.97 58.1745 153.776 58.1745 153.776C58.1745 153.776 59.8848 154.503 59.6282 155.615H55.2671C55.2671 155.615 54.1127 154.589 54.1555 153.135C54.1555 153.135 54.4547 151.467 55.2244 149.97C55.994 148.473 57.747 145.095 57.747 145.095C57.747 145.095 58.26 144.881 59.2007 145.138C60.2696 145.437 61.2957 146.078 61.2957 146.078C61.2957 146.078 60.3123 146.164 60.0986 148.088Z"
        fill="#021217"></path>
    <path
        d="M94.9007 152.151C93.8318 148.131 83.7413 131.067 80.3208 126.449C73.3088 123.412 65.8265 120.804 65.8265 120.804C62.7481 121.531 61.2089 127.774 62.9619 131.923C64.159 134.788 71.8124 141.93 76.4728 146.163H63.5177C63.5177 146.163 61.9785 148.43 63.3894 150.611C63.3894 150.611 84.9385 155.529 86.8198 155.786C88.701 156.042 92.9339 155.786 92.9339 155.786C92.9339 155.786 95.7985 155.486 94.9007 152.151Z"
        fill="#0F7174"></path>
    <path
        d="M44.3642 148.088C44.2787 148.858 44.9628 149.585 44.8345 149.756C44.7062 149.97 42.4402 153.776 42.4402 153.776C42.4402 153.776 44.1504 154.503 43.8939 155.615H39.5327C39.5327 155.615 38.3783 154.589 38.4211 153.135C38.4211 153.135 38.7204 151.467 39.49 149.97C40.2596 148.473 42.0126 145.095 42.0126 145.095C42.0126 145.095 42.5257 144.881 43.4663 145.138C44.5352 145.437 45.5613 146.078 45.5613 146.078C45.5613 146.078 44.578 146.164 44.3642 148.088Z"
        fill="#021217"></path>
    <path
        d="M111.149 99.5068L104.18 111.738L99.2198 106.777L95.1152 112.892L96.3124 113.448L95.8848 113.79C95.8848 113.79 105.505 118.452 106.659 117.425C107.814 116.399 113.158 100.833 113.158 100.833L111.149 99.5068Z"
        fill="#BE7A3B"></path>
    <path
        d="M100.075 107.547C100.075 107.547 98.75 113.106 96.1418 115.715L89.4291 113.149C89.4291 113.149 86.3079 118.409 83.2723 122.429C82.1178 123.969 81.6903 126.15 80.3221 126.449C80.2366 126.406 80.1511 126.406 80.0655 126.364C76.3458 125.252 70.8302 126.449 66.2981 124.739C61.2956 122.857 62.2363 121.831 62.2363 121.831C62.2363 121.831 65.2719 116.357 67.0249 110.541C67.7946 107.975 68.3504 105.58 68.6924 103.741C69.3338 100.448 71.9847 97.882 75.2769 97.4116C75.3196 97.4116 75.3624 97.4116 75.4051 97.4116C79.2104 96.9412 89.1726 98.0959 91.0966 98.9512C93.0206 99.7209 100.075 107.547 100.075 107.547Z"
        fill="#F28123"></path>
    <path
        d="M89.4293 113.149C89.4293 113.149 86.3081 118.409 83.2724 122.429C82.118 123.968 81.6905 126.149 80.3223 126.449C80.9209 126.235 81.947 123.07 82.289 122.343C82.6311 121.616 83.2297 120.932 84.4696 118.409C85.7095 115.928 87.377 112.25 87.377 112.25L89.4293 113.149Z"
        fill="#FF9740"></path>
    <path
        d="M76.4746 146.164C76.4746 146.164 76.5601 146.121 76.7739 146.121C76.9449 146.121 77.2442 146.078 77.5435 146.036C78.1849 145.993 79.04 146.036 79.8951 146.164C80.3227 146.207 80.7502 146.292 81.135 146.378C81.5198 146.463 81.9046 146.592 82.2039 146.677C82.5032 146.763 82.7598 146.891 82.9308 146.976C83.1018 147.062 83.1873 147.105 83.1873 147.105C83.1873 147.105 83.059 147.105 82.888 147.062C82.717 147.019 82.4605 146.976 82.1184 146.934C81.4771 146.848 80.6647 146.677 79.8096 146.592C79.382 146.506 78.9545 146.463 78.5697 146.42C78.1849 146.378 77.8001 146.335 77.5008 146.292C76.9022 146.207 76.4746 146.164 76.4746 146.164Z"
        fill="black"></path>
    <path
        d="M116.324 95.0165C116.195 95.0165 115.511 95.5724 115.169 95.8718L115.554 95.102C115.554 95.102 116.067 94.5888 116.281 94.3322C116.452 94.0329 116.366 93.7763 116.238 93.7763C116.153 93.7763 115.511 94.2467 115.127 94.5461L115.212 94.375C115.212 94.375 115.725 93.8618 115.939 93.6052C116.11 93.3059 116.024 93.0493 115.896 93.0493C115.768 93.0493 114.528 94.0329 114.528 94.0329L113.929 94.8027L114.357 93.9473C114.357 93.9473 114.571 93.648 114.742 93.3486C114.913 93.0493 114.784 92.9637 114.699 92.8354C114.613 92.7499 113.801 93.3486 113.587 93.5625C113.374 93.819 112.732 94.8026 112.689 94.9309L112.005 96.3422C111.963 95.9145 111.877 95.2303 111.834 94.8027C111.749 94.1612 111.193 94.0329 111.15 94.3322C111.15 94.6316 110.808 96.1711 110.894 96.9837C110.979 97.7962 111.107 98.3522 111.15 98.8226C111.193 99.293 110.723 100.234 110.723 100.234C110.723 100.234 112.647 101.431 112.989 101.089C113.288 100.747 113.972 99.9345 114.314 99.3785C114.784 98.6515 115.084 97.6679 115.084 97.6679L115.682 96.385C115.682 96.385 116.195 95.8718 116.409 95.6152C116.58 95.2731 116.495 95.0165 116.324 95.0165Z"
        fill="#BE7A3B"></path>
    <path
        d="M227.403 56.0571H204.7C203.246 56.0571 202.049 57.2546 202.049 58.7086V64.0542C202.049 65.3799 203.032 66.4918 204.358 66.6629C204.529 66.7057 204.7 66.834 204.7 67.0478V69.9986C204.7 70.1697 204.913 70.2552 204.999 70.0841L207.308 66.834C207.393 66.7484 207.479 66.6629 207.607 66.6629H227.36C228.814 66.6629 230.011 65.4655 230.011 64.0115V58.6658C230.011 57.2118 228.857 56.0571 227.403 56.0571Z"
        stroke="white" stroke-width="0.8956" stroke-miterlimit="10"></path>
    <path
        d="M208.163 61.3602C208.163 61.8306 207.779 62.2155 207.308 62.2155C206.838 62.2155 206.453 61.8306 206.453 61.3602C206.453 60.8898 206.838 60.5049 207.308 60.5049C207.779 60.5049 208.163 60.8898 208.163 61.3602Z"
        stroke="white" stroke-width="0.8956" stroke-miterlimit="10"></path>
    <path
        d="M212.525 61.3607C212.525 61.8311 212.14 62.216 211.67 62.216C211.199 62.216 210.814 61.8311 210.814 61.3607C210.814 60.8903 211.199 60.5054 211.67 60.5054C212.14 60.5054 212.525 60.8903 212.525 61.3607Z"
        stroke="white" stroke-width="0.8956" stroke-miterlimit="10"></path>
    <path
        d="M216.929 61.3607C216.929 61.8311 216.544 62.216 216.074 62.216C215.604 62.216 215.219 61.8311 215.219 61.3607C215.219 60.8903 215.604 60.5054 216.074 60.5054C216.501 60.5054 216.929 60.8903 216.929 61.3607Z"
        stroke="white" stroke-width="0.8956" stroke-miterlimit="10"></path>
    <path
        d="M221.288 61.3607C221.288 61.8311 220.904 62.216 220.433 62.216C219.963 62.216 219.578 61.8311 219.578 61.3607C219.578 60.8903 219.963 60.5054 220.433 60.5054C220.904 60.5054 221.288 60.8903 221.288 61.3607Z"
        stroke="white" stroke-width="0.8956" stroke-miterlimit="10"></path>
    <path
        d="M225.65 61.3607C225.65 61.8311 225.265 62.216 224.795 62.216C224.324 62.216 223.939 61.8311 223.939 61.3607C223.939 60.8903 224.324 60.5054 224.795 60.5054C225.265 60.5054 225.65 60.8903 225.65 61.3607Z"
        stroke="white" stroke-width="0.8956" stroke-miterlimit="10"></path>
    <path
        d="M48.1288 79.5356H70.8322C72.2859 79.5356 73.4831 80.7331 73.4831 82.1871V87.5327C73.4831 88.8585 72.4997 89.9704 71.1743 90.1414C71.0033 90.1842 70.8322 90.3125 70.8322 90.5263V93.4771C70.8322 93.6482 70.6185 93.7337 70.5329 93.5626L68.2241 90.3125C68.1386 90.227 68.0531 90.1414 67.9248 90.1414H48.1715C46.7178 90.1414 45.5206 88.944 45.5206 87.49V82.1443C45.4779 80.7331 46.6751 79.5356 48.1288 79.5356Z"
        stroke="white" stroke-width="0.8956" stroke-miterlimit="10"></path>
    <path
        d="M67.3281 84.8382C67.3281 85.3086 67.7129 85.6935 68.1832 85.6935C68.6536 85.6935 69.0384 85.3086 69.0384 84.8382C69.0384 84.3678 68.6536 83.9829 68.1832 83.9829C67.7129 83.9829 67.3281 84.3678 67.3281 84.8382Z"
        stroke="white" stroke-width="0.3" stroke-miterlimit="10"></path>
    <path
        d="M62.9648 84.8382C62.9648 85.3086 63.3496 85.6935 63.82 85.6935C64.2903 85.6935 64.6751 85.3086 64.6751 84.8382C64.6751 84.3678 64.2903 83.9829 63.82 83.9829C63.3496 83.9829 62.9648 84.3678 62.9648 84.8382Z"
        stroke="white" stroke-width="0.3" stroke-miterlimit="10"></path>
    <path
        d="M58.6055 84.8382C58.6055 85.3086 58.9903 85.6935 59.4606 85.6935C59.9309 85.6935 60.3157 85.3086 60.3157 84.8382C60.3157 84.3678 59.9309 83.9829 59.4606 83.9829C58.9903 83.9829 58.6055 84.3678 58.6055 84.8382Z"
        stroke="white" stroke-width="0.3" stroke-miterlimit="10"></path>
    <path
        d="M54.2441 84.8382C54.2441 85.3086 54.6289 85.6935 55.0993 85.6935C55.5696 85.6935 55.9544 85.3086 55.9544 84.8382C55.9544 84.3678 55.5696 83.9829 55.0993 83.9829C54.6289 83.9829 54.2441 84.3678 54.2441 84.8382Z"
        stroke="white" stroke-width="0.3" stroke-miterlimit="10"></path>
    <path
        d="M49.8398 84.8382C49.8398 85.3086 50.2246 85.6935 50.695 85.6935C51.1653 85.6935 51.5501 85.3086 51.5501 84.8382C51.5501 84.3678 51.1653 83.9829 50.695 83.9829C50.2674 83.9829 49.8398 84.3678 49.8398 84.8382Z"
        stroke="white" stroke-width="0.3" stroke-miterlimit="10"></path>
    <path
        d="M185.116 43.6983H143.77C141.504 43.6983 139.623 41.8594 139.623 39.5501C139.623 37.2835 141.462 35.4019 143.77 35.4019H185.116C187.382 35.4019 189.263 37.2408 189.263 39.5501C189.263 41.8166 187.424 43.6983 185.116 43.6983Z"
        fill="white" stroke="#F28123" stroke-miterlimit="10"></path>
    <path
        d="M184.517 39.2508C184.517 40.4483 183.534 41.4319 182.337 41.4319C181.14 41.4319 180.156 40.4483 180.156 39.2508C180.156 38.0534 181.14 37.0698 182.337 37.0698C183.534 37.0698 184.517 38.0534 184.517 39.2508Z"
        stroke="#F28123" stroke-width="0.3" stroke-miterlimit="10"></path>
    <path d="M183.875 40.833L185.072 42.0304" stroke="#F28123" stroke-width="0.3" stroke-miterlimit="10"
        stroke-linecap="round"></path>
    <path
        d="M122.477 156H112.087C110.249 156 108.795 154.503 108.795 152.707V142.315C108.795 140.476 110.291 139.022 112.087 139.022H122.477C124.315 139.022 125.769 140.519 125.769 142.315V152.707C125.769 154.546 124.315 156 122.477 156Z"
        fill="#FF9A46"></path>
    <path
        d="M119.399 156H109.009C107.171 156 105.717 154.503 105.717 152.707V142.315C105.717 140.476 107.213 139.022 109.009 139.022H119.399C121.237 139.022 122.691 140.519 122.691 142.315V152.707C122.691 154.546 121.194 156 119.399 156Z"
        fill="#F28123"></path>
    <path
        d="M112.172 144.325L117.047 147.147C117.346 147.318 117.346 147.746 117.047 147.917L112.172 150.74C111.873 150.911 111.488 150.697 111.488 150.355V144.71C111.488 144.368 111.873 144.154 112.172 144.325Z"
        fill="white"></path>
    <path
        d="M230.096 156H216.5C214.106 156 212.182 154.076 212.182 151.681V138.081C212.182 135.687 214.106 133.762 216.5 133.762H230.096C232.491 133.762 234.415 135.687 234.415 138.081V151.681C234.415 154.076 232.491 156 230.096 156Z"
        fill="#FF9A46"></path>
    <path
        d="M226.034 156H212.438C210.043 156 208.119 154.076 208.119 151.681V138.081C208.119 135.687 210.043 133.762 212.438 133.762H226.034C228.428 133.762 230.352 135.687 230.352 138.081V151.681C230.352 154.076 228.428 156 226.034 156Z"
        fill="#F28123"></path>
    <path
        d="M221.929 139.236C221.929 140.69 220.732 141.887 219.278 141.887C217.824 141.887 216.627 140.69 216.627 139.236C216.627 137.782 217.824 136.584 219.278 136.584C220.732 136.584 221.929 137.782 221.929 139.236Z"
        fill="white"></path>
    <path
        d="M224.794 148.303V152.237C224.794 152.579 224.495 152.879 224.153 152.879H214.319C213.977 152.879 213.678 152.579 213.678 152.237V148.303C213.678 145.224 216.158 142.743 219.236 142.743C222.314 142.7 224.794 145.224 224.794 148.303Z"
        fill="white"></path>
    <path
        d="M169.553 48.4451H160.831C160.489 48.4451 160.189 48.1457 160.189 47.8036C160.189 47.4615 160.489 47.1621 160.831 47.1621H169.553C169.895 47.1621 170.194 47.4615 170.194 47.8036C170.237 48.1457 169.938 48.4451 169.553 48.4451Z"
        fill="#F0F4FF"></path>
    <path
        d="M178.319 48.4451H171.991C171.649 48.4451 171.35 48.1457 171.35 47.8036C171.35 47.4615 171.649 47.1621 171.991 47.1621H178.319C178.661 47.1621 178.96 47.4615 178.96 47.8036C178.96 48.1457 178.661 48.4451 178.319 48.4451Z"
        fill="#F0F4FF"></path>
    <path
        d="M164.551 51.3103H160.831C160.489 51.3103 160.189 51.0109 160.189 50.6688C160.189 50.3267 160.489 50.0273 160.831 50.0273H164.551C164.893 50.0273 165.192 50.3267 165.192 50.6688C165.192 51.0109 164.893 51.3103 164.551 51.3103Z"
        fill="#F0F4FF"></path>
    <path
        d="M178.318 51.3103H166.774C166.432 51.3103 166.133 51.0109 166.133 50.6688C166.133 50.3267 166.432 50.0273 166.774 50.0273H178.318C178.66 50.0273 178.96 50.3267 178.96 50.6688C178.96 51.0109 178.66 51.3103 178.318 51.3103Z"
        fill="#F0F4FF"></path>
    <path
        d="M172.332 54.2185H160.831C160.489 54.2185 160.189 53.9191 160.189 53.577C160.189 53.2349 160.489 52.9355 160.831 52.9355H172.332C172.674 52.9355 172.974 53.2349 172.974 53.577C173.016 53.9191 172.717 54.2185 172.332 54.2185Z"
        fill="#F0F4FF"></path>
    <path
        d="M178.318 54.2185H174.598C174.256 54.2185 173.957 53.9191 173.957 53.577C173.957 53.2349 174.256 52.9355 174.598 52.9355H178.318C178.66 52.9355 178.959 53.2349 178.959 53.577C178.959 53.9191 178.66 54.2185 178.318 54.2185Z"
        fill="#F0F4FF"></path>
    <path
        d="M223.256 112.25H214.277C212.952 112.25 211.883 111.181 211.883 109.856V100.875C211.883 99.5491 212.952 98.48 214.277 98.48H223.256C224.581 98.48 225.65 99.5491 225.65 100.875V109.856C225.693 111.181 224.624 112.25 223.256 112.25Z"
        fill="#0F7174"></path>
    <path
        d="M222.701 111.053H212.738C211.67 111.053 210.814 110.198 210.814 109.128V99.1642C210.814 98.0951 211.67 97.2397 212.738 97.2397H222.701C223.77 97.2397 224.625 98.0951 224.625 99.1642V109.128C224.625 110.198 223.77 111.053 222.701 111.053Z"
        fill="#0F7174" stroke="white" stroke-miterlimit="10"></path>
    <path
        d="M214.918 108.273C214.875 108.273 214.833 108.273 214.79 108.273C214.576 108.231 214.448 107.974 214.491 107.76L216.586 100.362C216.628 100.148 216.885 100.02 217.099 100.062C217.313 100.105 217.441 100.362 217.398 100.576L215.303 107.974C215.26 108.188 215.089 108.273 214.918 108.273Z"
        fill="white"></path>
    <path
        d="M218.422 108.273C218.379 108.273 218.337 108.273 218.294 108.273C218.08 108.231 217.952 107.974 217.995 107.76L220.09 100.362C220.132 100.148 220.389 100.02 220.603 100.062C220.816 100.105 220.945 100.362 220.902 100.576L218.807 107.974C218.764 108.188 218.593 108.273 218.422 108.273Z"
        fill="white"></path>
    <path
        d="M221.414 102.928H214.017C213.761 102.928 213.59 102.757 213.59 102.5C213.59 102.244 213.761 102.073 214.017 102.073H221.414C221.671 102.073 221.842 102.244 221.842 102.5C221.842 102.757 221.628 102.928 221.414 102.928Z"
        fill="white"></path>
    <path
        d="M221.414 106.306H214.017C213.761 106.306 213.59 106.135 213.59 105.879C213.59 105.622 213.761 105.451 214.017 105.451H221.414C221.671 105.451 221.842 105.622 221.842 105.879C221.842 106.093 221.628 106.306 221.414 106.306Z"
        fill="white"></path>
    <path
        d="M56.6345 68.4162H51.29C50.9479 68.4162 50.6914 68.1596 50.6914 67.8175C50.6914 67.4753 50.9479 67.2188 51.29 67.2188H56.6345C56.9765 67.2188 57.2331 67.4753 57.2331 67.8175C57.2331 68.1596 56.9765 68.4162 56.6345 68.4162Z"
        fill="#F0F4FF"></path>
    <path
        d="M62.0218 71.0251H51.29C50.9479 71.0251 50.6914 70.7685 50.6914 70.4264C50.6914 70.0842 50.9479 69.8276 51.29 69.8276H62.0218C62.3638 69.8276 62.6203 70.0842 62.6203 70.4264C62.6203 70.7685 62.3638 71.0251 62.0218 71.0251Z"
        fill="#F0F4FF"></path>
    <path
        d="M52.5727 73.6335H51.29C50.9479 73.6335 50.6914 73.3769 50.6914 73.0347C50.6914 72.6926 50.9479 72.436 51.29 72.436H52.5727C52.9147 72.436 53.1712 72.6926 53.1712 73.0347C53.1712 73.3341 52.9147 73.6335 52.5727 73.6335Z"
        fill="#F0F4FF"></path>
    <path
        d="M62.0223 73.6335H54.54C54.1979 73.6335 53.9414 73.3769 53.9414 73.0347C53.9414 72.6926 54.1979 72.436 54.54 72.436H62.0223C62.3644 72.436 62.6209 72.6926 62.6209 73.0347C62.6209 73.3341 62.3644 73.6335 62.0223 73.6335Z"
        fill="#F0F4FF"></path>
    <path
        d="M62.0219 68.4162H58.7724C58.4304 68.4162 58.1738 68.1596 58.1738 67.8175C58.1738 67.4753 58.4304 67.2188 58.7724 67.2188H62.0219C62.3639 67.2188 62.6205 67.4753 62.6205 67.8175C62.6205 68.1596 62.3639 68.4162 62.0219 68.4162Z"
        fill="#F0F4FF"></path>
    <path
        d="M31.9215 148.345C31.2374 148.345 30.5533 148.516 29.9975 148.858C29.7837 146.848 28.0735 145.309 26.0212 145.309C23.7978 145.309 22.0448 147.105 22.0448 149.286C22.0448 149.414 22.0448 149.585 22.0876 149.713C21.9166 149.671 21.7028 149.671 21.5318 149.671C19.8643 149.671 18.4961 151.039 18.4961 152.707C18.4961 154.375 19.8643 155.743 21.5318 155.743H31.9643C34.0165 155.743 35.684 154.075 35.684 152.023C35.6413 150.013 33.9738 148.345 31.9215 148.345Z"
        fill="white"></path>
    <path
        d="M12.9121 132.308C12.8265 131.752 12.8265 131.196 12.9548 130.64C13.4251 128.801 13.981 125.337 12.7838 121.616C10.7743 115.373 2.69336 109.856 2.69336 109.856C2.69336 109.856 4.87392 119.05 6.71243 122.985C8.03787 125.85 10.3467 129.1 11.6294 130.854C11.9714 131.324 12.228 131.88 12.3562 132.479C13.6817 139.706 13.4679 145.308 13.4679 145.437L14.0665 145.479C14.0665 145.308 14.2375 139.663 12.9121 132.308Z"
        fill="#81BF5C"></path>
    <path
        d="M19.369 126.449C20.9937 121.36 21.7206 115.373 21.7206 115.373C21.7206 115.373 14.452 121.36 13.8534 125.979C13.4686 128.801 13.939 131.111 14.3665 132.436C14.5375 132.992 14.5803 133.591 14.5375 134.19C13.8107 140.989 14.3665 146.25 14.3665 146.335L14.9224 146.292C14.9224 146.207 14.3665 141.332 15.0079 134.917C15.0934 134.019 15.4354 133.206 15.9913 132.522C17.0602 131.196 18.5566 129.058 19.369 126.449Z"
        fill="#79CD6B"></path>
    <path
        d="M26.7649 115.159C26.7649 115.159 18.9405 118.067 16.8882 124.439C15.6483 128.331 16.2469 131.923 16.7172 133.762C16.8455 134.275 16.8455 134.831 16.7172 135.344C14.8787 142.7 14.8359 150.312 14.8359 150.398H15.4773C15.4773 150.312 15.52 142.871 17.273 135.644C17.4441 134.917 17.7434 134.275 18.2137 133.677C19.5391 131.88 21.8052 128.63 23.1306 125.808C24.9691 121.831 26.7649 115.159 26.7649 115.159Z"
        fill="#81BF5C"></path>
    <path
        d="M12.9551 142.101C12.7413 139.407 12.0145 137.012 11.1593 135.002C10.9883 134.617 10.9028 134.147 10.9883 133.719C11.1166 132.864 11.1593 131.581 10.8173 129.913C10.1759 126.791 6.02861 119.991 0 119.606C0 119.606 2.09505 122.942 3.16395 125.722C4.53214 129.271 6.45617 132.949 9.66287 134.36C10.2187 134.617 10.6463 135.087 10.9028 135.643C11.6724 137.525 12.3138 139.706 12.4848 142.101H12.9551Z"
        fill="#79CD6B"></path>
    <path
        d="M8.8956 155.828H18.815L21.3804 140.09C21.5086 139.406 20.9528 138.765 20.2687 138.765H7.4419C6.71504 138.765 6.20197 139.406 6.33024 140.09L8.8956 155.828Z"
        fill="#402722"></path>
    <path d="M5 155.658L235 156" stroke="white" stroke-width="1.1144" stroke-miterlimit="10" stroke-linecap="round">
    </path>
</svg>